<?xml version="1.0" encoding="UTF-8"?>
<!-- Generator: visioncortex VTracer 0.6.3 -->
<svg version="1.1" xmlns="http://www.w3.org/2000/svg" width="1280" height="1280">
<path d="M0 0 C1.7 0 1.7 0 3.43 0 C5.39 0 5.39 0 7.38 0 C8.85 0.01 10.32 0.01 11.79 0.01 C13.34 0.02 14.89 0.02 16.44 0.02 C20.74 0.02 25.04 0.03 29.33 0.03 C33.99 0.04 38.66 0.05 43.32 0.05 C51.5 0.06 59.68 0.07 67.86 0.08 C80.03 0.1 92.2 0.11 104.36 0.13 C124.82 0.15 145.29 0.17 165.75 0.2 C186.02 0.23 206.29 0.26 226.56 0.28 C227.82 0.28 229.08 0.28 230.38 0.28 C236.77 0.29 243.16 0.3 249.55 0.31 C294.87 0.36 340.19 0.41 385.5 0.47 C396.49 0.49 407.48 0.5 418.47 0.52 C419.49 0.52 419.49 0.52 420.53 0.52 C452.21 0.56 483.88 0.6 515.55 0.64 C517.6 0.64 519.66 0.64 521.71 0.64 C535.33 0.66 548.96 0.68 562.58 0.69 C590.33 0.73 618.08 0.76 645.83 0.79 C647.11 0.8 648.38 0.8 649.7 0.8 C734.96 0.9 820.22 1.01 905.49 1.12 C905.49 3.53 905.5 5.94 905.5 8.35 C905.51 9.37 905.51 9.37 905.51 10.41 C905.52 14.99 905.33 19.43 904.82 23.98 C904.75 24.67 904.68 25.35 904.6 26.06 C904.44 27.55 904.28 29.04 904.12 30.52 C903.65 34.79 903.21 39.05 902.77 43.32 C902.62 44.76 902.62 44.76 902.47 46.22 C901.55 55.27 900.73 64.33 899.92 73.39 C899.85 74.14 899.79 74.89 899.72 75.67 C899.04 83.27 898.37 90.88 897.7 98.49 C897.45 101.37 897.19 104.25 896.94 107.14 C896.76 109.14 896.59 111.14 896.41 113.14 C895.53 123.11 895.53 123.11 894.93 127.12 C894.48 130.14 894.24 133.11 894.06 136.17 C893.99 137.31 893.91 138.45 893.84 139.62 C893.76 140.84 893.69 142.06 893.61 143.31 C892.98 153.07 892.16 162.78 891.05 172.5 C889.83 183.28 888.91 194.05 888.11 204.87 C886.9 221.3 885.51 237.71 884.05 254.12 C883.89 255.92 883.89 255.92 883.72 257.76 C882.29 273.76 880.74 289.73 879.05 305.7 C877.87 316.83 876.96 327.94 876.27 339.1 C875.64 348.89 874.65 358.62 873.61 368.37 C872.07 382.86 870.76 397.35 869.61 411.87 C868.03 431.72 866.33 451.56 864.56 471.39 C864.36 473.6 864.17 475.8 863.97 478.01 C862.77 491.6 861.55 505.19 859.88 518.74 C859.3 523.73 858.98 528.73 858.67 533.75 C857.33 554.05 855.33 574.29 853.46 594.55 C852.73 602.45 852.01 610.35 851.31 618.25 C851.12 620.29 850.94 622.33 850.76 624.37 C850.5 627.25 850.24 630.13 849.99 633.01 C849.75 635.62 849.52 638.23 849.28 640.84 C849.22 641.6 849.15 642.36 849.08 643.14 C848.8 646.2 848.47 649.21 847.96 652.24 C847.45 655.33 847.23 658.35 847.06 661.47 C846.99 662.7 846.91 663.93 846.84 665.19 C846.73 667.17 846.73 667.17 846.61 669.18 C845.99 679.57 845.18 689.9 844.05 700.25 C842.87 711.05 841.9 721.85 841.05 732.68 C839.61 750.98 837.96 769.25 836.28 787.52 C835.63 794.5 835 801.47 834.38 808.45 C834.11 811.47 833.83 814.49 833.56 817.51 C833.39 819.44 833.22 821.37 833.04 823.31 C832.8 825.99 832.56 828.68 832.32 831.36 C832.25 832.15 832.18 832.93 832.11 833.74 C831.8 837.11 831.44 840.43 830.96 843.78 C830.51 846.98 830.24 850.12 830.06 853.35 C829.99 854.53 829.91 855.71 829.84 856.93 C829.76 858.19 829.69 859.45 829.61 860.75 C828.81 873.65 827.62 886.49 826.2 899.34 C825.72 903.72 825.32 908.1 825.03 912.5 C824.92 913.97 824.92 913.97 824.81 915.46 C824.68 917.26 824.57 919.06 824.48 920.87 C824.31 923.25 824.31 923.25 823.49 927.12 C819.3 930.47 814.2 931.5 809.11 932.83 C808.19 933.08 807.27 933.32 806.32 933.58 C803.38 934.37 800.43 935.15 797.49 935.93 C793.65 936.96 789.82 937.99 785.99 939.02 C784.56 939.4 784.56 939.4 783.1 939.79 C775.61 941.8 768.16 943.91 760.71 946.05 C754.01 947.98 747.29 949.83 740.55 951.62 C738.34 952.21 736.14 952.8 733.93 953.4 C732.31 953.83 732.31 953.83 730.66 954.27 C718.62 957.5 706.59 960.8 694.58 964.16 C689.13 965.68 683.66 967.15 678.19 968.61 C668.72 971.14 659.27 973.73 649.86 976.5 C628.58 982.76 607.21 988.73 585.76 994.38 C577.64 996.53 569.56 998.8 561.49 1001.12 C557.86 1002.15 554.24 1003.17 550.61 1004.18 C549.58 1004.47 548.54 1004.77 547.47 1005.06 C540.77 1006.94 534.06 1008.79 527.35 1010.63 C526.54 1010.85 525.74 1011.08 524.91 1011.3 C520.69 1012.46 516.47 1013.62 512.25 1014.77 C503.36 1017.2 494.5 1019.68 485.67 1022.27 C483.04 1023.04 480.4 1023.8 477.77 1024.57 C476.11 1025.06 474.44 1025.55 472.77 1026.05 C458.48 1030.34 447.68 1031.29 433.11 1027 C430.81 1026.35 428.5 1025.69 426.19 1025.04 C425.06 1024.72 423.92 1024.39 422.75 1024.05 C418.97 1022.98 415.19 1021.95 411.39 1020.94 C400.94 1018.14 390.56 1015.13 380.18 1012.1 C371.13 1009.46 362.07 1006.85 352.99 1004.31 C352.04 1004.04 351.09 1003.78 350.12 1003.51 C344.91 1002.05 339.69 1000.64 334.46 999.25 C325.41 996.85 316.39 994.36 307.36 991.87 C304.71 991.14 302.05 990.41 299.39 989.68 C297.62 989.19 295.85 988.7 294.08 988.21 C288.72 986.74 283.36 985.27 277.99 983.8 C257.42 978.18 257.42 978.18 248.74 975.37 C243.68 973.75 238.66 972.41 233.49 971.25 C226.89 969.76 220.41 967.99 213.92 966.06 C203.29 962.91 192.62 959.93 181.92 957 C180.22 956.53 178.52 956.06 176.81 955.6 C174.16 954.87 171.51 954.14 168.85 953.42 C153.15 949.12 137.47 944.77 121.79 940.42 C116.48 938.95 111.17 937.48 105.86 936.03 C102.83 935.19 99.8 934.35 96.77 933.51 C95.39 933.13 94 932.75 92.62 932.37 C90.76 931.87 88.89 931.35 87.03 930.83 C86 930.55 84.97 930.26 83.91 929.97 C81.49 929.12 81.49 929.12 79.49 927.12 C79 924.89 79 924.89 78.67 922.09 C78.55 921.06 78.42 920.03 78.3 918.98 C78.17 917.87 78.05 916.76 77.92 915.62 C77.79 914.48 77.66 913.34 77.53 912.16 C76.76 905.31 76.2 898.49 75.9 891.61 C75.55 884.03 74.87 876.47 74.19 868.91 C74.06 867.39 73.92 865.87 73.79 864.35 C73.6 862.2 73.4 860.05 73.21 857.9 C73.09 856.65 72.98 855.39 72.86 854.09 C72.66 851.2 72.66 851.2 71.49 849.12 C71.44 847.46 71.44 845.8 71.48 844.14 C71.52 838.64 71.18 833.25 70.65 827.77 C70.56 826.84 70.47 825.9 70.38 824.93 C70.11 821.98 69.83 819.02 69.55 816.06 C69.36 814.07 69.18 812.09 69 810.1 C68.26 802.19 67.51 794.28 66.71 786.37 C65.65 775.78 64.65 765.18 63.76 754.57 C63.7 753.82 63.63 753.06 63.57 752.29 C63.25 748.52 62.94 744.76 62.63 741 C61.96 732.97 61.17 724.98 60.16 716.99 C59.58 712.36 59.26 707.78 59.05 703.12 C58.64 694.7 57.95 686.3 57.19 677.9 C57.06 676.39 56.92 674.87 56.79 673.35 C56.6 671.2 56.4 669.05 56.21 666.9 C56.09 665.65 55.98 664.39 55.86 663.09 C55.66 660.2 55.66 660.2 54.49 658.12 C54.42 655.46 54.49 652.81 54.55 650.14 C54.55 647.12 54.55 647.12 54.04 644.15 C53.28 639 52.94 633.8 52.55 628.61 C52.37 626.36 52.2 624.12 52.03 621.88 C51.75 618.36 51.48 614.84 51.22 611.33 C50.96 607.92 50.69 604.51 50.42 601.11 C50.34 600.05 50.27 598.99 50.18 597.91 C50.11 596.93 50.03 595.95 49.95 594.94 C49.89 594.08 49.82 593.22 49.75 592.33 C49.54 589.95 49.54 589.95 48.49 587.12 C48.3 585.62 48.16 584.11 48.04 582.6 C47.96 581.68 47.89 580.77 47.81 579.82 C47.7 578.33 47.7 578.33 47.58 576.81 C47.5 575.78 47.42 574.74 47.33 573.67 C47.07 570.34 46.81 567.01 46.55 563.68 C45.29 547.63 43.89 531.6 42.22 515.58 C41.73 510.79 41.31 506.01 41.02 501.2 C40.48 492.89 39.85 484.59 39.18 476.29 C39.05 474.61 38.92 472.94 38.79 471.26 C38.6 468.8 38.4 466.34 38.21 463.88 C38.15 463.13 38.09 462.38 38.03 461.61 C37.76 457.74 37.76 457.74 36.49 454.12 C36.5 452.07 36.51 450.01 36.53 447.96 C36.44 442.12 35.75 436.31 35.17 430.5 C35.04 429.1 34.9 427.7 34.77 426.3 C34.49 423.39 34.2 420.48 33.92 417.57 C33.49 413.14 33.07 408.7 32.65 404.27 C32.46 402.15 32.26 400.04 32.05 397.92 C31.93 396.56 31.8 395.2 31.67 393.85 C31.5 391.95 31.32 390.06 31.14 388.17 C31.03 387.09 30.93 386.02 30.83 384.91 C30.54 382.56 30.06 380.42 29.49 378.12 C29.37 376.71 29.29 375.29 29.24 373.88 C29.19 372.64 29.19 372.64 29.14 371.37 C29.11 370.48 29.08 369.6 29.05 368.68 C28.74 361.13 28.21 353.64 27.42 346.12 C26.63 338.41 26.23 330.88 26.49 323.12 C25.83 323.12 25.17 323.12 24.49 323.12 C24.51 322.52 24.53 321.93 24.55 321.31 C24.75 311.19 23.75 301.17 22.83 291.1 C22.55 287.97 22.27 284.84 22 281.71 C21.82 279.72 21.64 277.73 21.46 275.74 C21.38 274.8 21.29 273.87 21.21 272.9 C21.13 272.04 21.05 271.18 20.97 270.29 C20.86 269.15 20.86 269.15 20.76 267.99 C20.57 266.03 20.57 266.03 19.49 264.12 C19.47 262.79 19.5 261.45 19.55 260.12 C19.59 255.61 19.22 251.22 18.67 246.75 C17.33 235.67 16.5 224.54 15.63 213.42 C15.05 206.19 14.39 199 13.46 191.82 C12.56 184.93 11.95 178.05 11.49 171.12 C11.32 168.8 11.16 166.48 10.99 164.16 C10.87 162.42 10.87 162.42 10.74 160.65 C10.33 154.93 9.88 149.21 9.42 143.5 C9.34 142.47 9.27 141.43 9.18 140.37 C9.11 139.43 9.03 138.49 8.95 137.52 C8.89 136.69 8.82 135.86 8.75 135.01 C8.68 133.11 8.68 133.11 7.49 132.12 C7.41 129.31 7.49 126.5 7.55 123.69 C7.5 120.93 7.33 118.33 7.04 115.6 C6.47 110.06 6 104.52 5.55 98.97 C5.37 96.87 5.2 94.78 5.03 92.68 C4.75 89.42 4.48 86.15 4.22 82.88 C3.96 79.7 3.69 76.52 3.42 73.34 C3.34 72.36 3.27 71.38 3.18 70.37 C3.11 69.46 3.03 68.55 2.95 67.62 C2.89 66.82 2.82 66.02 2.75 65.2 C2.53 62.93 2.53 62.93 1.49 60.12 C1.22 57.27 0.99 54.43 0.8 51.57 C0.68 49.82 0.55 48.07 0.43 46.32 C0.24 43.58 0.05 40.84 -0.14 38.1 C-0.81 28.32 -1.55 18.64 -3.13 8.95 C-3.49 6.28 -3.66 3.8 -3.51 1.12 C-2.51 0.12 -2.51 0.12 0 0 Z " fill="#0070B3" transform="translate(188.51332933083177,249.87795951589942)"/>
<path d="M0 0 C0.91 0 1.82 0 2.76 0.01 C3.72 0.01 4.68 0 5.67 0 C8.93 -0 12.2 0 15.46 0 C17.81 0 20.15 0 22.5 -0 C28.3 -0 34.1 -0 39.9 -0 C44.72 0 49.54 0 54.36 -0 C55.06 -0 55.75 -0 56.47 -0 C57.88 -0 59.3 -0 60.72 -0 C75.1 -0.01 89.49 -0 103.87 0 C105.46 0 107.05 0 108.64 0 C109.42 0.01 110.21 0.01 111.02 0.01 C118.95 0.01 126.88 0.01 134.8 0.01 C217.87 0.03 300.93 0.14 422.32 0.52 C430.19 0.55 438.05 0.58 445.92 0.6 C447.09 0.6 447.09 0.6 448.28 0.61 C449.85 0.61 451.42 0.62 452.99 0.62 C467.18 0.67 481.36 0.72 495.54 0.77 C496.94 0.78 498.33 0.78 499.73 0.79 C500.75 0.79 500.75 0.79 501.8 0.79 C506.55 0.81 511.31 0.83 516.07 0.84 C522.32 0.86 528.57 0.89 534.82 0.91 C537.09 0.92 539.37 0.93 541.64 0.94 C544.7 0.95 547.77 0.96 550.84 0.98 C551.74 0.98 552.64 0.98 553.57 0.98 C559.64 1.02 559.64 1.02 560.75 2.13 C560.7 4.57 560.59 6.98 560.42 9.41 C560.37 10.17 560.32 10.93 560.27 11.71 C559.65 21.05 558.87 30.37 558.06 39.7 C557.98 40.69 557.9 41.68 557.81 42.7 C556.21 61.36 554.46 80 552.69 98.64 C550.33 123.48 548.16 148.34 546.1 173.21 C544.29 195.11 542.33 217 540.33 238.88 C539.28 250.28 538.24 261.69 537.2 273.09 C537.09 274.3 536.98 275.51 536.87 276.76 C536.06 285.64 535.25 294.51 534.44 303.38 C534.38 304.04 534.32 304.69 534.26 305.37 C530.92 341.98 527.63 378.59 524.45 415.22 C522.69 435.58 520.87 455.93 518.96 476.27 C516.88 498.51 514.91 520.76 512.94 543.01 C512.82 544.36 512.82 544.36 512.7 545.75 C511.71 556.88 510.73 568 509.75 579.13 C500.98 581.84 492.2 584.49 483.38 587.01 C482.16 587.36 480.95 587.7 479.7 588.06 C471.23 590.47 462.73 592.73 454.2 594.91 C446.32 596.95 438.53 599.22 430.73 601.53 C423.94 603.53 417.11 605.38 410.25 607.13 C402.73 609.06 395.26 611.11 387.81 613.32 C377.45 616.39 367.05 619.28 356.63 622.13 C338.36 627.14 320.1 632.2 301.85 637.28 C299.51 637.93 297.17 638.58 294.84 639.23 C292.7 639.82 290.56 640.42 288.42 641.01 C287.46 641.28 286.51 641.54 285.53 641.82 C284.7 642.05 283.87 642.28 283.01 642.52 C282.27 642.72 281.52 642.92 280.75 643.13 C280.05 643.34 279.35 643.54 278.62 643.75 C275.82 644.33 273.76 643.51 271.05 642.69 C269.35 642.19 269.35 642.19 267.61 641.68 C266.4 641.32 265.19 640.95 263.94 640.57 C261.39 639.82 258.83 639.07 256.28 638.32 C255.64 638.13 255 637.94 254.34 637.75 C248.59 636.07 242.81 634.55 237 633.07 C228.19 630.82 219.46 628.32 210.73 625.74 C203.94 623.74 197.12 621.89 190.25 620.13 C181.35 617.86 172.54 615.35 163.73 612.74 C156.94 610.74 150.12 608.89 143.25 607.13 C134.66 604.93 126.15 602.53 117.64 600.02 C108.39 597.3 99.11 594.71 89.81 592.13 C88.26 591.7 86.71 591.27 85.16 590.84 C78.11 588.89 71.05 586.94 63.99 585.01 C61.73 584.38 59.46 583.76 57.19 583.13 C56.16 582.86 55.13 582.58 54.07 582.29 C53.14 582.03 52.21 581.77 51.25 581.51 C50.04 581.18 50.04 581.18 48.82 580.84 C46.75 580.13 46.75 580.13 43.75 578.13 C43.08 575.44 43.08 575.44 42.66 572.02 C42.5 570.75 42.35 569.48 42.19 568.17 C41.45 561.46 40.81 554.74 40.22 548.01 C40.08 546.45 39.94 544.89 39.8 543.33 C39.43 539.13 39.06 534.94 38.69 530.74 C38.38 527.23 38.07 523.71 37.76 520.2 C37.02 511.92 36.29 503.64 35.57 495.37 C34.81 486.83 34.06 478.29 33.3 469.76 C32.64 462.41 31.99 455.06 31.34 447.72 C30.96 443.34 30.57 438.96 30.18 434.57 C29.81 430.47 29.45 426.36 29.09 422.25 C28.96 420.74 28.83 419.23 28.69 417.72 C28.5 415.67 28.33 413.61 28.15 411.56 C28.05 410.41 27.95 409.26 27.84 408.07 C27.76 405.46 27.89 403.58 28.75 401.13 C30.33 399.56 31.89 400 34.07 399.99 C35.01 399.99 35.94 399.98 36.9 399.98 C37.93 399.97 38.96 399.97 40.02 399.97 C41.64 399.97 41.64 399.97 43.3 399.96 C46.88 399.94 50.47 399.94 54.06 399.93 C56.54 399.92 59.03 399.92 61.51 399.91 C66.72 399.9 71.93 399.9 77.14 399.89 C82.51 399.89 87.87 399.88 93.23 399.85 C99.69 399.83 106.15 399.81 112.61 399.81 C115.08 399.81 117.55 399.8 120.01 399.79 C123.46 399.77 126.91 399.77 130.35 399.78 C131.38 399.77 132.41 399.76 133.47 399.75 C134.87 399.76 134.87 399.76 136.3 399.77 C137.12 399.76 137.94 399.76 138.78 399.76 C139.43 399.88 140.08 400.01 140.75 400.13 C142.81 403.21 143.08 404.34 143.39 407.89 C143.47 408.83 143.55 409.76 143.64 410.73 C143.72 411.71 143.8 412.69 143.88 413.7 C143.96 414.65 144.05 415.6 144.14 416.58 C144.61 422.13 144.82 427.59 144.69 433.15 C144.62 435.21 144.62 435.21 145.75 437.13 C145.82 439.44 145.75 441.73 145.69 444.04 C145.61 446.19 145.61 446.19 146.75 448.13 C146.95 449.49 147.11 450.85 147.23 452.22 C147.31 453.06 147.39 453.9 147.48 454.76 C147.56 455.67 147.64 456.58 147.73 457.52 C147.81 458.45 147.9 459.38 147.99 460.33 C148.27 463.31 148.54 466.28 148.81 469.26 C149 471.27 149.19 473.29 149.38 475.3 C149.84 480.25 150.3 485.19 150.75 490.13 C157.6 492.49 164.48 494.5 171.47 496.39 C173.14 496.85 173.14 496.85 174.85 497.31 C178.46 498.3 182.08 499.28 185.69 500.26 C188.19 500.94 190.69 501.62 193.19 502.3 C207.97 506.31 222.75 510.31 237.57 514.18 C243.82 515.82 250.06 517.49 256.27 519.27 C258.06 519.77 258.06 519.77 259.88 520.29 C262.08 520.91 264.27 521.54 266.45 522.19 C267.9 522.6 267.9 522.6 269.38 523.02 C270.21 523.26 271.03 523.5 271.88 523.75 C279.24 524.74 286.39 522.62 293.41 520.62 C294.31 520.37 295.21 520.12 296.14 519.87 C298.05 519.34 299.96 518.81 301.87 518.27 C306.83 516.88 311.79 515.51 316.76 514.15 C318.21 513.74 318.21 513.74 319.69 513.34 C326.83 511.37 333.99 509.51 341.19 507.76 C348.99 505.85 356.73 503.8 364.43 501.52 C369.08 500.16 373.73 498.87 378.43 497.69 C381.11 497.02 383.78 496.33 386.45 495.64 C387.77 495.3 389.09 494.98 390.41 494.66 C392.26 494.22 394.11 493.74 395.95 493.26 C397.02 492.99 398.09 492.73 399.2 492.45 C402.03 491.32 402.03 491.32 403.1 488.2 C403.78 484.98 403.92 482.17 403.81 478.88 C403.66 473.33 403.66 473.33 404.75 471.13 C405.05 468.75 405.3 466.39 405.51 464 C405.57 463.29 405.64 462.58 405.7 461.85 C405.84 460.34 405.98 458.83 406.11 457.32 C406.31 455.04 406.52 452.75 406.73 450.47 C406.87 449 407 447.53 407.13 446.06 C407.19 445.39 407.26 444.71 407.32 444.02 C407.62 440.59 407.77 437.2 407.73 433.76 C407.75 430.13 407.75 430.13 408.75 428.13 C409.05 425.69 409.3 423.27 409.51 420.82 C409.57 420.09 409.64 419.36 409.7 418.6 C409.84 417.05 409.98 415.5 410.11 413.95 C410.31 411.6 410.52 409.26 410.73 406.91 C411.56 397.81 411.56 397.81 411.78 388.67 C411.75 385.13 411.75 385.13 412.75 383.13 C412.8 381.47 412.79 379.8 412.75 378.13 C412.64 373.36 412.64 373.36 413.75 371.13 C414.71 364.87 414.8 358.57 414.78 352.24 C414.78 351.21 414.78 351.21 414.77 350.16 C414.77 348.48 414.76 346.81 414.75 345.13 C413.93 345.13 413.93 345.13 413.08 345.13 C380.44 345.05 347.8 344.96 315.16 344.85 C311.24 344.84 307.32 344.83 303.41 344.82 C302.24 344.81 302.24 344.81 301.04 344.81 C288.41 344.77 275.77 344.74 263.13 344.71 C250.17 344.68 237.21 344.64 224.25 344.59 C216.25 344.56 208.25 344.54 200.25 344.53 C194.12 344.51 187.99 344.49 181.86 344.47 C179.34 344.46 176.82 344.45 174.3 344.45 C170.88 344.45 167.45 344.43 164.02 344.41 C163.01 344.41 162.01 344.42 160.97 344.42 C159.6 344.41 159.6 344.41 158.2 344.4 C157.01 344.39 157.01 344.39 155.8 344.39 C153.75 344.13 153.75 344.13 150.75 342.13 C150.26 339.55 149.96 337.15 149.76 334.54 C149.69 333.74 149.62 332.94 149.54 332.12 C149.31 329.44 149.09 326.75 148.88 324.07 C148.72 322.18 148.55 320.29 148.39 318.4 C148.03 314.26 147.68 310.12 147.33 305.97 C146.72 298.64 146.05 291.31 145.39 283.98 C145.04 280.13 144.69 276.28 144.34 272.43 C144.12 269.91 143.89 267.39 143.66 264.88 C143.34 261.31 143.02 257.74 142.71 254.16 C142.56 252.58 142.56 252.58 142.41 250.97 C141.84 244.38 141.34 237.75 141.75 231.13 C142.75 230.13 142.75 230.13 144.67 230.01 C145.95 230.02 145.95 230.02 147.26 230.02 C148.23 230.02 149.21 230.02 150.22 230.02 C151.31 230.02 152.4 230.03 153.52 230.03 C154.67 230.03 155.81 230.04 156.99 230.04 C160.19 230.04 163.39 230.05 166.58 230.06 C170.02 230.07 173.46 230.08 176.9 230.08 C182.87 230.09 188.84 230.1 194.81 230.12 C204.23 230.14 213.66 230.16 223.09 230.17 C226.31 230.17 229.53 230.18 232.76 230.18 C233.56 230.18 234.37 230.18 235.2 230.18 C244.37 230.19 253.54 230.21 262.72 230.22 C263.98 230.23 263.98 230.23 265.26 230.23 C278.86 230.25 292.46 230.28 306.06 230.31 C320.01 230.34 333.96 230.36 347.91 230.38 C356.52 230.38 365.14 230.4 373.75 230.43 C379.65 230.45 385.55 230.46 391.45 230.45 C394.85 230.45 398.26 230.46 401.67 230.48 C405.35 230.49 409.04 230.49 412.73 230.49 C413.81 230.5 414.9 230.51 416.02 230.52 C417 230.51 417.98 230.51 419 230.5 C420.28 230.5 420.28 230.5 421.58 230.51 C424.25 230.05 425.13 229.27 426.75 227.13 C427.35 224.66 427.35 224.66 427.48 221.87 C427.56 220.83 427.64 219.8 427.73 218.73 C427.8 217.65 427.87 216.56 427.94 215.45 C428.06 213.85 428.06 213.85 428.19 212.22 C428.52 207.64 428.8 203.09 428.74 198.49 C428.75 195.13 428.75 195.13 429.75 193.13 C429.8 191.47 429.79 189.8 429.75 188.13 C429.64 183.36 429.64 183.36 430.75 181.13 C431.05 178.87 431.29 176.6 431.51 174.33 C431.57 173.64 431.64 172.96 431.7 172.26 C431.84 170.81 431.98 169.36 432.11 167.92 C432.31 165.74 432.52 163.56 432.73 161.38 C433.41 154.29 433.91 147.28 433.71 140.15 C433.75 138.13 433.75 138.13 434.75 136.13 C435.63 130.71 435.81 125.27 435.78 119.78 C435.78 118.72 435.77 117.66 435.77 116.56 C435.76 115.76 435.76 114.96 435.75 114.13 C434.38 114.13 434.38 114.13 432.98 114.14 C378.91 114.18 324.83 114.22 270.75 114.24 C264.27 114.24 257.78 114.24 251.29 114.24 C250 114.24 248.71 114.24 247.38 114.25 C226.44 114.25 205.5 114.27 184.57 114.29 C163.1 114.31 141.63 114.32 120.16 114.32 C106.91 114.32 93.65 114.33 80.39 114.35 C71.31 114.36 62.23 114.36 53.15 114.36 C47.91 114.36 42.66 114.36 37.42 114.37 C32.62 114.38 27.83 114.38 23.03 114.38 C21.29 114.37 19.55 114.38 17.81 114.38 C15.45 114.39 13.1 114.39 10.75 114.38 C9.43 114.38 8.12 114.38 6.77 114.38 C3.75 114.13 3.75 114.13 1.75 112.13 C1.3 109.08 0.96 106.08 0.7 103.01 C0.61 102.06 0.52 101.12 0.43 100.14 C0.14 97 -0.14 93.85 -0.41 90.7 C-0.61 88.52 -0.81 86.33 -1.01 84.14 C-1.43 79.54 -1.84 74.94 -2.24 70.34 C-2.76 64.48 -3.29 58.61 -3.83 52.74 C-4.24 48.21 -4.65 43.69 -5.06 39.16 C-5.25 37 -5.45 34.84 -5.64 32.68 C-7.86 8.26 -7.86 8.26 -7.25 1.13 C-5.34 -0.77 -2.53 0.01 0 0 Z " fill="#F9FCFE" transform="translate(363.2476522922516,431.8662571310997)"/>
<path d="M0 0 C1.67 0 1.67 0 3.38 0 C4.67 -0 5.95 -0.01 7.28 -0.01 C8.72 -0.01 10.16 -0 11.6 0 C13.12 0 14.64 -0 16.15 -0.01 C20.34 -0.01 24.53 -0.01 28.72 0 C33.23 0.01 37.75 0 42.26 0 C51.1 -0 59.95 0 68.79 0.01 C79.08 0.02 89.37 0.02 99.66 0.02 C118.01 0.02 136.36 0.03 154.72 0.04 C172.54 0.06 190.37 0.06 208.2 0.06 C209.85 0.06 209.85 0.06 211.53 0.06 C213.17 0.06 213.17 0.06 214.85 0.06 C235.12 0.06 255.39 0.07 275.65 0.08 C282.83 0.08 290.02 0.08 297.2 0.08 C305.94 0.08 314.68 0.09 323.43 0.1 C327.89 0.1 332.36 0.1 336.83 0.1 C340.91 0.1 344.99 0.11 349.07 0.11 C350.55 0.11 352.04 0.12 353.52 0.11 C355.52 0.11 357.53 0.12 359.53 0.12 C360.64 0.12 361.76 0.12 362.91 0.12 C365.39 0.25 365.39 0.25 366.39 1.25 C366.42 2.78 366.38 4.31 366.31 5.84 C366.24 7.23 366.24 7.23 366.17 8.66 C366.12 9.64 366.07 10.62 366.02 11.62 C365.95 13.08 365.95 13.08 365.89 14.57 C365.52 21.86 365.52 21.86 364.39 25.25 C364.23 26.63 364.11 28.02 364.02 29.41 C363.96 30.25 363.91 31.08 363.85 31.94 C363.79 32.84 363.73 33.74 363.67 34.66 C363.61 35.58 363.55 36.51 363.48 37.46 C363.22 41.41 362.96 45.37 362.7 49.32 C362.5 52.2 362.31 55.09 362.11 57.97 C362.05 58.87 362 59.77 361.94 60.7 C361.88 61.53 361.82 62.36 361.77 63.21 C361.72 63.95 361.67 64.68 361.62 65.43 C361.39 67.25 361.39 67.25 360.39 69.25 C360.12 72.19 359.9 75.12 359.71 78.07 C359.65 78.96 359.59 79.85 359.53 80.77 C359.27 84.58 359.02 88.4 358.77 92.21 C358.09 102.57 357.26 112.82 355.88 123.12 C354.82 131.56 354.4 140.08 353.83 148.56 C353.58 152.23 353.33 155.89 353.08 159.55 C353.02 160.38 352.97 161.21 352.91 162.07 C352.69 165.31 352.43 168.15 351.39 171.25 C351.23 172.63 351.11 174.02 351.02 175.41 C350.96 176.25 350.91 177.08 350.85 177.94 C350.79 178.84 350.73 179.74 350.67 180.66 C350.61 181.58 350.55 182.51 350.48 183.46 C350.22 187.41 349.96 191.37 349.7 195.32 C349.5 198.2 349.31 201.09 349.11 203.97 C349.05 204.87 349 205.77 348.94 206.7 C348.88 207.53 348.82 208.36 348.77 209.21 C348.72 209.95 348.67 210.68 348.62 211.43 C348.39 213.25 348.39 213.25 347.39 215.25 C347.23 216.59 347.11 217.94 347.02 219.28 C346.96 220.12 346.91 220.95 346.85 221.8 C346.79 222.7 346.73 223.6 346.67 224.53 C346.61 225.45 346.55 226.37 346.48 227.32 C346.28 230.28 346.09 233.23 345.89 236.19 C345.64 240.07 345.38 243.96 345.11 247.84 C345.05 248.74 345 249.63 344.94 250.56 C344.88 251.39 344.82 252.23 344.77 253.09 C344.72 253.82 344.67 254.55 344.62 255.31 C344.39 257.25 344.39 257.25 343.39 260.25 C343.11 263.19 342.88 266.11 342.67 269.05 C342.61 269.93 342.55 270.8 342.48 271.71 C342.28 274.51 342.09 277.32 341.89 280.12 C341.76 281.98 341.63 283.83 341.5 285.68 C341.4 287.03 341.4 287.03 341.3 288.42 C341.21 289.75 341.21 289.75 341.11 291.12 C340.99 292.88 340.86 294.63 340.74 296.39 C340.68 297.22 340.62 298.04 340.56 298.89 C340.41 301.05 340.26 303.21 340.11 305.36 C340.03 306.52 339.95 307.69 339.86 308.88 C339.79 309.86 339.73 310.84 339.66 311.86 C339.39 314.25 339.39 314.25 338.39 317.25 C338.23 318.6 338.11 319.95 338.02 321.31 C337.96 322.12 337.91 322.93 337.85 323.76 C337.79 324.64 337.73 325.51 337.67 326.41 C337.61 327.3 337.55 328.2 337.48 329.13 C337.28 332 337.09 334.88 336.89 337.75 C336.64 341.53 336.38 345.31 336.11 349.09 C336.05 349.97 336 350.84 335.94 351.74 C335.88 352.55 335.82 353.36 335.77 354.19 C335.69 355.26 335.69 355.26 335.62 356.35 C335.39 358.25 335.39 358.25 334.39 361.25 C334.23 362.63 334.11 364.01 334.02 365.4 C333.96 366.23 333.91 367.06 333.85 367.92 C333.79 368.81 333.73 369.7 333.67 370.62 C333.61 371.55 333.55 372.47 333.48 373.42 C333.28 376.36 333.09 379.3 332.89 382.25 C332.64 386.12 332.38 390 332.11 393.87 C332.05 394.77 332 395.66 331.94 396.58 C331.88 397.41 331.82 398.24 331.77 399.1 C331.72 399.83 331.67 400.56 331.62 401.31 C331.39 403.25 331.39 403.25 330.39 406.25 C330.23 407.63 330.11 409.02 330.02 410.41 C329.96 411.25 329.91 412.08 329.85 412.94 C329.79 413.84 329.73 414.74 329.67 415.66 C329.61 416.58 329.55 417.51 329.48 418.46 C329.22 422.41 328.96 426.37 328.7 430.32 C328.5 433.2 328.31 436.09 328.11 438.97 C328.05 439.87 328 440.77 327.94 441.7 C327.88 442.53 327.82 443.36 327.77 444.21 C327.72 444.95 327.67 445.68 327.62 446.43 C327.39 448.25 327.39 448.25 326.39 450.25 C326.19 451.95 326.05 453.66 325.93 455.37 C325.85 456.44 325.77 457.51 325.7 458.61 C325.62 459.77 325.54 460.92 325.46 462.12 C325.37 463.3 325.29 464.49 325.2 465.71 C324.93 469.52 324.66 473.32 324.39 477.12 C324.13 480.92 323.86 484.72 323.59 488.52 C323.42 490.88 323.25 493.25 323.09 495.61 C323.01 496.69 322.94 497.76 322.86 498.87 C322.79 499.81 322.73 500.76 322.66 501.73 C322.42 504.01 321.96 506.04 321.39 508.25 C321.24 509.64 321.11 511.03 321.02 512.42 C320.96 513.23 320.91 514.04 320.85 514.88 C320.79 515.74 320.73 516.61 320.67 517.5 C320.61 518.4 320.55 519.3 320.48 520.22 C320.22 524.06 319.96 527.89 319.7 531.73 C319.5 534.53 319.31 537.33 319.11 540.13 C319.05 541 319 541.87 318.94 542.76 C318.88 543.57 318.82 544.38 318.77 545.21 C318.72 545.92 318.67 546.63 318.62 547.36 C318.39 549.25 318.39 549.25 317.39 552.25 C317.23 553.6 317.11 554.95 317.02 556.31 C316.96 557.12 316.91 557.93 316.85 558.76 C316.79 559.64 316.73 560.51 316.67 561.41 C316.61 562.3 316.55 563.2 316.48 564.13 C316.28 567 316.09 569.88 315.89 572.75 C315.64 576.53 315.38 580.31 315.11 584.09 C315.05 584.97 315 585.84 314.94 586.74 C314.88 587.55 314.82 588.36 314.77 589.19 C314.72 589.91 314.67 590.62 314.62 591.35 C314.39 593.25 314.39 593.25 313.39 596.25 C313.23 597.66 313.11 599.08 313.02 600.51 C312.96 601.36 312.91 602.21 312.85 603.09 C312.79 604.01 312.73 604.93 312.67 605.88 C312.61 606.82 312.55 607.77 312.48 608.74 C312.22 612.79 311.96 616.84 311.7 620.89 C311.5 623.85 311.31 626.8 311.11 629.75 C311.05 630.67 311 631.6 310.94 632.54 C310.88 633.39 310.82 634.25 310.77 635.12 C310.72 635.87 310.67 636.62 310.62 637.4 C310.39 639.25 310.39 639.25 309.39 641.25 C309.19 642.92 309.05 644.6 308.93 646.28 C308.85 647.33 308.77 648.37 308.7 649.45 C308.62 650.59 308.54 651.73 308.46 652.9 C308.37 654.06 308.29 655.23 308.2 656.43 C307.93 660.16 307.66 663.89 307.39 667.62 C307.13 671.35 306.86 675.08 306.59 678.8 C306.42 681.12 306.25 683.45 306.09 685.77 C306.01 686.82 305.94 687.88 305.86 688.96 C305.79 689.89 305.73 690.82 305.66 691.77 C305.42 694.03 304.95 696.06 304.39 698.25 C304.24 699.64 304.11 701.03 304.02 702.42 C303.96 703.23 303.91 704.04 303.85 704.88 C303.79 705.74 303.73 706.61 303.67 707.5 C303.61 708.4 303.55 709.3 303.48 710.22 C303.22 714.06 302.96 717.89 302.7 721.73 C302.5 724.53 302.31 727.33 302.11 730.13 C302.05 731 302 731.87 301.94 732.76 C301.88 733.57 301.82 734.38 301.77 735.21 C301.72 735.92 301.67 736.63 301.62 737.36 C301.39 739.25 301.39 739.25 300.39 742.25 C300.24 743.61 300.12 744.97 300.04 746.33 C299.98 747.15 299.93 747.97 299.87 748.81 C299.82 749.69 299.77 750.58 299.71 751.48 C299.59 753.36 299.46 755.23 299.34 757.1 C299.15 760.05 298.96 762.99 298.77 765.94 C298.59 768.79 298.4 771.64 298.21 774.48 C298.16 775.36 298.11 776.23 298.05 777.13 C297.71 782.09 297.2 786.59 295.39 791.25 C292.57 792.69 290.41 793.48 287.39 794.25 C286.59 794.48 285.78 794.71 284.95 794.95 C282.1 795.75 279.25 796.5 276.39 797.25 C266.86 799.76 257.36 802.38 247.89 805.1 C242.65 806.61 237.41 808.08 232.15 809.49 C229.12 810.33 226.09 811.2 223.07 812.08 C214.6 814.5 206.08 816.67 197.55 818.82 C190.79 820.53 184.08 822.27 177.49 824.56 C172.7 826.13 167.75 827.19 162.85 828.36 C157.94 829.55 153.15 830.94 148.37 832.58 C146 833.38 143.62 834.05 141.21 834.69 C137.08 835.78 132.98 836.93 128.87 838.11 C121.89 840.11 114.9 842.07 107.89 844 C106.66 844.34 105.43 844.68 104.15 845.03 C95 847.55 85.82 850.01 76.64 852.44 C68.05 854.71 59.47 857.04 50.96 859.6 C45.49 861.24 40 862.7 34.48 864.15 C29.54 865.46 24.62 866.89 19.71 868.31 C16.27 869.3 12.83 870.27 9.39 871.25 C8.37 871.54 8.37 871.54 7.32 871.84 C5.62 872.32 3.91 872.79 2.21 873.25 C1.3 873.5 0.4 873.74 -0.52 874 C-1.56 874.12 -1.56 874.12 -2.61 874.25 C-4.61 872.25 -4.61 872.25 -4.85 870.1 C-4.85 868.76 -4.85 868.76 -4.84 867.39 C-4.84 866.36 -4.84 865.34 -4.84 864.28 C-4.83 862.58 -4.83 862.58 -4.82 860.86 C-4.82 859.67 -4.82 858.48 -4.81 857.26 C-4.81 854 -4.79 850.74 -4.78 847.48 C-4.76 844.07 -4.76 840.66 -4.75 837.25 C-4.74 830.8 -4.72 824.34 -4.69 817.88 C-4.65 806.31 -4.62 794.75 -4.59 783.18 C-4.59 779.78 -4.58 776.39 -4.56 772.99 C-4.55 769.21 -4.53 765.43 -4.53 761.64 C-4.52 760.51 -4.51 759.38 -4.5 758.22 C-4.5 757.19 -4.5 756.17 -4.5 755.11 C-4.5 754.21 -4.49 753.32 -4.49 752.4 C-4.47 750.2 -4.47 750.2 -5.61 748.25 C-3.9 747.9 -3.9 747.9 -2.17 747.54 C5.41 745.85 12.86 743.7 20.33 741.62 C22.06 741.15 23.79 740.67 25.52 740.19 C28.35 739.41 31.18 738.63 34 737.85 C41.9 735.66 49.8 733.49 57.7 731.32 C90.35 722.34 90.35 722.34 122.92 713.08 C133.29 710.09 143.71 707.31 154.17 704.65 C161.45 702.79 168.64 700.73 175.83 698.52 C184.86 695.76 193.99 693.36 203.12 690.93 C209.48 689.24 215.81 687.48 222.14 685.67 C227.18 684.25 227.18 684.25 229.39 684.25 C229.35 682.3 229.35 682.3 229.31 680.31 C229.31 672.6 230.09 664.95 230.78 657.28 C230.93 655.61 231.08 653.93 231.23 652.26 C231.61 647.83 232.01 643.41 232.4 638.98 C232.71 635.51 233.02 632.03 233.33 628.55 C235.04 609.12 236.81 589.69 238.63 570.27 C240.54 549.82 242.36 529.36 244.18 508.9 C244.56 504.65 244.94 500.4 245.32 496.14 C247.49 471.7 249.66 447.25 251.82 422.81 C252.71 412.79 253.6 402.78 254.49 392.76 C254.78 389.42 255.08 386.08 255.37 382.73 C258.35 349.18 261.34 315.63 264.42 282.08 C266.75 256.59 268.97 231.08 271.14 205.57 C271.44 202.04 271.74 198.5 272.05 194.96 C272.1 194.28 272.16 193.6 272.22 192.9 C273.59 176.78 275.05 160.67 276.53 144.56 C276.6 143.82 276.67 143.07 276.74 142.31 C277.14 138 277.54 133.7 277.95 129.4 C278.13 127.41 278.32 125.42 278.5 123.44 C278.64 122.05 278.64 122.05 278.77 120.63 C278.85 119.76 278.93 118.88 279.02 117.98 C279.09 117.21 279.16 116.44 279.24 115.65 C279.42 112.84 279.4 110.06 279.39 107.25 C278.8 107.25 278.2 107.25 277.59 107.25 C242.3 107.16 207.01 107.07 171.72 106.97 C167.49 106.96 163.25 106.94 159.02 106.93 C158.18 106.93 157.33 106.93 156.47 106.92 C142.8 106.88 129.14 106.85 115.48 106.82 C101.47 106.79 87.46 106.75 73.45 106.71 C64.8 106.68 56.15 106.66 47.5 106.64 C41.57 106.63 35.65 106.61 29.72 106.59 C26.3 106.58 22.87 106.57 19.45 106.57 C15.75 106.56 12.04 106.55 8.34 106.53 C7.25 106.53 6.16 106.53 5.03 106.53 C4.05 106.53 3.06 106.52 2.04 106.51 C1.19 106.51 0.33 106.51 -0.55 106.5 C-2.61 106.25 -2.61 106.25 -4.61 104.25 C-4.86 102.42 -4.86 102.42 -4.86 100.15 C-4.87 99.29 -4.87 98.43 -4.88 97.55 C-4.87 96.61 -4.87 95.66 -4.87 94.69 C-4.87 93.7 -4.87 92.71 -4.88 91.69 C-4.89 88.39 -4.88 85.1 -4.87 81.81 C-4.87 79.53 -4.88 77.25 -4.88 74.97 C-4.88 70.19 -4.88 65.41 -4.87 60.63 C-4.86 54.49 -4.86 48.35 -4.87 42.21 C-4.88 37.5 -4.88 32.79 -4.87 28.08 C-4.87 25.82 -4.87 23.55 -4.88 21.29 C-4.88 18.13 -4.88 14.97 -4.87 11.81 C-4.87 10.86 -4.87 9.92 -4.88 8.95 C-4.87 8.09 -4.87 7.23 -4.86 6.35 C-4.86 5.23 -4.86 5.23 -4.86 4.08 C-4.42 0.88 -3.06 0.29 0 0 Z " fill="#2DA9DC" transform="translate(643.6068730950356,326.7504523396492)"/>
<path d="M0 0 C0.93 -0.01 1.86 -0.01 2.83 -0.02 C3.86 -0.02 4.89 -0.02 5.95 -0.02 C7.03 -0.03 8.11 -0.03 9.22 -0.04 C12.81 -0.05 16.4 -0.06 19.99 -0.06 C22.47 -0.07 24.95 -0.07 27.44 -0.08 C32.65 -0.09 37.86 -0.1 43.07 -0.1 C48.43 -0.1 53.8 -0.12 59.16 -0.14 C65.62 -0.17 72.08 -0.18 78.54 -0.18 C81 -0.19 83.47 -0.19 85.94 -0.21 C89.39 -0.22 92.83 -0.22 96.28 -0.22 C97.82 -0.23 97.82 -0.23 99.4 -0.24 C100.33 -0.24 101.27 -0.23 102.23 -0.23 C103.05 -0.23 103.86 -0.23 104.7 -0.23 C105.35 -0.11 106.01 0.01 106.68 0.14 C108.73 3.22 109 4.34 109.31 7.89 C109.4 8.83 109.48 9.77 109.57 10.74 C109.64 11.72 109.72 12.69 109.8 13.7 C109.89 14.65 109.98 15.61 110.07 16.59 C110.54 22.13 110.75 27.59 110.61 33.16 C110.54 35.22 110.54 35.22 111.68 37.14 C111.75 39.45 111.68 41.74 111.62 44.05 C111.53 46.2 111.53 46.2 112.68 48.14 C112.88 49.5 113.03 50.86 113.16 52.22 C113.24 53.06 113.32 53.9 113.4 54.77 C113.48 55.68 113.57 56.59 113.65 57.52 C113.74 58.45 113.83 59.38 113.92 60.34 C114.2 63.31 114.47 66.29 114.74 69.27 C114.93 71.28 115.12 73.29 115.31 75.31 C115.77 80.25 116.22 85.2 116.68 90.14 C123.52 92.49 130.41 94.51 137.39 96.4 C138.51 96.7 139.63 97.01 140.78 97.32 C144.39 98.31 148 99.29 151.62 100.27 C154.12 100.95 156.61 101.62 159.11 102.3 C175.16 106.67 191.23 110.97 207.32 115.2 C218.45 118.13 229.57 121.13 240.68 124.14 C240.68 124.8 240.68 125.46 240.68 126.14 C241.67 126.47 242.66 126.8 243.68 127.14 C243.35 165.42 243.02 203.7 242.68 243.14 C236.22 241.85 229.92 240.5 223.58 238.78 C222.75 238.56 221.92 238.34 221.06 238.11 C218.39 237.4 215.72 236.67 213.05 235.95 C212.14 235.71 211.22 235.46 210.28 235.21 C198.73 232.1 187.21 228.91 175.75 225.49 C168.31 223.29 160.83 221.33 153.32 219.41 C145.38 217.36 137.52 215.07 129.66 212.75 C122.86 210.75 116.04 208.9 109.18 207.14 C100.59 204.94 92.08 202.54 83.57 200.03 C74.32 197.3 65.04 194.71 55.74 192.14 C54.19 191.71 52.64 191.28 51.09 190.85 C44.04 188.89 36.98 186.95 29.92 185.02 C27.65 184.39 25.38 183.77 23.12 183.14 C22.09 182.86 21.06 182.58 20 182.3 C19.07 182.04 18.14 181.78 17.18 181.52 C16.37 181.3 15.57 181.08 14.74 180.85 C12.68 180.14 12.68 180.14 9.68 178.14 C9 175.45 9 175.45 8.59 172.02 C8.43 170.75 8.27 169.49 8.11 168.18 C7.38 161.47 6.74 154.75 6.15 148.02 C6.01 146.46 5.87 144.89 5.73 143.33 C5.36 139.14 4.99 134.94 4.62 130.75 C4.31 127.23 4 123.72 3.68 120.21 C2.95 111.93 2.22 103.65 1.49 95.37 C0.74 86.84 -0.02 78.3 -0.78 69.77 C-1.43 62.42 -2.08 55.07 -2.73 47.72 C-3.12 43.34 -3.5 38.96 -3.89 34.58 C-4.26 30.47 -4.62 26.36 -4.98 22.25 C-5.11 20.75 -5.25 19.24 -5.38 17.73 C-5.57 15.68 -5.75 13.62 -5.92 11.56 C-6.02 10.41 -6.13 9.26 -6.23 8.08 C-6.31 5.46 -6.19 3.59 -5.32 1.14 C-3.75 -0.43 -2.19 0.01 0 0 Z " fill="#E7EAEB" transform="translate(397.32078552246094,831.8595581054688)"/>
<path d="M0 0 C0.86 0 1.72 0 2.61 0 C3.6 -0 4.6 -0 5.62 -0 C6.72 -0 7.82 0 8.96 0 C10.12 0 11.28 0 12.47 0 C15.71 -0 18.95 0 22.18 0.01 C25.67 0.01 29.15 0.01 32.63 0.01 C38.67 0.01 44.72 0.01 50.76 0.02 C59.49 0.03 68.23 0.03 76.96 0.03 C91.13 0.03 105.3 0.04 119.47 0.05 C133.24 0.06 147 0.07 160.77 0.07 C161.62 0.07 162.47 0.07 163.34 0.07 C167.6 0.07 171.85 0.07 176.1 0.07 C211.42 0.08 246.74 0.1 282.05 0.12 C282.05 37.74 282.05 75.36 282.05 114.12 C247.18 114.17 212.31 114.21 177.44 114.23 C173.33 114.23 169.21 114.23 165.1 114.23 C163.87 114.23 163.87 114.23 162.62 114.24 C149.34 114.24 136.07 114.26 122.79 114.28 C109.18 114.3 95.57 114.31 81.96 114.31 C73.55 114.32 65.15 114.32 56.74 114.34 C50.99 114.35 45.23 114.35 39.47 114.35 C36.15 114.35 32.82 114.35 29.49 114.36 C25.9 114.37 22.3 114.37 18.7 114.36 C17.64 114.37 16.58 114.38 15.48 114.38 C14.53 114.38 13.57 114.37 12.58 114.37 C11.75 114.37 10.92 114.37 10.06 114.37 C8.05 114.12 8.05 114.12 6.05 112.12 C5.6 109.07 5.26 106.07 5 103 C4.91 102.05 4.83 101.11 4.73 100.13 C4.44 96.99 4.17 93.84 3.89 90.69 C3.69 88.51 3.49 86.32 3.29 84.13 C2.88 79.53 2.47 74.93 2.06 70.34 C1.54 64.47 1.01 58.6 0.47 52.73 C0.06 48.2 -0.35 43.68 -0.75 39.15 C-0.95 36.99 -1.14 34.83 -1.34 32.67 C-3.55 8.25 -3.55 8.25 -2.95 1.12 C-1.95 0.12 -1.95 0.12 0 0 Z " fill="#E7EAEB" transform="translate(358.9452148079872,431.8758015036583)"/>
<path d="M0 0 C18.24 -0.02 36.47 -0.04 54.71 -0.05 C63.18 -0.06 71.64 -0.06 80.11 -0.08 C87.49 -0.09 94.86 -0.09 102.24 -0.09 C106.15 -0.1 110.06 -0.1 113.97 -0.11 C117.64 -0.11 121.32 -0.11 124.99 -0.11 C126.99 -0.11 128.99 -0.12 130.99 -0.12 C132.76 -0.12 132.76 -0.12 134.56 -0.12 C135.6 -0.12 136.63 -0.12 137.69 -0.12 C140 0 140 0 141 1 C141.43 10.79 141.08 20.64 139.44 30.31 C138.91 33.07 138.91 33.07 139 36.19 C139 39 139 39 138 42 C137.81 44.94 137.67 47.87 137.56 50.81 C137.22 58.58 136.7 66.32 136 74.06 C135.92 75.01 135.83 75.95 135.75 76.93 C135.67 77.81 135.58 78.69 135.5 79.6 C135.43 80.38 135.36 81.16 135.28 81.96 C135 84 135 84 134 87 C133.81 89.98 133.67 92.95 133.56 95.94 C133.24 103.32 132.74 110.65 132 118 C131.92 118.84 131.83 119.68 131.75 120.55 C131.13 126.47 131.13 126.47 130.47 129.11 C129.89 131.43 129.98 133.48 130.06 135.88 C130.07 140 130.07 143.32 128 147 C122.8 149.59 117.48 151.07 111.87 152.49 C111 152.71 110.14 152.94 109.25 153.17 C107.41 153.64 105.57 154.11 103.73 154.58 C99.87 155.57 96.02 156.57 92.16 157.57 C90.34 158.04 88.51 158.51 86.68 158.98 C80.59 160.56 74.54 162.25 68.5 164 C61.64 165.98 54.78 167.89 47.88 169.7 C46.96 169.94 46.04 170.18 45.09 170.43 C42.23 171.19 39.36 171.94 36.5 172.69 C35.58 172.93 34.67 173.17 33.73 173.42 C25.28 175.63 16.83 177.84 8.34 179.89 C7.35 180.14 6.35 180.38 5.32 180.63 C3 181 3 181 1 180 C1 179.08 1 178.17 1 177.23 C1.02 154.98 1.04 132.73 1.05 110.48 C1.06 99.72 1.06 88.96 1.08 78.2 C1.09 68.83 1.09 59.45 1.09 50.08 C1.1 45.11 1.1 40.14 1.11 35.18 C1.11 30.51 1.11 25.84 1.11 21.17 C1.11 19.45 1.12 17.73 1.12 16.01 C1.12 13.67 1.12 11.34 1.12 9 C1.12 7.69 1.12 6.38 1.12 5.03 C1.21 2.08 1.21 2.08 0 0 Z " fill="#2DA9DC" transform="translate(638,776)"/>
<path d="M0 0 C52.8 0 105.6 0 160 0 C160 15.84 160 31.68 160 48 C135.91 48 111.82 48 87 48 C94.15 56.84 94.15 56.84 101.88 64.86 C104.42 67.42 106.75 70.14 109.12 72.86 C112.12 76.28 115.25 79.57 118.38 82.88 C123.19 87.99 127.96 93.14 132.64 98.39 C135.68 101.75 138.78 105.06 141.88 108.38 C146.33 113.13 150.77 117.89 155.19 122.69 C156.05 123.62 156.91 124.55 157.79 125.51 C158.52 126.33 159.25 127.15 160 128 C160.53 128.52 161.07 129.04 161.62 129.57 C163.77 133.36 163.39 137.05 163.33 141.32 C163.33 142.23 163.32 143.13 163.32 144.06 C163.32 145.96 163.3 147.86 163.28 149.76 C163.25 152.69 163.24 155.61 163.23 158.53 C163.23 160.38 163.21 162.23 163.2 164.07 C163.2 164.95 163.19 165.83 163.19 166.74 C163.12 172.88 163.12 172.88 162 174 C159.93 174.1 157.85 174.13 155.77 174.13 C155.12 174.13 154.46 174.13 153.78 174.13 C151.56 174.14 149.34 174.13 147.12 174.13 C145.54 174.13 143.95 174.13 142.37 174.13 C138.05 174.14 133.74 174.14 129.42 174.13 C124.91 174.13 120.41 174.13 115.9 174.14 C108.33 174.14 100.76 174.14 93.19 174.13 C84.43 174.12 75.66 174.13 66.9 174.13 C59.39 174.14 51.88 174.14 44.37 174.13 C39.88 174.13 35.38 174.13 30.89 174.14 C26.67 174.14 22.45 174.14 18.23 174.13 C16.67 174.13 15.12 174.13 13.56 174.13 C11.45 174.14 9.34 174.13 7.23 174.13 C6.04 174.13 4.86 174.13 3.63 174.13 C1 174 1 174 0 173 C-0.09 171.5 -0.12 169.99 -0.11 168.48 C-0.11 167.52 -0.11 166.56 -0.11 165.57 C-0.11 164.52 -0.1 163.48 -0.1 162.4 C-0.1 161.34 -0.09 160.27 -0.09 159.18 C-0.09 155.76 -0.08 152.35 -0.06 148.94 C-0.06 146.63 -0.05 144.32 -0.05 142.01 C-0.04 136.34 -0.02 130.67 0 125 C3.68 123.84 7.14 123.88 10.97 123.89 C11.66 123.89 12.36 123.89 13.07 123.89 C15.36 123.89 17.64 123.89 19.92 123.9 C21.51 123.9 23.09 123.91 24.68 123.91 C28.85 123.91 33.02 123.92 37.19 123.93 C41.44 123.94 45.7 123.95 49.96 123.95 C58.3 123.96 66.65 123.98 75 124 C72.61 120.35 70.35 117.13 67.19 114.12 C64.55 111.62 62.11 109.01 59.73 106.27 C55.98 101.94 52.07 97.78 48.12 93.62 C43.08 88.29 38.08 82.92 33.19 77.44 C30.55 74.5 27.87 71.59 25.19 68.69 C24.68 68.14 24.18 67.6 23.66 67.04 C21.58 64.78 19.49 62.53 17.41 60.28 C16.35 59.14 15.29 57.99 14.23 56.85 C13.24 55.79 12.26 54.73 11.27 53.66 C-6.68 34.27 0 39.16 0 0 Z " fill="#0F1314" transform="translate(548,0)"/>
<path d="M0 0 C52.8 0 105.6 0 160 0 C160 15.84 160 31.68 160 48 C124.36 48.49 124.36 48.49 88 49 C89.98 51.31 91.96 53.62 94 56 C94 56.66 94 57.32 94 58 C94.66 58 95.32 58 96 58 C97.23 59.22 97.23 59.22 98.75 61.06 C102.3 65.24 106 69.25 109.75 73.25 C114.95 78.8 120.12 84.38 125.25 90 C127.25 92.2 129.28 94.37 131.31 96.53 C131.86 97.12 132.42 97.71 132.99 98.31 C134.06 99.45 135.13 100.59 136.21 101.73 C138.47 104.14 139.94 105.82 141 109 C141.66 109 142.32 109 143 109 C144.3 110.29 144.3 110.29 145.88 112.19 C149.28 116.2 152.8 120.08 156.38 123.94 C156.91 124.52 157.45 125.1 158 125.69 C160.47 128.38 160.47 128.38 163 131 C163.1 134.09 163.14 137.16 163.13 140.25 C163.13 141.18 163.13 142.11 163.14 143.06 C163.14 145.03 163.13 147 163.13 148.96 C163.13 151.99 163.13 155.01 163.14 158.03 C163.14 159.94 163.13 161.84 163.13 163.75 C163.13 164.66 163.14 165.57 163.14 166.51 C163.11 172.89 163.11 172.89 162 174 C159.92 174.1 157.85 174.12 155.77 174.12 C154.78 174.12 154.78 174.12 153.77 174.12 C151.55 174.12 149.33 174.12 147.11 174.11 C145.52 174.11 143.93 174.11 142.35 174.11 C138.03 174.11 133.71 174.11 129.39 174.1 C124.88 174.1 120.37 174.09 115.86 174.09 C107.31 174.09 98.77 174.08 90.22 174.07 C80.49 174.06 70.77 174.06 61.04 174.05 C41.03 174.04 21.01 174.02 1 174 C-0.19 171.63 -0.12 170.2 -0.11 167.55 C-0.11 166.63 -0.11 165.71 -0.11 164.76 C-0.11 163.76 -0.1 162.77 -0.1 161.74 C-0.1 160.72 -0.09 159.71 -0.09 158.66 C-0.09 155.4 -0.08 152.14 -0.06 148.88 C-0.06 146.67 -0.05 144.46 -0.05 142.25 C-0.04 136.84 -0.02 131.42 0 126 C3.65 123.7 6.72 123.76 10.97 123.77 C11.66 123.77 12.36 123.77 13.07 123.77 C15.36 123.77 17.64 123.79 19.92 123.8 C21.51 123.81 23.09 123.81 24.68 123.81 C28.85 123.82 33.02 123.84 37.19 123.86 C41.44 123.88 45.7 123.89 49.96 123.9 C58.3 123.92 66.65 123.96 75 124 C75.23 121.82 75.23 121.82 73.28 120.12 C72.51 119.38 71.73 118.64 70.94 117.88 C67.37 114.45 64.11 110.86 60.88 107.13 C57.72 103.54 54.42 100.09 51.12 96.62 C46.12 91.34 41.17 86.01 36.33 80.58 C33.3 77.22 30.21 73.92 27.12 70.62 C24.75 68.08 22.37 65.54 20 63 C19.49 62.45 18.97 61.9 18.44 61.33 C17.02 59.81 15.6 58.28 14.19 56.75 C13.4 55.9 12.61 55.05 11.79 54.17 C-6.81 33.04 0 39.36 0 0 Z " fill="#0F1314" transform="translate(738,0)"/>
<path d="M0 0 C46.53 0 93.06 0 141 0 C141 16.17 141 32.34 141 49 C139.04 50.96 135.23 50.18 132.54 50.21 C131.76 50.22 130.98 50.23 130.18 50.24 C127.59 50.27 124.99 50.29 122.4 50.32 C120.61 50.34 118.82 50.36 117.03 50.38 C112.3 50.43 107.57 50.48 102.85 50.53 C97.18 50.59 91.51 50.66 85.85 50.72 C77.23 50.82 68.62 50.91 60 51 C60 74.43 60 97.86 60 122 C65.76 122.06 71.53 122.12 77.46 122.18 C81.11 122.22 84.75 122.26 88.39 122.31 C94.17 122.37 99.96 122.44 105.74 122.5 C110.41 122.54 115.07 122.6 119.73 122.65 C121.51 122.67 123.3 122.69 125.08 122.71 C127.57 122.73 130.05 122.76 132.54 122.79 C133.29 122.8 134.03 122.81 134.8 122.81 C139.89 122.89 139.89 122.89 141 124 C141.1 125.49 141.14 126.99 141.15 128.49 C141.15 129.44 141.16 130.4 141.16 131.38 C141.17 132.94 141.17 132.94 141.17 134.53 C141.17 135.59 141.17 136.65 141.18 137.74 C141.18 139.98 141.19 142.23 141.19 144.47 C141.19 147.92 141.21 151.36 141.22 154.81 C141.23 156.99 141.23 159.16 141.23 161.34 C141.24 162.38 141.24 163.41 141.25 164.48 C141.25 165.44 141.25 166.4 141.24 167.38 C141.24 168.23 141.25 169.07 141.25 169.94 C141 172 141 172 139 174 C136.6 174.25 136.6 174.25 133.52 174.24 C131.77 174.24 131.77 174.24 129.99 174.25 C128.71 174.24 127.43 174.23 126.1 174.23 C124.75 174.23 123.39 174.23 122.03 174.23 C118.33 174.23 114.63 174.22 110.93 174.2 C107.07 174.19 103.21 174.19 99.34 174.19 C92.03 174.18 84.71 174.16 77.39 174.14 C69.06 174.12 60.74 174.11 52.41 174.1 C35.27 174.08 18.14 174.04 1 174 C-0.46 171.07 -0.12 168.5 -0.12 165.23 C-0.12 164.53 -0.12 163.82 -0.12 163.1 C-0.12 160.73 -0.12 158.35 -0.11 155.98 C-0.11 154.29 -0.11 152.59 -0.11 150.9 C-0.11 146.29 -0.11 141.68 -0.1 137.07 C-0.1 132.25 -0.09 127.43 -0.09 122.62 C-0.09 113.5 -0.08 104.37 -0.07 95.25 C-0.06 82.93 -0.05 70.6 -0.05 58.28 C-0.04 38.85 -0.02 19.43 0 0 Z " fill="#0F1314" transform="translate(379,0)"/>
<path d="M0 0 C53.13 0 106.26 0 161 0 C164.2 6.41 161.96 17.54 160.49 24.37 C159.9 27.53 159.73 30.6 159.56 33.81 C159.15 41.13 158.6 48.44 158 55.75 C157.92 56.8 157.83 57.85 157.75 58.93 C157.67 59.91 157.58 60.9 157.5 61.92 C157.43 62.8 157.36 63.69 157.28 64.6 C157.02 66.81 156.56 68.85 156 71 C155.96 72.35 155.96 73.71 156 75.06 C156 79 156 79 155 82 C154.87 83.34 154.78 84.68 154.72 86.03 C154.68 86.81 154.65 87.6 154.61 88.41 C154.57 89.25 154.54 90.08 154.5 90.94 C154.41 92.66 154.33 94.38 154.24 96.09 C154.09 98.99 153.97 101.88 153.86 104.78 C153.8 105.82 153.74 106.86 153.69 107.94 C153.63 109.28 153.63 109.28 153.57 110.65 C152.8 113.84 151.54 114.95 149 117 C146.23 117.5 146.23 117.5 142.99 117.49 C141.76 117.5 140.53 117.51 139.26 117.52 C137.9 117.51 136.54 117.5 135.18 117.49 C133.74 117.49 132.3 117.49 130.87 117.5 C126.97 117.51 123.08 117.49 119.18 117.47 C115.1 117.45 111.03 117.46 106.95 117.46 C100.11 117.46 93.27 117.44 86.43 117.41 C78.51 117.38 70.6 117.37 62.68 117.37 C55.07 117.37 47.46 117.36 39.85 117.35 C36.61 117.34 33.37 117.33 30.13 117.33 C26.31 117.33 22.5 117.32 18.69 117.3 C17.29 117.29 15.88 117.29 14.48 117.29 C12.57 117.29 10.66 117.28 8.76 117.27 C7.15 117.26 7.15 117.26 5.52 117.26 C3 117 3 117 1 115 C0.76 112.99 0.76 112.99 0.77 110.48 C0.76 109.53 0.76 108.58 0.76 107.6 C0.77 106.56 0.78 105.51 0.79 104.43 C0.79 103.33 0.79 102.23 0.79 101.1 C0.8 97.45 0.82 93.8 0.84 90.16 C0.85 87.63 0.85 85.1 0.86 82.58 C0.87 76.6 0.89 70.62 0.91 64.64 C0.96 53.3 0.99 41.95 1.02 30.61 C1.03 26.87 1.04 23.14 1.06 19.4 C1.07 17.13 1.08 14.85 1.08 12.57 C1.09 11.52 1.1 10.48 1.1 9.4 C1.1 8.45 1.11 7.5 1.11 6.52 C1.11 5.69 1.11 4.86 1.12 4.01 C1.13 1.93 1.13 1.93 0 0 Z " fill="#2DA9DC" transform="translate(638,546)"/>
<path d="M0 0 C1.49 0 1.49 0 3.01 0 C4.15 0 5.29 0 6.46 -0 C7.72 0 8.98 0.01 10.27 0.01 C11.59 0.01 12.91 0.01 14.27 0.01 C17.89 0.01 21.51 0.01 25.13 0.02 C28.91 0.03 32.69 0.03 36.47 0.03 C43.64 0.03 50.8 0.04 57.97 0.05 C67.65 0.06 77.32 0.07 87 0.08 C102.26 0.08 117.51 0.1 132.77 0.12 C132.77 37.41 132.77 74.7 132.77 113.12 C178.31 113.12 223.85 113.12 270.77 113.12 C270.77 113.45 270.77 113.78 270.77 114.12 C237.44 114.17 204.12 114.2 170.79 114.23 C166.86 114.23 162.93 114.23 158.99 114.23 C158.21 114.23 157.43 114.23 156.62 114.23 C143.94 114.24 131.25 114.26 118.57 114.28 C105.56 114.3 92.55 114.31 79.54 114.31 C71.51 114.31 63.47 114.32 55.44 114.34 C49.29 114.35 43.14 114.35 36.99 114.35 C34.46 114.35 31.93 114.35 29.4 114.36 C25.96 114.37 22.52 114.37 19.08 114.36 C18.07 114.37 17.05 114.38 16.01 114.38 C15.09 114.38 14.18 114.37 13.23 114.37 C12.04 114.37 12.04 114.37 10.82 114.37 C8.77 114.12 8.77 114.12 5.77 112.12 C5.27 109.54 4.97 107.14 4.78 104.53 C4.71 103.73 4.63 102.93 4.56 102.11 C4.33 99.43 4.11 96.74 3.89 94.06 C3.73 92.17 3.57 90.28 3.4 88.39 C3.05 84.25 2.7 80.1 2.35 75.96 C1.73 68.63 1.07 61.3 0.4 53.97 C0.05 50.12 -0.29 46.27 -0.64 42.42 C-0.87 39.9 -1.09 37.38 -1.32 34.86 C-1.65 31.29 -1.96 27.72 -2.28 24.15 C-2.37 23.1 -2.47 22.05 -2.57 20.96 C-3.14 14.37 -3.65 7.74 -3.23 1.12 C-2.23 0.12 -2.23 0.12 0 0 Z " fill="#E7EAEB" transform="translate(508.2313928604126,661.8769521713257)"/>
<path d="M0 0 C297.66 0 595.32 0 902 0 C902 0.33 902 0.66 902 1 C604.34 1 306.68 1 0 1 C0 0.67 0 0.34 0 0 Z " fill="#0070B3" transform="translate(187,249)"/>
</svg>
