<?xml version="1.0" encoding="UTF-8"?>
<!-- Generator: visioncortex VTracer 0.6.3 -->
<svg version="1.1" xmlns="http://www.w3.org/2000/svg" width="1280" height="1280">
<path d="M0 0 C1.69 0 1.69 0 3.42 0 C4.72 -0 6.02 -0.01 7.35 -0.01 C8.81 -0.01 10.27 -0 11.73 0 C13.28 -0 14.82 -0 16.36 -0.01 C20.64 -0.01 24.91 -0.01 29.19 -0 C33.83 0.01 38.47 -0 43.11 -0 C51.25 -0.01 59.39 -0.01 67.53 -0 C79.64 0.01 91.75 0.01 103.85 0 C124.22 -0 144.58 -0 164.94 0.01 C185.11 0.02 205.29 0.02 225.46 0.02 C226.71 0.02 227.96 0.02 229.25 0.02 C234.34 0.02 239.42 0.02 244.51 0.02 C280.02 0.02 315.53 0.02 351.03 0.03 C352.04 0.03 352.04 0.03 353.06 0.03 C363.94 0.04 374.82 0.04 385.69 0.04 C428.83 0.06 471.96 0.07 515.1 0.06 C516.47 0.06 517.83 0.06 519.19 0.06 C521.92 0.06 524.64 0.06 527.36 0.06 C533.47 0.06 539.58 0.06 545.68 0.06 C547.04 0.06 548.39 0.06 549.74 0.06 C585.85 0.06 621.95 0.07 658.06 0.07 C659.32 0.07 660.58 0.07 661.88 0.08 C666.94 0.08 672.01 0.08 677.08 0.08 C694.73 0.08 712.39 0.08 730.04 0.08 C752.79 0.08 775.54 0.09 798.28 0.1 C810.32 0.1 822.37 0.1 834.41 0.1 C842.44 0.1 850.47 0.11 858.5 0.11 C863.08 0.11 867.66 0.12 872.25 0.11 C876.41 0.11 880.57 0.11 884.73 0.12 C886.24 0.12 887.74 0.12 889.25 0.12 C891.27 0.12 893.3 0.12 895.33 0.12 C896.46 0.12 897.59 0.12 898.75 0.12 C901.37 0.25 901.37 0.25 903.37 1.25 C903.51 8.46 903.1 15.52 902.41 22.69 C902.31 23.83 902.2 24.97 902.09 26.15 C901.8 29.35 901.49 32.55 901.19 35.75 C900.64 41.64 900.1 47.52 899.56 53.41 C899.41 55.04 899.26 56.67 899.11 58.31 C897.74 73.16 896.41 88.02 895.1 102.89 C894.95 104.57 894.95 104.57 894.8 106.29 C894.29 112.13 893.77 117.96 893.26 123.8 C889.65 164.73 885.99 205.65 882.25 246.56 C879.13 280.69 876.08 314.83 873.13 348.97 C870.29 381.94 867.35 414.91 864.37 447.87 C864.16 450.24 863.95 452.6 863.73 454.96 C863.52 457.31 863.31 459.67 863.1 462.02 C862.67 466.68 862.25 471.35 861.83 476.02 C861.73 477.16 861.62 478.31 861.52 479.49 C859.34 503.53 857.2 527.58 855.06 551.62 C854.98 552.56 854.9 553.49 854.81 554.45 C853.17 572.96 851.53 591.46 849.91 609.97 C849.8 611.25 849.68 612.54 849.57 613.86 C849.08 619.5 848.58 625.15 848.09 630.79 C846.95 644.02 845.73 657.24 844.49 670.46 C842.44 692.39 840.47 714.33 838.52 736.27 C838.15 740.52 837.77 744.77 837.39 749.02 C835.24 773.13 833.11 797.23 830.98 821.34 C830.64 825.23 830.29 829.12 829.95 833 C829.72 835.57 829.5 838.13 829.27 840.7 C829.16 841.96 829.05 843.22 828.93 844.51 C828.28 851.96 827.62 859.4 826.96 866.85 C826.55 871.51 826.14 876.17 825.73 880.83 C825.54 882.98 825.35 885.13 825.16 887.28 C823.99 900.61 822.74 913.94 821.37 927.25 C819.97 927.69 818.57 928.13 817.17 928.56 C816 928.93 816 928.93 814.8 929.3 C790.35 936.92 765.57 943.59 740.81 950.12 C728.4 953.4 716.04 956.84 703.69 960.31 C681.78 966.47 659.86 972.56 637.93 978.63 C630.73 980.63 623.53 982.62 616.33 984.61 C614.52 985.11 612.72 985.61 610.91 986.11 C598.38 989.58 585.84 993.06 573.31 996.54 C572.55 996.75 571.79 996.96 571.01 997.18 C564.29 999.05 557.57 1000.92 550.85 1002.79 C535.19 1007.14 519.53 1011.49 503.87 1015.81 C501.54 1016.45 499.22 1017.1 496.89 1017.74 C495.37 1018.16 493.86 1018.58 492.34 1018.99 C491.23 1019.3 491.23 1019.3 490.1 1019.61 C485.76 1020.81 481.41 1022.01 477.06 1023.21 C475.05 1023.77 473.03 1024.32 471.02 1024.88 C468.57 1025.55 466.12 1026.23 463.67 1026.9 C462.6 1027.2 461.53 1027.5 460.42 1027.8 C459.49 1028.06 458.56 1028.32 457.6 1028.58 C455.36 1029.18 455.36 1029.18 453.37 1030.25 C451.83 1030.32 450.29 1030.33 448.75 1030.31 C447.93 1030.3 447.11 1030.29 446.27 1030.28 C445.65 1030.27 445.02 1030.26 444.37 1030.25 C444.37 1029.59 444.37 1028.93 444.37 1028.25 C443.44 1028.14 442.5 1028.04 441.53 1027.93 C436.5 1027.21 431.69 1025.77 426.81 1024.37 C425.79 1024.08 424.77 1023.8 423.72 1023.5 C421.55 1022.89 419.37 1022.27 417.2 1021.65 C411.48 1020.02 405.75 1018.41 400.03 1016.8 C398.91 1016.48 397.78 1016.17 396.63 1015.84 C388.71 1013.61 380.77 1011.46 372.81 1009.37 C357.63 1005.38 342.53 1001.11 327.42 996.85 C312.7 992.7 297.96 988.57 283.22 984.49 C282.5 984.29 281.78 984.1 281.04 983.89 C274.04 981.95 267.03 980.02 260.02 978.08 C247.11 974.52 234.2 970.93 221.33 967.22 C210.5 964.1 199.63 961.16 188.73 958.27 C174.87 954.6 161.06 950.74 147.25 946.87 C142.58 945.57 137.92 944.26 133.26 942.96 C131.94 942.59 130.63 942.22 129.32 941.86 C121.06 939.55 112.8 937.27 104.53 935.03 C102.83 934.57 101.12 934.11 99.42 933.64 C96.4 932.82 93.37 932.01 90.34 931.21 C89.02 930.85 87.71 930.49 86.4 930.13 C84.74 929.69 84.74 929.69 83.05 929.24 C80.23 928.2 79.19 927.58 77.37 925.25 C76.81 922.81 76.81 922.81 76.55 919.83 C76.44 918.7 76.33 917.56 76.22 916.39 C76.06 914.49 76.06 914.49 75.9 912.56 C75.78 911.2 75.65 909.83 75.53 908.47 C75.18 904.68 74.85 900.89 74.52 897.1 C74.16 893 73.79 888.9 73.42 884.8 C72.57 875.4 71.75 866 70.93 856.6 C70.35 849.93 69.76 843.26 69.17 836.59 C67.44 816.95 65.71 797.3 64 777.66 C61.81 752.56 59.61 727.47 57.31 702.37 C57.2 701.15 57.09 699.93 56.97 698.67 C56.51 693.58 56.04 688.5 55.57 683.41 C49.41 616.11 43.42 548.8 37.56 481.47 C36.71 471.65 35.85 461.82 35 452 C34.9 450.89 34.81 449.79 34.71 448.65 C31.86 415.95 28.94 383.25 25.95 350.56 C23.07 319.09 20.27 287.61 17.5 256.12 C14.22 218.95 10.89 181.77 7.5 144.6 C1.55 79.35 1.55 79.35 -1.29 47.5 C-1.59 44.08 -1.9 40.66 -2.21 37.24 C-2.56 33.32 -2.91 29.41 -3.26 25.5 C-3.38 24.09 -3.51 22.68 -3.63 21.27 C-3.81 19.37 -3.97 17.46 -4.14 15.55 C-4.24 14.49 -4.33 13.44 -4.43 12.35 C-4.65 8.96 -4.79 5.65 -4.63 2.25 C-2.63 0.25 -2.63 0.25 0 0 Z M-3.63 4.25 C-3.63 5.9 -3.63 7.55 -3.63 9.25 C-3.3 9.25 -2.97 9.25 -2.63 9.25 C-2.63 7.6 -2.63 5.95 -2.63 4.25 C-2.96 4.25 -3.29 4.25 -3.63 4.25 Z M-2.63 16.25 C-1.63 18.25 -1.63 18.25 -1.63 18.25 Z M-1.63 27.25 C-0.63 31.25 -0.63 31.25 -0.63 31.25 Z M-0.63 38.25 C0.37 41.25 0.37 41.25 0.37 41.25 Z M0.37 50.25 C1.37 53.25 1.37 53.25 1.37 53.25 Z M1.37 61.25 C2.37 65.25 2.37 65.25 2.37 65.25 Z M2.37 72.25 C3.37 75.25 3.37 75.25 3.37 75.25 Z M3.37 83.25 C3.37 84.9 3.37 86.55 3.37 88.25 C3.7 88.25 4.03 88.25 4.37 88.25 C4.37 86.6 4.37 84.95 4.37 83.25 C4.04 83.25 3.71 83.25 3.37 83.25 Z M4.37 95.25 C5.37 97.25 5.37 97.25 5.37 97.25 Z M5.37 105.25 C5.37 106.9 5.37 108.55 5.37 110.25 C5.7 110.25 6.03 110.25 6.37 110.25 C6.37 108.6 6.37 106.95 6.37 105.25 C6.04 105.25 5.71 105.25 5.37 105.25 Z M6.37 117.25 C7.37 119.25 7.37 119.25 7.37 119.25 Z M7.37 128.25 C8.37 132.25 8.37 132.25 8.37 132.25 Z M8.37 139.25 C9.37 143.25 9.37 143.25 9.37 143.25 Z M9.37 151.25 C10.37 154.25 10.37 154.25 10.37 154.25 Z M10.37 161.25 C10.37 162.9 10.37 164.55 10.37 166.25 C10.7 166.25 11.03 166.25 11.37 166.25 C11.37 164.6 11.37 162.95 11.37 161.25 C11.04 161.25 10.71 161.25 10.37 161.25 Z M11.37 173.25 C12.37 176.25 12.37 176.25 12.37 176.25 Z M12.37 184.25 C13.37 188.25 13.37 188.25 13.37 188.25 Z M13.37 196.25 C14.37 198.25 14.37 198.25 14.37 198.25 Z M14.37 206.25 C14.37 207.9 14.37 209.55 14.37 211.25 C14.7 211.25 15.03 211.25 15.37 211.25 C15.37 209.6 15.37 207.95 15.37 206.25 C15.04 206.25 14.71 206.25 14.37 206.25 Z M15.37 218.25 C16.37 220.25 16.37 220.25 16.37 220.25 Z M16.37 229.25 C17.37 233.25 17.37 233.25 17.37 233.25 Z M17.37 240.25 C17.37 241.9 17.37 243.55 17.37 245.25 C17.7 245.25 18.03 245.25 18.37 245.25 C18.37 243.6 18.37 241.95 18.37 240.25 C18.04 240.25 17.71 240.25 17.37 240.25 Z M18.37 252.25 C19.37 254.25 19.37 254.25 19.37 254.25 Z M19.37 262.25 C19.37 263.9 19.37 265.55 19.37 267.25 C19.7 267.25 20.03 267.25 20.37 267.25 C20.37 265.6 20.37 263.95 20.37 262.25 C20.04 262.25 19.71 262.25 19.37 262.25 Z M20.37 274.25 C21.37 276.25 21.37 276.25 21.37 276.25 Z M21.37 285.25 C22.37 289.25 22.37 289.25 22.37 289.25 Z M22.37 296.25 C23.37 298.25 23.37 298.25 23.37 298.25 Z M23.37 307.25 C24.37 311.25 24.37 311.25 24.37 311.25 Z M24.37 319.25 C25.37 322.25 25.37 322.25 25.37 322.25 Z M25.37 330.25 C26.37 333.25 26.37 333.25 26.37 333.25 Z M26.37 341.25 C26.37 342.9 26.37 344.55 26.37 346.25 C26.7 346.25 27.03 346.25 27.37 346.25 C27.37 344.6 27.37 342.95 27.37 341.25 C27.04 341.25 26.71 341.25 26.37 341.25 Z M27.37 353.25 C28.37 355.25 28.37 355.25 28.37 355.25 Z M28.37 363.25 C28.37 364.9 28.37 366.55 28.37 368.25 C28.7 368.25 29.03 368.25 29.37 368.25 C29.37 366.6 29.37 364.95 29.37 363.25 C29.04 363.25 28.71 363.25 28.37 363.25 Z M29.37 375.25 C30.37 377.25 30.37 377.25 30.37 377.25 Z M30.37 386.25 C31.37 390.25 31.37 390.25 31.37 390.25 Z M31.37 397.25 C32.37 399.25 32.37 399.25 32.37 399.25 Z M32.37 409.25 C33.37 412.25 33.37 412.25 33.37 412.25 Z M33.37 419.25 C33.37 420.9 33.37 422.55 33.37 424.25 C33.7 424.25 34.03 424.25 34.37 424.25 C34.37 422.6 34.37 420.95 34.37 419.25 C34.04 419.25 33.71 419.25 33.37 419.25 Z M34.37 431.25 C35.37 434.25 35.37 434.25 35.37 434.25 Z M35.37 442.25 C36.37 446.25 36.37 446.25 36.37 446.25 Z M36.37 454.25 C37.37 456.25 37.37 456.25 37.37 456.25 Z M37.37 464.25 C37.37 465.9 37.37 467.55 37.37 469.25 C37.7 469.25 38.03 469.25 38.37 469.25 C38.37 467.6 38.37 465.95 38.37 464.25 C38.04 464.25 37.71 464.25 37.37 464.25 Z M38.37 476.25 C39.37 478.25 39.37 478.25 39.37 478.25 Z M39.37 487.25 C40.37 491.25 40.37 491.25 40.37 491.25 Z M40.37 498.25 C41.37 501.25 41.37 501.25 41.37 501.25 Z M41.37 510.25 C42.37 513.25 42.37 513.25 42.37 513.25 Z M42.37 520.25 C42.37 521.9 42.37 523.55 42.37 525.25 C42.7 525.25 43.03 525.25 43.37 525.25 C43.37 523.6 43.37 521.95 43.37 520.25 C43.04 520.25 42.71 520.25 42.37 520.25 Z M43.37 532.25 C44.37 535.25 44.37 535.25 44.37 535.25 Z M44.37 543.25 C44.37 544.9 44.37 546.55 44.37 548.25 C44.7 548.25 45.03 548.25 45.37 548.25 C45.37 546.6 45.37 544.95 45.37 543.25 C45.04 543.25 44.71 543.25 44.37 543.25 Z M46.37 565.25 C46.37 566.9 46.37 568.55 46.37 570.25 C46.7 570.25 47.03 570.25 47.37 570.25 C47.37 568.6 47.37 566.95 47.37 565.25 C47.04 565.25 46.71 565.25 46.37 565.25 Z M47.37 577.25 C48.37 579.25 48.37 579.25 48.37 579.25 Z M48.37 588.25 C49.37 592.25 49.37 592.25 49.37 592.25 Z M49.37 599.25 C50.37 603.25 50.37 603.25 50.37 603.25 Z M50.37 611.25 C51.37 613.25 51.37 613.25 51.37 613.25 Z M51.37 621.25 C51.37 622.9 51.37 624.55 51.37 626.25 C51.7 626.25 52.03 626.25 52.37 626.25 C52.37 624.6 52.37 622.95 52.37 621.25 C52.04 621.25 51.71 621.25 51.37 621.25 Z M52.37 633.25 C53.37 635.25 53.37 635.25 53.37 635.25 Z M53.37 643.25 C53.37 644.9 53.37 646.55 53.37 648.25 C53.7 648.25 54.03 648.25 54.37 648.25 C54.37 646.6 54.37 644.95 54.37 643.25 C54.04 643.25 53.71 643.25 53.37 643.25 Z M54.37 655.25 C55.37 657.25 55.37 657.25 55.37 657.25 Z M55.37 666.25 C56.37 670.25 56.37 670.25 56.37 670.25 Z M56.37 678.25 C57.37 681.25 57.37 681.25 57.37 681.25 Z M57.37 689.25 C58.37 692.25 58.37 692.25 58.37 692.25 Z M58.37 700.25 C59.37 704.25 59.37 704.25 59.37 704.25 Z M59.37 712.25 C60.37 714.25 60.37 714.25 60.37 714.25 Z M60.37 722.25 C60.37 723.9 60.37 725.55 60.37 727.25 C60.7 727.25 61.03 727.25 61.37 727.25 C61.37 725.6 61.37 723.95 61.37 722.25 C61.04 722.25 60.71 722.25 60.37 722.25 Z M61.37 734.25 C62.37 736.25 62.37 736.25 62.37 736.25 Z M62.37 745.25 C63.37 749.25 63.37 749.25 63.37 749.25 Z M63.37 756.25 C64.37 758.25 64.37 758.25 64.37 758.25 Z M64.37 768.25 C65.37 771.25 65.37 771.25 65.37 771.25 Z M65.37 778.25 C66.37 782.25 66.37 782.25 66.37 782.25 Z M66.37 790.25 C67.37 793.25 67.37 793.25 67.37 793.25 Z M67.37 801.25 C68.37 805.25 68.37 805.25 68.37 805.25 Z M68.37 813.25 C69.37 815.25 69.37 815.25 69.37 815.25 Z M69.37 823.25 C69.37 824.9 69.37 826.55 69.37 828.25 C69.7 828.25 70.03 828.25 70.37 828.25 C70.37 826.6 70.37 824.95 70.37 823.25 C70.04 823.25 69.71 823.25 69.37 823.25 Z M70.37 835.25 C71.37 837.25 71.37 837.25 71.37 837.25 Z M71.37 846.25 C72.37 850.25 72.37 850.25 72.37 850.25 Z M72.37 857.25 C73.37 861.25 73.37 861.25 73.37 861.25 Z M73.37 869.25 C74.37 872.25 74.37 872.25 74.37 872.25 Z M74.37 879.25 C74.37 880.9 74.37 882.55 74.37 884.25 C74.7 884.25 75.03 884.25 75.37 884.25 C75.37 882.6 75.37 880.95 75.37 879.25 C75.04 879.25 74.71 879.25 74.37 879.25 Z M75.37 891.25 C76.37 894.25 76.37 894.25 76.37 894.25 Z M76.37 901.25 C76.37 902.9 76.37 904.55 76.37 906.25 C76.7 906.25 77.03 906.25 77.37 906.25 C77.37 904.6 77.37 902.95 77.37 901.25 C77.04 901.25 76.71 901.25 76.37 901.25 Z M77.37 913.25 C78.37 915.25 78.37 915.25 78.37 915.25 Z " fill="#E24D25" transform="translate(189.62653243541718,249.7501850016415)"/>
<path d="M0 0 C1.35 0.01 1.35 0.01 2.72 0.01 C3.68 0.01 4.63 0.01 5.62 0.01 C8.85 -0 12.08 0.01 15.31 0.01 C17.64 0.01 19.97 0.01 22.29 0 C28.04 -0.01 33.79 -0 39.54 0 C46.42 0.01 53.3 0 60.18 -0 C73.66 -0.01 87.14 -0.01 100.62 -0.01 C112.42 -0 124.22 0 136.02 -0 C136.8 -0 137.58 -0 138.39 -0 C141.56 -0 144.73 -0 147.9 -0 C177.68 -0.01 207.46 -0 237.24 0.01 C263.71 0.02 290.19 0.01 316.67 0.01 C346.39 -0.01 376.11 -0.01 405.83 -0 C409 -0 412.17 -0 415.33 -0 C416.5 -0 416.5 -0 417.7 -0 C429.49 0 441.28 -0 453.07 -0.01 C466.48 -0.01 479.88 -0.01 493.29 -0 C500.13 0.01 506.98 0.01 513.82 0 C520.08 -0.01 526.34 -0 532.6 0.01 C534.87 0.01 537.14 0.01 539.41 0 C542.49 -0 545.56 0 548.63 0.01 C549.53 0.01 550.42 0 551.35 0 C557.45 0.04 557.45 0.04 559.68 2.27 C559.71 4.75 559.61 7.1 559.41 9.57 C559.36 10.32 559.31 11.07 559.25 11.85 C559.07 14.32 558.88 16.79 558.68 19.27 C558.61 20.08 558.54 20.9 558.48 21.75 C557.97 27.99 557.42 34.23 556.86 40.47 C556.69 42.46 556.51 44.44 556.34 46.42 C555.97 50.54 555.61 54.66 555.24 58.78 C554.77 64.06 554.3 69.34 553.84 74.61 C553.48 78.69 553.11 82.77 552.75 86.85 C552.58 88.8 552.4 90.75 552.23 92.69 C551.99 95.4 551.75 98.11 551.51 100.82 C551.4 102.02 551.4 102.02 551.3 103.25 C550.98 106.68 550.57 109.94 549.68 113.27 C508.48 113.44 467.29 113.6 426.09 113.76 C423.75 113.77 421.4 113.77 419.05 113.78 C339.42 114.09 259.8 114.37 180.18 114.33 C179.33 114.33 178.48 114.33 177.61 114.33 C157.3 114.32 136.99 114.3 116.68 114.27 C117.29 127.74 118.26 141.16 119.45 154.6 C119.63 156.57 119.8 158.55 119.97 160.53 C120.33 164.63 120.69 168.72 121.06 172.82 C121.52 178.07 121.98 183.31 122.43 188.55 C122.79 192.62 123.15 196.68 123.51 200.74 C123.68 202.67 123.85 204.61 124.01 206.54 C124.25 209.24 124.49 211.93 124.73 214.62 C124.8 215.41 124.86 216.2 124.93 217.02 C125.33 221.37 126.1 225.15 127.68 229.27 C128.98 229.26 130.28 229.26 131.62 229.26 C215.53 229.12 299.44 229.28 401.26 229.65 C411.74 229.69 422.22 229.72 432.7 229.76 C446.38 229.8 460.05 229.85 473.73 229.9 C480.45 229.93 487.17 229.95 493.88 229.97 C500.1 229.99 506.31 230.02 512.53 230.05 C514.8 230.06 517.07 230.06 519.34 230.07 C522.42 230.08 525.5 230.09 528.57 230.11 C529.93 230.11 529.93 230.11 531.31 230.11 C537.45 230.15 537.45 230.15 539.68 231.27 C538.26 247.29 536.84 263.31 535.43 279.33 C535.31 280.61 535.2 281.89 535.08 283.21 C529.43 346.98 523.71 410.75 517.99 474.52 C517.87 475.8 517.76 477.07 517.64 478.39 C514.65 511.68 511.66 544.98 508.68 578.27 C504.63 580.02 500.71 581.67 496.44 582.82 C495.45 583.09 494.47 583.36 493.45 583.64 C492.38 583.92 491.31 584.21 490.21 584.5 C489.06 584.82 487.91 585.13 486.72 585.45 C483.55 586.32 480.37 587.17 477.19 588.03 C471.58 589.55 465.98 591.08 460.38 592.61 C458.89 593.02 457.4 593.42 455.9 593.83 C440.2 598.11 424.52 602.47 408.84 606.84 C403.1 608.44 397.36 610.04 391.62 611.64 C376.49 615.84 361.37 620.06 346.26 624.33 C338.55 626.51 330.84 628.68 323.13 630.85 C317.59 632.4 312.06 633.96 306.53 635.54 C303.11 636.51 299.68 637.47 296.25 638.43 C294.66 638.87 293.07 639.32 291.49 639.78 C289.31 640.41 287.13 641.01 284.95 641.62 C283.73 641.96 282.51 642.31 281.26 642.66 C274.84 643.75 269.16 642.28 262.94 640.53 C262.31 640.35 261.69 640.18 261.04 640 C258.95 639.42 256.86 638.83 254.78 638.23 C253.26 637.81 251.75 637.39 250.24 636.97 C246.98 636.05 243.72 635.14 240.45 634.22 C235.22 632.74 229.99 631.28 224.75 629.81 C219.19 628.25 213.64 626.7 208.08 625.14 C188.69 619.7 169.28 614.31 149.88 608.93 C144.14 607.34 138.4 605.74 132.66 604.15 C116.83 599.75 101 595.35 85.16 590.98 C80.7 589.75 76.24 588.52 71.78 587.29 C68.41 586.36 65.03 585.43 61.65 584.5 C59.67 583.96 57.69 583.41 55.71 582.86 C54.84 582.63 53.97 582.39 53.06 582.14 C52.27 581.92 51.48 581.7 50.66 581.47 C49.98 581.29 49.3 581.1 48.6 580.91 C46.44 580.19 44.6 579.51 42.68 578.27 C41.46 574.75 41.31 571.04 40.98 567.36 C40.92 566.66 40.85 565.97 40.79 565.25 C40.58 562.93 40.37 560.6 40.17 558.27 C40.02 556.6 39.87 554.93 39.72 553.26 C39.31 548.73 38.91 544.2 38.51 539.66 C38.26 536.83 38.01 534 37.76 531.17 C36.88 521.3 36.01 511.43 35.14 501.55 C34.32 492.34 33.5 483.13 32.68 473.92 C31.97 466.02 31.27 458.12 30.58 450.22 C30.16 445.49 29.74 440.77 29.32 436.05 C28.92 431.61 28.53 427.17 28.14 422.73 C28 421.1 27.85 419.47 27.7 417.84 C27.5 415.62 27.31 413.4 27.12 411.17 C27.01 409.93 26.9 408.68 26.78 407.4 C26.69 404.7 26.82 402.8 27.68 400.27 C42.24 400.22 56.81 400.18 71.38 400.16 C78.15 400.15 84.91 400.14 91.67 400.11 C98.2 400.09 104.72 400.08 111.24 400.08 C113.74 400.07 116.23 400.07 118.72 400.05 C122.2 400.04 125.69 400.04 129.17 400.04 C130.21 400.03 131.25 400.02 132.32 400.02 C133.74 400.02 133.74 400.02 135.18 400.03 C136.01 400.02 136.83 400.02 137.68 400.02 C139.68 400.27 139.68 400.27 141.68 402.27 C142.07 404.7 142.34 407.05 142.55 409.49 C142.61 410.24 142.68 410.98 142.75 411.75 C142.98 414.22 143.19 416.7 143.4 419.17 C143.56 420.89 143.71 422.62 143.86 424.34 C144.19 427.96 144.5 431.57 144.82 435.19 C145.22 439.81 145.63 444.42 146.04 449.04 C146.36 452.6 146.68 456.16 146.99 459.72 C147.14 461.42 147.29 463.12 147.44 464.82 C148.2 473.32 148.88 481.73 148.68 490.27 C149.37 490.44 150.06 490.61 150.78 490.78 C159.09 492.84 167.35 495.04 175.61 497.29 C177.05 497.68 178.48 498.07 179.91 498.46 C182.94 499.28 185.97 500.11 188.99 500.93 C192.92 502 196.85 503.06 200.77 504.13 C215.46 508.11 230.14 512.1 244.79 516.22 C247.79 517.06 250.79 517.9 253.78 518.74 C256.49 519.5 259.18 520.27 261.88 521.05 C263.5 521.5 265.11 521.96 266.73 522.41 C267.43 522.61 268.13 522.82 268.85 523.03 C276.33 525.08 283.14 523.32 290.43 521.29 C291.16 521.09 291.9 520.89 292.65 520.69 C295.06 520.03 297.47 519.37 299.87 518.71 C301.59 518.24 303.31 517.77 305.02 517.3 C309.56 516.07 314.09 514.83 318.62 513.58 C323.08 512.36 327.55 511.14 332.02 509.92 C337.31 508.47 342.61 507.03 347.9 505.57 C356.77 503.14 365.65 500.73 374.54 498.35 C375.41 498.11 376.27 497.88 377.17 497.64 C381.31 496.53 385.44 495.42 389.58 494.32 C391.05 493.93 392.51 493.54 393.97 493.14 C394.64 492.97 395.31 492.79 396 492.61 C399.1 491.94 399.1 491.94 401.68 490.27 C401.92 488.81 402.09 487.34 402.24 485.87 C402.35 484.86 402.45 483.86 402.56 482.82 C402.68 481.67 402.79 480.52 402.91 479.33 C403.04 478.08 403.16 476.84 403.29 475.55 C405.44 454.06 407.32 432.54 409.23 411.02 C409.81 404.44 410.41 397.87 411 391.29 C411.46 386.2 411.91 381.11 412.37 376.01 C412.58 373.58 412.8 371.16 413.02 368.73 C413.33 365.36 413.62 362 413.92 358.63 C414.01 357.64 414.1 356.64 414.2 355.61 C414.28 354.7 414.36 353.78 414.44 352.84 C414.51 352.05 414.58 351.26 414.65 350.44 C414.68 348.2 414.32 346.4 413.68 344.27 C412.49 344.27 411.31 344.27 410.09 344.27 C393.37 344.3 376.65 344.32 359.93 344.33 C358.85 344.33 358.85 344.33 357.75 344.33 C285.89 344.37 214.03 344.07 142.17 343.77 C139.98 343.77 137.79 343.76 135.61 343.75 C97.96 343.59 60.32 343.43 22.68 343.27 C20.18 338.32 20.01 333.21 19.56 327.79 C19.46 326.72 19.37 325.66 19.27 324.56 C18.95 320.97 18.63 317.39 18.32 313.8 C18.1 311.23 17.87 308.66 17.64 306.09 C17.14 300.54 16.66 295 16.17 289.45 C15.47 281.36 14.75 273.28 14.04 265.2 C12.87 252 11.7 238.8 10.55 225.61 C9.43 212.93 8.32 200.25 7.2 187.57 C7.13 186.8 7.06 186.03 6.99 185.23 C6.65 181.34 6.3 177.45 5.96 173.56 C5.28 165.88 4.6 158.19 3.92 150.51 C3.86 149.76 3.79 149.01 3.72 148.23 C2.82 138.07 1.93 127.9 1.03 117.73 C0.85 115.66 0.67 113.58 0.49 111.51 C-0.1 104.82 -0.69 98.13 -1.28 91.45 C-2.37 79.02 -3.47 66.59 -4.61 54.16 C-5.02 49.63 -5.43 45.1 -5.84 40.57 C-6.17 36.97 -6.5 33.38 -6.84 29.78 C-7.03 27.6 -7.23 25.41 -7.43 23.23 C-7.52 22.26 -7.61 21.29 -7.71 20.29 C-8.88 7.18 -8.88 7.18 -8.32 2.27 C-5.65 -0.41 -3.64 0.02 0 0 Z " fill="#FAFCFC" transform="translate(363.324387550354,439.7341288328171)"/>
<path d="M0 0 C1.91 -0.01 1.91 -0.01 3.85 -0.02 C5.27 -0.01 6.69 -0.01 8.11 0 C9.62 -0 11.12 -0.01 12.62 -0.01 C16.76 -0.02 20.89 -0.01 25.03 -0 C29.49 0.01 33.95 -0 38.41 -0.01 C47.14 -0.02 55.88 -0.01 64.62 0 C74.79 0.01 84.95 0.01 95.12 0.01 C113.26 0.01 131.4 0.02 149.53 0.04 C167.15 0.06 184.76 0.06 202.38 0.06 C221.54 0.05 240.7 0.05 259.87 0.06 C261.91 0.07 263.95 0.07 265.99 0.07 C267 0.07 268 0.07 269.04 0.07 C276.13 0.07 283.22 0.07 290.32 0.07 C298.96 0.07 307.6 0.07 316.24 0.09 C320.65 0.1 325.06 0.1 329.47 0.1 C333.51 0.09 337.54 0.1 341.57 0.11 C343.04 0.11 344.5 0.11 345.97 0.11 C347.95 0.1 349.93 0.11 351.91 0.12 C353.01 0.12 354.11 0.12 355.25 0.12 C357.95 0.37 357.95 0.37 360.95 2.37 C362.59 13.08 360.23 25.21 359.25 35.93 C359.06 38.03 358.88 40.13 358.69 42.23 C358.28 46.82 357.86 51.41 357.45 56 C356.81 62.99 356.19 69.97 355.56 76.96 C354.48 89.07 353.39 101.17 352.3 113.28 C349.86 140.29 347.43 167.29 345.01 194.29 C344.21 203.18 343.41 212.06 342.61 220.95 C337.14 281.85 331.72 342.76 326.32 403.68 C324.49 424.3 322.66 444.92 320.83 465.53 C320.71 466.91 320.59 468.29 320.46 469.66 C319.36 482.07 318.26 494.47 317.16 506.87 C316.42 515.14 315.69 523.41 314.95 531.69 C314.86 532.71 314.86 532.71 314.77 533.75 C312.8 555.85 310.85 577.95 308.9 600.05 C306.85 623.21 304.8 646.37 302.73 669.52 C301.52 683.1 300.32 696.67 299.12 710.25 C298.32 719.41 297.51 728.57 296.68 737.72 C296.21 742.97 295.75 748.23 295.29 753.48 C294.87 758.27 294.45 763.05 294.01 767.84 C293.85 769.57 293.7 771.3 293.56 773.03 C293.36 775.38 293.14 777.72 292.92 780.06 C292.81 781.36 292.69 782.66 292.57 784 C291.93 787.49 291.09 789.57 288.95 792.37 C286.09 793.67 286.09 793.67 282.54 794.63 C281.88 794.81 281.23 794.99 280.56 795.18 C278.37 795.78 276.18 796.36 273.99 796.93 C272.42 797.36 270.85 797.79 269.28 798.22 C265.92 799.15 262.55 800.06 259.18 800.96 C254.02 802.35 248.87 803.78 243.72 805.22 C236.49 807.23 229.26 809.23 222.03 811.23 C220.62 811.62 220.62 811.62 219.18 812.01 C217.24 812.55 215.3 813.08 213.36 813.62 C205.09 815.9 196.81 818.19 188.54 820.47 C186.41 821.06 184.28 821.65 182.15 822.24 C161.16 828.04 140.18 833.86 119.2 839.69 C114.54 840.98 109.87 842.28 105.21 843.57 C88.05 848.34 70.9 853.1 53.76 857.91 C47.8 859.58 41.83 861.25 35.86 862.92 C31.12 864.24 26.39 865.57 21.65 866.91 C18.78 867.71 15.91 868.52 13.03 869.32 C11.09 869.86 9.15 870.41 7.2 870.96 C5.47 871.44 5.47 871.44 3.7 871.94 C2.71 872.22 1.71 872.5 0.68 872.78 C-2.03 873.37 -4.29 873.64 -7.05 873.37 C-9.05 871.37 -9.05 871.37 -9.29 869.35 C-9.29 868.51 -9.29 867.67 -9.29 866.81 C-9.29 865.36 -9.29 865.36 -9.29 863.89 C-9.28 862.3 -9.28 862.3 -9.27 860.68 C-9.27 859.57 -9.27 858.46 -9.27 857.31 C-9.27 853.62 -9.26 849.93 -9.24 846.24 C-9.24 843.69 -9.23 841.14 -9.23 838.58 C-9.23 832.54 -9.21 826.5 -9.19 820.46 C-9.17 813.58 -9.16 806.7 -9.15 799.82 C-9.13 785.67 -9.09 771.52 -9.05 757.37 C-9.71 757.04 -10.37 756.71 -11.05 756.37 C14.93 749.01 40.94 741.76 66.96 734.57 C76.18 732.03 85.39 729.48 94.6 726.94 C97.71 726.08 100.82 725.22 103.93 724.36 C121.81 719.42 139.68 714.47 157.55 709.51 C160.51 708.69 163.48 707.86 166.44 707.04 C169.91 706.08 173.38 705.12 176.85 704.15 C178.63 703.66 180.42 703.16 182.2 702.67 C195.48 698.98 208.71 695.17 221.95 691.37 C222.06 690.2 222.16 689.03 222.27 687.83 C224.82 659.5 227.36 631.17 229.9 602.85 C230.22 599.3 230.54 595.74 230.86 592.19 C230.92 591.49 230.99 590.78 231.05 590.05 C231.93 580.25 232.81 570.45 233.69 560.64 C233.88 558.6 234.06 556.55 234.24 554.5 C234.37 553.14 234.49 551.77 234.61 550.41 C234.67 549.74 234.73 549.06 234.79 548.37 C235.16 544.29 235.53 540.21 235.89 536.13 C237.11 522.62 238.32 509.11 239.53 495.59 C240.07 489.59 240.61 483.59 241.15 477.59 C241.27 476.28 241.39 474.98 241.51 473.63 C243.01 456.91 244.51 440.19 245.99 423.47 C246.73 415.14 247.48 406.81 248.22 398.48 C248.81 391.88 249.39 385.29 249.98 378.69 C250.33 374.69 250.69 370.7 251.05 366.7 C251.21 364.87 251.37 363.03 251.53 361.19 C251.75 358.7 251.97 356.22 252.2 353.74 C252.26 353.01 252.32 352.29 252.39 351.54 C252.84 346.6 252.84 346.6 253.95 344.37 C217.8 344.22 181.64 344.07 145.48 343.93 C137.88 343.9 130.28 343.87 122.69 343.84 C101.59 343.75 80.5 343.67 59.4 343.59 C58.66 343.59 57.91 343.58 57.14 343.58 C19.15 343.44 -18.84 343.33 -56.83 343.38 C-59.59 343.38 -62.34 343.38 -65.1 343.38 C-80.57 343.4 -96.04 343.42 -111.51 343.48 C-117.89 343.5 -124.27 343.51 -130.64 343.53 C-134.37 343.53 -138.09 343.55 -141.82 343.58 C-143.98 343.58 -146.15 343.58 -148.31 343.59 C-149.29 343.59 -150.26 343.6 -151.26 343.61 C-152.58 343.61 -152.58 343.61 -153.92 343.61 C-154.67 343.61 -155.43 343.61 -156.21 343.62 C-158.05 343.37 -158.05 343.37 -160.05 341.37 C-160.48 338.92 -160.8 336.54 -161.05 334.06 C-161.13 333.3 -161.21 332.55 -161.3 331.77 C-161.56 329.31 -161.8 326.84 -162.05 324.37 C-162.13 323.56 -162.21 322.75 -162.29 321.92 C-162.88 315.77 -163.44 309.61 -163.99 303.46 C-164.17 301.5 -164.34 299.54 -164.52 297.59 C-164.89 293.52 -165.25 289.46 -165.61 285.4 C-166.08 280.2 -166.55 275 -167.02 269.8 C-167.38 265.78 -167.75 261.75 -168.11 257.73 C-168.28 255.81 -168.45 253.89 -168.63 251.97 C-168.87 249.3 -169.11 246.63 -169.34 243.96 C-169.41 243.17 -169.49 242.39 -169.56 241.58 C-170.55 230.37 -170.55 230.37 -169.05 227.37 C-147.88 227.19 -126.71 227.02 -105.55 226.87 C-104.71 226.87 -103.87 226.86 -103 226.86 C-23.44 226.3 56.11 226.29 135.67 226.31 C138.02 226.31 140.38 226.31 142.73 226.31 C183.14 226.32 223.55 226.35 263.95 226.37 C264.04 225.32 264.12 224.26 264.2 223.17 C264.52 219.16 264.83 215.15 265.15 211.14 C265.28 209.42 265.42 207.7 265.55 205.98 C266.99 187.52 268.66 169.07 270.35 150.63 C270.75 146.21 271.16 141.78 271.56 137.36 C271.74 135.34 271.93 133.32 272.12 131.3 C272.28 129.47 272.28 129.47 272.45 127.6 C272.55 126.54 272.65 125.48 272.75 124.38 C272.96 121.36 273.06 118.4 272.95 115.37 C271.35 113.77 269.66 114.24 267.44 114.24 C265.97 114.23 265.97 114.23 264.47 114.22 C263.38 114.22 262.29 114.22 261.17 114.22 C259.44 114.21 259.44 114.21 257.69 114.2 C254.49 114.19 251.28 114.18 248.08 114.17 C244.63 114.17 241.19 114.15 237.74 114.14 C231.76 114.12 225.79 114.1 219.81 114.08 C211.17 114.06 202.52 114.03 193.88 114 C179.86 113.96 165.84 113.91 151.82 113.87 C138.2 113.83 124.58 113.79 110.96 113.75 C110.12 113.74 109.28 113.74 108.41 113.74 C104.2 113.73 99.99 113.71 95.79 113.7 C60.84 113.58 25.9 113.48 -9.05 113.37 C-9.12 99.08 -9.17 84.79 -9.2 70.5 C-9.22 63.87 -9.24 57.23 -9.27 50.6 C-9.3 44.2 -9.32 37.8 -9.33 31.4 C-9.34 28.95 -9.35 26.51 -9.36 24.06 C-9.38 20.65 -9.39 17.23 -9.39 13.81 C-9.4 12.8 -9.41 11.78 -9.42 10.73 C-9.41 9.8 -9.41 8.87 -9.41 7.91 C-9.41 7.1 -9.41 6.29 -9.41 5.46 C-9.05 3.37 -9.05 3.37 -7.9 1.61 C-5.23 -0.17 -3.2 -0 0 0 Z " fill="#EF662B" transform="translate(649.0454864501953,326.62526988983154)"/>
<path d="M0 0 C1.35 0.01 1.35 0.01 2.72 0.01 C3.68 0.01 4.63 0.01 5.62 0.01 C8.85 -0 12.08 0.01 15.31 0.01 C17.64 0.01 19.97 0.01 22.29 0 C28.04 -0.01 33.79 -0 39.54 0 C46.42 0.01 53.3 0 60.18 -0 C73.66 -0.01 87.14 -0.01 100.62 -0.01 C112.42 -0 124.22 0 136.02 -0 C136.8 -0 137.58 -0 138.39 -0 C141.56 -0 144.73 -0 147.9 -0 C177.68 -0.01 207.46 -0 237.24 0.01 C263.71 0.02 290.19 0.01 316.67 0.01 C346.39 -0.01 376.11 -0.01 405.83 -0 C409 -0 412.17 -0 415.33 -0 C416.5 -0 416.5 -0 417.7 -0 C429.49 0 441.28 -0 453.07 -0.01 C466.48 -0.01 479.88 -0.01 493.29 -0 C500.13 0.01 506.98 0.01 513.82 0 C520.08 -0.01 526.34 -0 532.6 0.01 C534.87 0.01 537.14 0.01 539.41 0 C542.49 -0 545.56 0 548.63 0.01 C549.53 0.01 550.42 0 551.35 0 C557.45 0.04 557.45 0.04 559.68 2.27 C559.71 4.75 559.61 7.1 559.41 9.57 C559.36 10.32 559.31 11.07 559.25 11.85 C559.07 14.32 558.88 16.79 558.68 19.27 C558.61 20.08 558.54 20.9 558.48 21.75 C557.97 27.99 557.42 34.23 556.86 40.47 C556.69 42.46 556.51 44.44 556.34 46.42 C555.97 50.54 555.61 54.66 555.24 58.78 C554.77 64.06 554.3 69.34 553.84 74.61 C553.48 78.69 553.11 82.77 552.75 86.85 C552.58 88.8 552.4 90.75 552.23 92.69 C551.99 95.4 551.75 98.11 551.51 100.82 C551.4 102.02 551.4 102.02 551.3 103.25 C550.98 106.68 550.57 109.94 549.68 113.27 C508.48 113.44 467.29 113.6 426.09 113.76 C423.75 113.77 421.4 113.77 419.05 113.78 C339.42 114.09 259.8 114.37 180.18 114.33 C179.33 114.33 178.48 114.33 177.61 114.33 C157.3 114.32 136.99 114.3 116.68 114.27 C117.29 127.74 118.26 141.16 119.45 154.6 C119.63 156.57 119.8 158.55 119.97 160.53 C120.33 164.63 120.69 168.72 121.06 172.82 C121.52 178.07 121.98 183.31 122.43 188.55 C122.79 192.62 123.15 196.68 123.51 200.74 C123.68 202.67 123.85 204.61 124.01 206.54 C124.25 209.24 124.49 211.93 124.73 214.62 C124.8 215.41 124.86 216.2 124.93 217.02 C125 217.76 125.07 218.5 125.14 219.26 C125.19 219.89 125.25 220.52 125.31 221.18 C125.8 223.98 126.73 226.58 127.68 229.27 C128.43 229.27 129.19 229.27 129.97 229.28 C148.33 229.38 166.7 229.49 185.07 229.61 C193.95 229.66 202.84 229.71 211.72 229.76 C219.46 229.81 227.2 229.85 234.94 229.9 C239.04 229.93 243.14 229.95 247.24 229.97 C251.1 229.99 254.95 230.02 258.81 230.05 C260.23 230.06 261.64 230.06 263.06 230.07 C264.99 230.08 266.92 230.09 268.85 230.11 C269.94 230.11 271.02 230.12 272.13 230.13 C274.68 230.27 274.68 230.27 276.68 231.27 C276.68 268.56 276.68 305.85 276.68 344.27 C192.86 343.94 109.04 343.61 22.68 343.27 C21.15 339.45 20.41 337.43 20.07 333.59 C19.98 332.67 19.9 331.76 19.81 330.81 C19.73 329.82 19.64 328.82 19.56 327.79 C19.46 326.72 19.37 325.66 19.27 324.56 C18.95 320.97 18.63 317.39 18.32 313.8 C18.1 311.23 17.87 308.66 17.64 306.09 C17.14 300.54 16.66 295 16.17 289.45 C15.47 281.36 14.75 273.28 14.04 265.2 C12.87 252 11.7 238.8 10.55 225.61 C9.43 212.93 8.32 200.25 7.2 187.57 C7.13 186.8 7.06 186.03 6.99 185.23 C6.65 181.34 6.3 177.45 5.96 173.56 C5.28 165.88 4.6 158.19 3.92 150.51 C3.86 149.76 3.79 149.01 3.72 148.23 C2.82 138.07 1.93 127.9 1.03 117.73 C0.85 115.66 0.67 113.58 0.49 111.51 C-0.1 104.82 -0.69 98.13 -1.28 91.45 C-2.37 79.02 -3.47 66.59 -4.61 54.16 C-5.02 49.63 -5.43 45.1 -5.84 40.57 C-6.17 36.97 -6.5 33.38 -6.84 29.78 C-7.03 27.6 -7.23 25.41 -7.43 23.23 C-7.52 22.26 -7.61 21.29 -7.71 20.29 C-8.88 7.18 -8.88 7.18 -8.32 2.27 C-5.65 -0.41 -3.64 0.02 0 0 Z " fill="#EAEAEA" transform="translate(363.324387550354,439.7341288328171)"/>
<path d="M0 0 C14.57 -0.05 29.14 -0.08 43.71 -0.1 C50.47 -0.11 57.23 -0.13 64 -0.15 C70.52 -0.17 77.04 -0.18 83.57 -0.19 C86.06 -0.19 88.55 -0.2 91.05 -0.21 C94.53 -0.23 98.01 -0.23 101.49 -0.23 C102.53 -0.23 103.57 -0.24 104.64 -0.25 C106.06 -0.24 106.06 -0.24 107.51 -0.24 C108.33 -0.24 109.16 -0.24 110 -0.25 C112 0 112 0 114 2 C114.39 4.43 114.67 6.78 114.87 9.23 C114.94 9.97 115.01 10.72 115.08 11.49 C115.3 13.96 115.51 16.43 115.73 18.91 C115.88 20.63 116.03 22.35 116.19 24.07 C116.51 27.69 116.83 31.31 117.14 34.93 C117.54 39.54 117.95 44.16 118.37 48.77 C118.68 52.33 119 55.9 119.31 59.46 C119.46 61.16 119.61 62.86 119.76 64.56 C120.52 73.05 121.2 81.46 121 90 C121.69 90.17 122.39 90.34 123.1 90.51 C131.41 92.57 139.68 94.78 147.94 97.03 C149.37 97.42 150.81 97.81 152.24 98.2 C156.83 99.44 161.41 100.69 166 101.94 C167.57 102.37 169.15 102.79 170.72 103.22 C171.5 103.43 172.28 103.65 173.09 103.87 C176.24 104.73 179.4 105.58 182.56 106.44 C184.13 106.87 185.7 107.3 187.28 107.73 C197.3 110.46 207.33 113.17 217.36 115.85 C220.41 116.67 223.45 117.49 226.49 118.31 C228.37 118.81 230.24 119.31 232.12 119.81 C234.66 120.48 237.2 121.16 239.74 121.85 C240.47 122.04 241.21 122.23 241.97 122.43 C243.66 122.89 245.33 123.44 247 124 C248.21 126.41 248.14 127.95 248.16 130.64 C248.17 131.62 248.18 132.6 248.19 133.61 C248.19 134.69 248.2 135.77 248.21 136.88 C248.22 138.01 248.23 139.14 248.24 140.3 C248.27 144.06 248.29 147.82 248.32 151.57 C248.34 154.17 248.36 156.77 248.38 159.36 C248.43 165.51 248.47 171.66 248.52 177.81 C248.57 184.81 248.62 191.81 248.68 198.8 C248.79 213.2 248.9 227.6 249 242 C245.14 243.29 243.38 242.49 239.47 241.4 C238.47 241.12 238.47 241.12 237.45 240.84 C235.2 240.22 232.96 239.58 230.71 238.95 C229.11 238.5 227.5 238.05 225.89 237.6 C222.41 236.63 218.92 235.65 215.45 234.67 C209.88 233.11 204.32 231.55 198.75 230 C191.88 228.08 185.02 226.16 178.15 224.24 C165.22 220.62 152.29 217.02 139.36 213.43 C138.39 213.16 137.43 212.89 136.43 212.62 C132.56 211.54 128.69 210.47 124.81 209.39 C118.13 207.54 111.46 205.69 104.78 203.83 C89.03 199.45 73.27 195.07 57.5 190.72 C53.04 189.49 48.58 188.26 44.11 187.02 C40.73 186.09 37.35 185.16 33.97 184.24 C31.99 183.69 30.02 183.14 28.04 182.6 C26.73 182.24 26.73 182.24 25.39 181.88 C24.6 181.65 23.8 181.43 22.98 181.21 C22.3 181.02 21.62 180.83 20.93 180.64 C18.76 179.92 16.92 179.25 15 178 C13.78 174.48 13.63 170.78 13.3 167.09 C13.24 166.4 13.18 165.7 13.11 164.99 C12.9 162.66 12.7 160.33 12.49 158 C12.34 156.33 12.19 154.67 12.04 153 C11.64 148.46 11.24 143.93 10.84 139.4 C10.59 136.57 10.34 133.74 10.08 130.91 C9.21 121.03 8.33 111.16 7.46 101.29 C6.65 92.08 5.83 82.87 5.01 73.66 C4.3 65.76 3.6 57.85 2.9 49.95 C2.48 45.23 2.07 40.51 1.64 35.78 C1.24 31.35 0.85 26.91 0.46 22.47 C0.32 20.84 0.18 19.21 0.03 17.58 C-0.17 15.35 -0.37 13.13 -0.56 10.91 C-0.67 9.66 -0.78 8.42 -0.89 7.14 C-0.98 4.44 -0.85 2.53 0 0 Z " fill="#EAEAEA" transform="translate(391,840)"/>
<path d="M0 0 C36.02 -0.05 72.04 -0.08 108.06 -0.1 C112.3 -0.1 116.55 -0.11 120.8 -0.11 C122.07 -0.11 122.07 -0.11 123.36 -0.11 C137.07 -0.12 150.79 -0.14 164.5 -0.15 C178.56 -0.17 192.62 -0.18 206.68 -0.19 C215.36 -0.19 224.04 -0.2 232.72 -0.22 C238.67 -0.23 244.61 -0.23 250.56 -0.23 C253.99 -0.23 257.43 -0.23 260.86 -0.24 C264.58 -0.25 268.3 -0.25 272.02 -0.24 C273.11 -0.25 274.21 -0.25 275.33 -0.26 C276.82 -0.25 276.82 -0.25 278.33 -0.25 C279.19 -0.25 280.05 -0.25 280.94 -0.25 C283 0 283 0 285 2 C285.03 4.49 284.94 6.83 284.74 9.3 C284.69 10.05 284.63 10.8 284.58 11.58 C284.4 14.05 284.2 16.53 284 19 C283.93 19.82 283.87 20.64 283.8 21.48 C283.3 27.73 282.74 33.97 282.19 40.21 C282.01 42.19 281.84 44.17 281.66 46.16 C281.3 50.28 280.93 54.4 280.56 58.51 C280.09 63.79 279.62 69.07 279.16 74.35 C278.8 78.43 278.44 82.51 278.07 86.59 C277.9 88.53 277.73 90.48 277.56 92.43 C277.32 95.14 277.08 97.85 276.83 100.55 C276.76 101.35 276.69 102.15 276.62 102.98 C276.31 106.44 275.85 109.61 275 113 C184.58 113.33 94.16 113.66 1 114 C1.33 76.71 1.66 39.42 2 1 C1.34 0.67 0.68 0.34 0 0 Z " fill="#FBFDFD" transform="translate(638,440)"/>
<path d="M0 0 C7.89 -0.29 15.78 -0.51 23.67 -0.65 C27.33 -0.71 31 -0.8 34.66 -0.94 C60.22 -1.91 60.22 -1.91 66.4 2.58 C72.35 8.28 74.87 15.89 76.99 23.66 C78.39 28.28 80.68 31.83 83.44 35.75 C84.21 36.96 84.98 38.17 85.75 39.39 C86.11 39.98 86.48 40.56 86.86 41.16 C88.11 43.18 89.33 45.22 90.54 47.26 C90.95 47.96 91.36 48.66 91.79 49.38 C92.58 50.72 93.36 52.05 94.13 53.4 C95.99 56.77 95.99 56.77 99 59 C99.27 58.27 99.55 57.54 99.83 56.79 C100.94 54.14 102.2 51.84 103.7 49.39 C104.51 48.06 104.51 48.06 105.34 46.7 C105.93 45.75 106.52 44.79 107.12 43.81 C107.73 42.82 108.34 41.82 108.97 40.8 C110.98 37.53 112.99 34.26 115 31 C116.46 28.63 117.92 26.25 119.38 23.88 C122.72 18.45 126.06 13.02 129.41 7.59 C130.96 5.07 132.48 2.53 134 0 C154.13 0 174.26 0 195 0 C195 57.09 195 114.18 195 173 C175.86 173 156.72 173 137 173 C136.67 145.94 136.34 118.88 136 91 C126.68 105.34 126.68 105.34 117.38 119.69 C116.49 121.05 115.61 122.4 114.71 123.8 C112.8 126.76 110.9 129.73 109.01 132.7 C108.52 133.47 108.02 134.24 107.52 135.04 C106.57 136.51 105.64 137.99 104.7 139.47 C102.42 143.04 100.18 146.13 97 149 C91.19 140.93 85.82 132.61 80.45 124.25 C78.1 120.6 75.74 116.96 73.38 113.31 C70.01 108.12 66.66 102.92 63.32 97.72 C62.9 97.07 62.49 96.42 62.06 95.76 C61.04 94.17 60.02 92.59 59 91 C58.99 92.01 58.98 93.03 58.97 94.07 C58.87 103.59 58.77 113.11 58.66 122.63 C58.61 127.53 58.55 132.42 58.5 137.32 C58.46 142.04 58.4 146.76 58.35 151.48 C58.33 153.28 58.31 155.09 58.29 156.89 C58.27 159.41 58.24 161.93 58.21 164.45 C58.2 165.2 58.19 165.96 58.19 166.74 C58.11 171.89 58.11 171.89 57 173 C55.26 173.1 53.51 173.13 51.76 173.13 C50.64 173.13 49.53 173.14 48.37 173.14 C47.16 173.14 45.94 173.13 44.69 173.13 C43.45 173.13 42.21 173.13 40.93 173.14 C38.31 173.14 35.68 173.14 33.05 173.13 C29.68 173.12 26.31 173.13 22.93 173.13 C19.73 173.14 16.52 173.14 13.31 173.13 C12.1 173.13 10.88 173.14 9.63 173.14 C7.95 173.13 7.95 173.13 6.24 173.13 C5.25 173.13 4.26 173.13 3.24 173.13 C1 173 1 173 0 172 C-0.1 169.79 -0.12 167.57 -0.12 165.35 C-0.12 164.65 -0.12 163.94 -0.12 163.22 C-0.12 160.85 -0.12 158.47 -0.11 156.1 C-0.11 154.4 -0.11 152.71 -0.11 151.01 C-0.11 146.4 -0.11 141.78 -0.1 137.17 C-0.1 132.35 -0.09 127.53 -0.09 122.71 C-0.09 113.58 -0.08 104.45 -0.07 95.32 C-0.06 84.93 -0.06 74.54 -0.05 64.15 C-0.04 42.76 -0.02 21.38 0 0 Z " fill="#000000" transform="translate(648,0)"/>
<path d="M0 0 C19.14 0 38.28 0 58 0 C58 18.81 58 37.62 58 57 C75.16 57 92.32 57 110 57 C110 38.19 110 19.38 110 0 C129.14 0 148.28 0 168 0 C168 57.09 168 114.18 168 173 C148.86 173 129.72 173 110 173 C110 153.86 110 134.72 110 115 C92.84 115 75.68 115 58 115 C58 134.14 58 153.28 58 173 C38.86 173 19.72 173 0 173 C0 115.91 0 58.82 0 0 Z " fill="#000000" transform="translate(271,0)"/>
<path d="M0 0 C1.72 -0.01 1.72 -0.01 3.47 -0.01 C5.36 -0.01 5.36 -0.01 7.28 -0.01 C8.62 -0.01 9.96 -0.02 11.29 -0.02 C14.93 -0.03 18.56 -0.03 22.19 -0.03 C25.22 -0.03 28.25 -0.04 31.28 -0.04 C38.42 -0.05 45.57 -0.05 52.71 -0.05 C60.09 -0.05 67.47 -0.06 74.85 -0.08 C81.18 -0.09 87.51 -0.1 93.83 -0.1 C97.62 -0.09 101.4 -0.1 105.18 -0.11 C108.74 -0.12 112.29 -0.12 115.85 -0.11 C117.78 -0.11 119.71 -0.12 121.64 -0.13 C123.36 -0.12 123.36 -0.12 125.11 -0.11 C126.6 -0.11 126.6 -0.11 128.13 -0.12 C130.49 0.13 130.49 0.13 132.49 2.13 C132.59 4.13 132.59 4.13 132.37 6.63 C132.29 7.58 132.21 8.54 132.13 9.52 C132.04 10.57 131.94 11.63 131.84 12.71 C131.74 13.83 131.65 14.95 131.55 16.1 C131.23 19.86 130.89 23.62 130.55 27.38 C130.32 30.02 130.09 32.66 129.87 35.3 C129.3 41.85 128.72 48.39 128.13 54.93 C127.61 60.79 127.09 66.65 126.57 72.51 C125.63 83.16 124.69 93.8 123.74 104.45 C123.66 105.31 123.59 106.18 123.51 107.07 C123.06 112.1 122.61 117.13 122.15 122.16 C122.01 123.7 121.88 125.24 121.74 126.78 C121.55 128.89 121.36 131.01 121.17 133.13 C121.06 134.32 120.95 135.51 120.84 136.73 C119.8 146.83 119.8 146.83 117.49 149.13 C114.87 149.98 112.28 150.72 109.62 151.42 C108.39 151.75 108.39 151.75 107.15 152.09 C104.43 152.82 101.71 153.54 98.99 154.26 C97.07 154.78 95.16 155.29 93.25 155.8 C88.17 157.17 83.1 158.52 78.02 159.87 C72.99 161.21 67.96 162.56 62.93 163.91 C57.04 165.49 51.15 167.06 45.26 168.64 C36.27 171.04 27.28 173.46 18.29 175.92 C17.12 176.24 17.12 176.24 15.92 176.57 C12.29 177.56 8.66 178.56 5.04 179.57 C3.79 179.91 2.55 180.25 1.27 180.6 C0.19 180.9 -0.88 181.2 -1.99 181.5 C-4.51 182.13 -4.51 182.13 -6.51 182.13 C-6.51 122.73 -6.51 63.33 -6.51 2.13 C-7.17 1.8 -7.83 1.47 -8.51 1.13 C-5.4 0.1 -3.26 0.01 0 0 Z " fill="#EF662B" transform="translate(646.5103912353516,782.8662872314453)"/>
<path d="M0 0 C20.57 -0.05 41.13 -0.08 61.7 -0.1 C71.25 -0.11 80.8 -0.13 90.34 -0.15 C98.66 -0.17 106.98 -0.18 115.3 -0.19 C119.71 -0.19 124.12 -0.2 128.53 -0.21 C132.67 -0.22 136.82 -0.23 140.96 -0.23 C142.49 -0.23 144.01 -0.23 145.54 -0.24 C147.61 -0.25 149.69 -0.25 151.76 -0.24 C152.92 -0.24 154.09 -0.24 155.29 -0.25 C158 0 158 0 160 2 C160.25 4.03 160.25 4.03 160.24 6.57 C160.24 8.01 160.24 8.01 160.25 9.48 C160.24 11.07 160.24 11.07 160.23 12.69 C160.23 13.8 160.23 14.92 160.23 16.06 C160.23 19.75 160.21 23.44 160.2 27.13 C160.19 29.69 160.19 32.24 160.19 34.79 C160.18 40.83 160.16 46.88 160.14 52.92 C160.12 59.8 160.11 66.67 160.1 73.55 C160.08 87.7 160.04 101.85 160 116 C140.61 116.05 121.21 116.08 101.82 116.1 C92.82 116.11 83.81 116.13 74.81 116.15 C66.97 116.17 59.12 116.18 51.27 116.19 C47.12 116.19 42.96 116.2 38.81 116.21 C34.9 116.22 30.99 116.23 27.08 116.23 C25.64 116.23 24.2 116.23 22.77 116.24 C20.81 116.25 18.85 116.24 16.9 116.24 C15.25 116.24 15.25 116.24 13.57 116.25 C11 116 11 116 9 114 C8.56 111.54 8.24 109.16 8 106.68 C7.92 105.93 7.83 105.18 7.75 104.4 C7.49 101.93 7.24 99.47 7 97 C6.92 96.19 6.84 95.38 6.76 94.54 C6.16 88.39 5.61 82.24 5.05 76.08 C4.88 74.13 4.7 72.17 4.53 70.21 C4.16 66.15 3.79 62.09 3.43 58.02 C2.97 52.82 2.5 47.62 2.03 42.42 C1.66 38.4 1.3 34.38 0.94 30.35 C0.77 28.43 0.59 26.52 0.42 24.6 C0.18 21.93 -0.06 19.25 -0.3 16.58 C-0.37 15.8 -0.44 15.01 -0.51 14.21 C-1.5 3 -1.5 3 0 0 Z " fill="#E24D25" transform="translate(480,554)"/>
<path d="M0 0 C52.8 0 105.6 0 160 0 C160 18.81 160 37.62 160 57 C159.67 57.33 159.34 57.66 159 58 C142.5 58 126 58 109 58 C109 95.95 109 133.9 109 173 C89.86 173 70.72 173 51 173 C51 135.05 51 97.1 51 58 C34.17 58 17.34 58 0 58 C0 38.86 0 19.72 0 0 Z " fill="#000000" transform="translate(464,0)"/>
<path d="M0 0 C19.47 0 38.94 0 59 0 C59 37.95 59 75.9 59 115 C85.73 115 112.46 115 140 115 C140 134.14 140 153.28 140 173 C121.89 173.02 103.79 173.04 85.68 173.05 C77.28 173.06 68.87 173.06 60.46 173.08 C53.14 173.09 45.81 173.09 38.49 173.09 C34.61 173.1 30.73 173.1 26.85 173.11 C23.2 173.11 19.55 173.11 15.9 173.11 C13.92 173.11 11.93 173.12 9.95 173.12 C8.77 173.12 7.6 173.12 6.4 173.12 C4.86 173.12 4.86 173.12 3.29 173.12 C1 173 1 173 0 172 C-0.1 169.79 -0.12 167.57 -0.12 165.35 C-0.12 164.65 -0.12 163.94 -0.12 163.22 C-0.12 160.85 -0.12 158.47 -0.11 156.1 C-0.11 154.4 -0.11 152.71 -0.11 151.01 C-0.11 146.4 -0.11 141.78 -0.1 137.17 C-0.1 132.35 -0.09 127.53 -0.09 122.71 C-0.09 113.58 -0.08 104.45 -0.07 95.32 C-0.06 84.93 -0.06 74.54 -0.05 64.15 C-0.04 42.76 -0.02 21.38 0 0 Z " fill="#000000" transform="translate(871,0)"/>
</svg>
