<?xml version="1.0" encoding="UTF-8"?>
<!-- Generator: visioncortex VTracer 0.6.3 -->
<svg version="1.1" xmlns="http://www.w3.org/2000/svg" width="1280" height="1280">
<path d="M0 0 C1.31 -0 2.62 -0 3.97 -0.01 C5.43 -0 6.9 -0 8.36 0 C9.92 0 11.47 -0 13.03 -0 C17.33 -0.01 21.63 -0 25.93 0 C30.59 0.01 35.26 0 39.92 0 C48.11 -0 56.3 0 64.49 0 C76.67 0.01 88.84 0.01 101.02 0.01 C121.5 0.01 141.98 0.01 162.46 0.02 C182.75 0.02 203.03 0.03 223.32 0.03 C225.21 0.03 225.21 0.03 227.14 0.03 C233.53 0.03 239.93 0.03 246.33 0.03 C291.68 0.03 337.04 0.04 382.39 0.05 C393.39 0.05 404.39 0.05 415.38 0.06 C416.06 0.06 416.75 0.06 417.45 0.06 C449.15 0.06 480.84 0.07 512.54 0.07 C514.6 0.07 516.65 0.07 518.71 0.07 C532.35 0.07 545.98 0.07 559.61 0.07 C587.39 0.08 615.17 0.08 642.94 0.08 C644.22 0.08 645.5 0.08 646.81 0.08 C732.14 0.09 817.47 0.11 902.8 0.12 C902.83 3.19 902.85 6.25 902.86 9.31 C902.87 10.18 902.88 11.04 902.89 11.93 C902.9 16.14 902.82 20.01 901.8 24.12 C901.67 25.95 901.58 27.78 901.52 29.61 C901.46 31.13 901.46 31.13 901.4 32.69 C901.33 34.83 901.26 36.97 901.19 39.1 C901.14 40.62 901.14 40.62 901.08 42.17 C901.03 43.56 901.03 43.56 900.99 44.98 C900.8 47.12 900.8 47.12 899.8 48.12 C899.51 50.71 899.27 53.27 899.08 55.87 C899.02 56.66 898.95 57.46 898.89 58.28 C898.76 59.98 898.63 61.69 898.5 63.39 C898.3 65.93 898.11 68.46 897.9 71 C897.18 80.27 896.57 89.53 896.17 98.83 C895.97 103.14 895.55 107.3 894.8 111.56 C893.67 118.01 893.41 124.44 893.23 130.97 C893.2 131.78 893.17 132.59 893.14 133.42 C893.11 134.49 893.11 134.49 893.09 135.59 C892.8 138.12 892.8 138.12 891.83 141.71 C890.48 146.91 890.26 152.1 889.98 157.45 C889.92 158.51 889.86 159.58 889.8 160.67 C889.6 164.05 889.42 167.43 889.24 170.81 C889.05 174.2 888.86 177.59 888.67 180.98 C888.55 183.08 888.43 185.19 888.32 187.29 C888.26 188.25 888.21 189.2 888.16 190.19 C888.09 191.44 888.09 191.44 888.02 192.72 C887.79 195.24 887.32 197.65 886.8 200.12 C886.68 201.74 886.6 203.35 886.55 204.97 C886.52 205.88 886.49 206.79 886.46 207.73 C886.43 208.68 886.39 209.64 886.36 210.62 C885.47 233.45 885.47 233.45 882.8 236.12 C882.62 237.71 882.51 239.3 882.43 240.89 C882.37 241.9 882.31 242.92 882.25 243.96 C882.2 245.07 882.14 246.17 882.08 247.31 C882.02 248.43 881.95 249.56 881.89 250.72 C881.69 254.33 881.49 257.95 881.3 261.56 C881.04 266.31 880.78 271.06 880.52 275.81 C880.46 276.91 880.4 278.01 880.34 279.15 C880.29 280.17 880.23 281.18 880.17 282.23 C880.12 283.13 880.08 284.03 880.03 284.95 C879.8 287.12 879.8 287.12 878.8 289.12 C878.65 291.01 878.55 292.9 878.48 294.79 C878.42 296.47 878.42 296.47 878.36 298.19 C878.3 299.95 878.3 299.95 878.24 301.75 C878.19 302.93 878.15 304.12 878.11 305.34 C878 308.26 877.9 311.19 877.8 314.12 C877.14 314.12 876.48 314.12 875.8 314.12 C875.82 314.98 875.82 314.98 875.83 315.86 C875.9 322.19 875.69 328.49 875.36 334.81 C875.32 335.61 875.28 336.4 875.24 337.22 C875.05 340.87 874.78 344.48 874.29 348.1 C873.68 352.68 873.53 357.26 873.36 361.87 C873.08 368.36 872.5 374.56 871.27 380.94 C870.65 385.16 870.48 389.36 870.3 393.62 C870.04 399.85 869.44 405.76 868.27 411.88 C867.52 417.05 867.34 422.24 867.14 427.45 C867.01 430.7 866.85 433.82 866.3 437.02 C865.4 442.56 865.4 448.18 865.19 453.78 C865.14 455.15 865.14 455.15 865.08 456.55 C865.03 457.79 865.03 457.79 864.99 459.06 C864.8 461.12 864.8 461.12 863.8 463.12 C863.67 464.78 863.6 466.45 863.55 468.11 C863.52 469.12 863.49 470.13 863.46 471.18 C863.43 472.25 863.39 473.33 863.36 474.44 C862.59 496.55 862.59 496.55 859.8 502.12 C859.66 503.78 859.57 505.44 859.52 507.1 C859.48 508.1 859.44 509.1 859.4 510.13 C859.35 511.71 859.35 511.71 859.3 513.31 C859.08 519.67 858.73 525.83 857.8 532.12 C857.51 536.23 857.36 540.34 857.19 544.45 C857.14 545.67 857.14 545.67 857.08 546.92 C857.03 548.02 857.03 548.02 856.99 549.15 C856.8 551.12 856.8 551.12 855.8 554.12 C855.65 556.19 855.55 558.26 855.48 560.32 C855.42 562.14 855.42 562.14 855.36 563.99 C855.32 565.25 855.28 566.51 855.24 567.81 C855.17 569.72 855.17 569.72 855.11 571.67 C855 574.82 854.9 577.97 854.8 581.12 C854.14 581.12 853.48 581.12 852.8 581.12 C852.78 581.83 852.76 582.54 852.74 583.27 C852.35 596.76 851.83 610.22 850.86 623.69 C850.75 625.31 850.75 625.31 850.64 626.98 C850.26 631.96 849.73 636.81 848.76 641.72 C847.71 647.18 847.43 652.51 847.3 658.06 C847.16 663.57 846.91 668.88 845.87 674.31 C844.04 684.5 843.82 694.93 843.24 705.25 C843.05 708.5 842.86 711.75 842.67 715 C842.55 717.01 842.43 719.03 842.32 721.04 C842.26 721.94 842.21 722.84 842.16 723.77 C842.09 724.96 842.09 724.96 842.02 726.18 C841.8 728.12 841.8 728.12 840.8 730.12 C840.68 731.82 840.62 733.52 840.59 735.23 C840.56 736.27 840.53 737.31 840.51 738.38 C840.48 739.49 840.45 740.6 840.42 741.75 C840.15 750.61 839.31 758.76 837.42 767.42 C836.63 772.14 836.67 776.64 836.78 781.41 C836.88 786.41 836.27 790.94 835.31 795.82 C834.52 800.94 834.34 806.08 834.14 811.25 C833.9 817.03 833.9 817.03 832.8 818.12 C831.91 823.88 831.62 829.56 831.42 835.37 C830.97 847.23 829.95 859.04 828.9 870.86 C828.17 879.22 827.55 887.57 827.17 895.96 C826.3 913.62 826.3 913.62 823.8 916.12 C823.52 918.41 823.35 920.7 823.18 923 C822.8 925.12 822.8 925.12 820.8 927.12 C817.7 927.83 814.61 928.38 811.47 928.89 C807.29 929.64 804.35 930.84 800.8 933.12 C798.47 933.51 796.14 933.84 793.8 934.12 C791.46 934.76 789.12 935.43 786.8 936.12 C784.95 936.63 783.09 937.13 781.24 937.62 C776.58 938.89 771.99 940.19 767.54 942.08 C764.47 943.25 761.44 944.01 758.24 944.75 C756.56 945.14 756.56 945.14 754.86 945.54 C751.8 946.12 751.8 946.12 747.8 946.12 C747.8 946.78 747.8 947.44 747.8 948.12 C747.24 948.23 746.68 948.34 746.1 948.46 C744.38 948.8 742.66 949.14 740.94 949.49 C738.69 949.94 736.44 950.39 734.19 950.82 C732.97 951.06 731.75 951.31 730.49 951.56 C728.76 951.9 728.76 951.9 727 952.25 C723.8 953.12 721.59 954.38 718.8 956.12 C716.47 956.51 714.14 956.84 711.8 957.12 C709.46 957.76 707.12 958.43 704.8 959.12 C702.95 959.63 701.09 960.13 699.24 960.62 C695.37 961.67 691.59 962.83 687.8 964.12 C681.31 966.18 674.79 967.91 668.17 969.48 C665.86 969.9 665.86 969.9 664.8 971.12 C660.63 972.11 656.46 972.99 652.26 973.82 C651.04 974.06 649.81 974.31 648.55 974.56 C647.39 974.79 646.23 975.01 645.03 975.25 C641.81 976.12 639.6 977.35 636.8 979.12 C634.87 979.75 634.87 979.75 632.92 980.12 C631.77 980.36 631.77 980.36 630.6 980.6 C628.44 981 626.28 981.41 624.13 981.81 C623.48 981.93 622.82 982.06 622.15 982.18 C620.25 982.55 618.35 982.9 616.45 983.25 C612.65 984.16 609.36 985.53 605.8 987.12 C602.5 988.24 599.16 989.19 595.8 990.12 C595.06 990.33 594.32 990.54 593.56 990.76 C589.9 991.74 586.59 992.36 582.8 992.12 C582.8 992.78 582.8 993.44 582.8 994.12 C581.89 994.32 580.99 994.51 580.05 994.71 C573.91 996.02 567.77 997.35 561.64 998.72 C559.37 999.22 557.09 999.68 554.8 1000.12 C554.8 1000.78 554.8 1001.44 554.8 1002.12 C549.19 1003.4 543.56 1004.6 537.92 1005.75 C536.01 1006.14 536.01 1006.14 534.06 1006.54 C530.8 1007.12 530.8 1007.12 527.8 1007.12 C527.8 1007.78 527.8 1008.44 527.8 1009.12 C520.89 1011.16 514.02 1013.12 506.99 1014.69 C502.45 1015.69 498.15 1016.96 493.78 1018.51 C490.84 1019.42 487.83 1019.69 484.8 1020.12 C481.06 1021.19 477.35 1022.31 473.9 1024.12 C471.28 1025.37 468.68 1026.05 465.86 1026.75 C464.84 1027.01 463.82 1027.27 462.77 1027.54 C460.02 1028.08 457.59 1028.24 454.8 1028.12 C454.8 1028.78 454.8 1029.44 454.8 1030.12 C450.51 1030.12 446.22 1030.12 441.8 1030.12 C441.8 1029.46 441.8 1028.8 441.8 1028.12 C440.58 1028.04 439.37 1027.96 438.11 1027.87 C430.98 1027.09 424.22 1024.71 417.49 1022.3 C410.44 1019.78 403.14 1018.49 395.8 1017.12 C395.8 1016.46 395.8 1015.8 395.8 1015.12 C394.5 1015.01 393.2 1014.89 391.86 1014.77 C387.01 1014.23 382.48 1013.12 377.8 1011.75 C377.01 1011.53 376.22 1011.3 375.41 1011.07 C370.8 1009.75 366.24 1008.31 361.71 1006.73 C358.98 1005.86 356.19 1005.31 353.38 1004.72 C346.45 1003.13 339.44 1001.29 332.86 998.56 C326.82 996.15 320.17 995.29 313.8 994.12 C313.8 993.46 313.8 992.8 313.8 992.12 C312.51 992.01 311.21 991.89 309.88 991.78 C304.92 991.22 300.27 990.07 295.49 988.69 C294.7 988.47 293.92 988.25 293.11 988.03 C287.34 986.4 287.34 986.4 284.74 985.09 C281.97 983.71 279.15 983.24 276.11 982.62 C274.87 982.37 273.63 982.11 272.35 981.84 C270.26 981.42 268.18 981 266.09 980.59 C264.96 980.36 264.96 980.36 263.8 980.12 C262.84 979.94 262.84 979.94 261.86 979.75 C259.8 979.12 259.8 979.12 257.22 977.72 C252.61 975.57 247.95 974.66 242.99 973.62 C236.86 972.33 230.94 970.93 225.03 968.86 C220.23 967.27 215.28 966.15 210.38 964.93 C209.57 964.73 208.76 964.52 207.93 964.31 C207.21 964.13 206.49 963.95 205.74 963.76 C203.8 963.12 203.8 963.12 200.8 961.12 C198.25 960.54 195.74 960.02 193.17 959.56 C185.92 958.25 185.92 958.25 184.8 957.12 C183.45 956.89 182.1 956.71 180.74 956.56 C179.44 956.42 178.14 956.27 176.8 956.12 C176.8 955.46 176.8 954.8 176.8 954.12 C175.79 953.92 175.79 953.92 174.75 953.72 C171.35 953.03 167.95 952.34 164.55 951.62 C163.31 951.37 162.06 951.11 160.78 950.84 C157.8 950.12 157.8 950.12 156.8 949.12 C155.45 948.89 154.1 948.71 152.74 948.56 C151.44 948.42 150.14 948.27 148.8 948.12 C148.8 947.46 148.8 946.8 148.8 946.12 C147 946 147 946 145.17 945.87 C137.35 945.01 129.54 942.79 122.36 939.59 C118.54 938.02 114.97 937.2 110.92 936.5 C103.92 935.24 103.92 935.24 102.8 934.12 C101.45 933.89 100.1 933.71 98.74 933.56 C97.44 933.42 96.14 933.27 94.8 933.12 C94.8 932.46 94.8 931.8 94.8 931.12 C94.12 930.99 93.44 930.85 92.74 930.71 C91.77 930.52 90.8 930.32 89.8 930.12 C88.67 929.9 87.55 929.67 86.39 929.44 C84.58 929.07 84.58 929.07 82.74 928.69 C81.53 928.44 80.32 928.19 79.08 927.94 C73.82 926.63 73.82 926.63 71.8 925.12 C70.89 921.65 70.64 918.29 70.52 914.71 C70.46 913.2 70.46 913.2 70.4 911.66 C70.33 909.54 70.26 907.43 70.19 905.32 C70.14 903.81 70.14 903.81 70.08 902.27 C70.05 901.36 70.02 900.44 69.99 899.5 C69.88 896.98 69.88 896.98 68.8 894.12 C68.64 891.18 68.52 888.25 68.42 885.31 C68.08 876.73 67.09 868.38 65.82 859.89 C64.91 853.61 64.54 847.65 64.79 841.29 C64.79 840.58 64.8 839.86 64.8 839.12 C64.47 838.79 64.14 838.46 63.8 838.12 C63.55 835.7 63.37 833.3 63.24 830.87 C63.19 830.15 63.15 829.43 63.1 828.69 C62.84 824.17 62.81 819.71 62.92 815.19 C62.97 811.34 62.77 808.49 61.3 804.94 C59.22 799.7 59.67 794.51 59.78 788.97 C59.87 783.4 59.31 778.27 58.31 772.77 C57.49 766.91 57.34 761.02 57.14 755.11 C57.11 754.23 57.08 753.36 57.04 752.46 C57.02 751.67 57 750.88 56.97 750.07 C56.91 748.04 56.91 748.04 55.8 746.12 C55.66 744.18 55.57 742.23 55.52 740.28 C55.48 739.11 55.44 737.95 55.4 736.76 C55.33 734.29 55.26 731.82 55.19 729.36 C55.16 728.2 55.12 727.04 55.08 725.84 C55.05 724.77 55.02 723.7 54.99 722.59 C55.07 720.18 55.07 720.18 53.8 719.12 C53.58 717.19 53.43 715.24 53.3 713.3 C53.22 712.1 53.13 710.91 53.05 709.68 C52.97 708.43 52.88 707.17 52.8 705.87 C52.64 703.41 52.47 700.95 52.3 698.48 C52.23 697.38 52.15 696.29 52.08 695.15 C51.86 692.19 51.86 692.19 51.29 689.58 C50.75 686.86 50.61 684.29 50.52 681.53 C50.48 680.48 50.44 679.43 50.4 678.35 C50.33 676.15 50.26 673.96 50.19 671.76 C50.14 670.19 50.14 670.19 50.08 668.59 C50.05 667.64 50.02 666.68 49.99 665.7 C49.82 663.37 49.4 661.37 48.8 659.12 C48.5 655.76 48.29 652.39 48.08 649.02 C47.98 646.19 47.98 646.19 46.8 644.12 C46.75 642.49 46.76 640.85 46.79 639.21 C46.84 633.36 46.46 627.63 45.92 621.81 C45.83 620.81 45.74 619.81 45.65 618.78 C44.86 610.26 43.98 601.72 42.21 593.34 C41.66 589.08 41.94 585.02 42.24 580.75 C42.29 579.92 42.34 579.09 42.39 578.23 C42.52 576.19 42.66 574.16 42.8 572.12 C42.14 572.12 41.48 572.12 40.8 572.12 C40.77 570.91 40.77 570.91 40.74 569.66 C40.64 565.96 40.53 562.26 40.42 558.56 C40.39 557.28 40.36 556.01 40.33 554.69 C40.14 548.51 39.94 542.95 37.8 537.12 C36.53 533.33 36.78 529.82 36.86 525.87 C36.94 518.75 36.39 511.99 35.31 504.94 C34.64 499.94 34.37 494.96 34.14 489.93 C34 487 33.8 484.15 33.3 481.25 C32.82 478.25 32.61 475.39 32.52 472.36 C32.46 470.78 32.46 470.78 32.4 469.16 C32.33 466.95 32.26 464.75 32.19 462.54 C32.16 461.49 32.12 460.44 32.08 459.36 C32.05 458.4 32.02 457.44 31.99 456.46 C31.94 454.1 31.94 454.1 30.8 452.12 C30.73 450.25 30.71 448.37 30.74 446.5 C30.75 445.5 30.75 444.49 30.76 443.46 C30.78 442.69 30.79 441.92 30.8 441.12 C30.14 440.79 29.48 440.46 28.8 440.12 C28.82 439.11 28.85 438.09 28.87 437.05 C28.99 429.52 28.69 422.56 27.24 415.15 C26.56 410.48 26.7 405.86 26.83 401.16 C26.8 398.51 26.44 396.65 25.8 394.12 C25.73 392.04 25.71 389.96 25.74 387.87 C25.75 386.8 25.75 385.72 25.76 384.61 C25.78 383.79 25.79 382.97 25.8 382.12 C25.14 382.12 24.48 382.12 23.8 382.12 C23.81 380.93 23.82 379.74 23.83 378.51 C23.84 376.94 23.85 375.38 23.86 373.81 C23.87 373.03 23.88 372.24 23.89 371.43 C23.89 370.67 23.89 369.92 23.9 369.14 C23.9 368.44 23.91 367.74 23.91 367.03 C23.87 364.9 23.87 364.9 22.8 362.12 C22.68 360.72 22.6 359.32 22.55 357.91 C22.52 357.09 22.49 356.26 22.46 355.41 C22.43 354.53 22.39 353.65 22.36 352.75 C22.13 347.04 21.82 341.5 20.74 335.87 C18.94 325.79 19.64 315.33 19.8 305.12 C19.14 305.12 18.48 305.12 17.8 305.12 C17.78 304.45 17.77 303.78 17.75 303.08 C17.47 291.09 16.99 279.65 14.42 267.91 C13.6 262.9 13.61 258.03 13.82 252.97 C13.98 248.29 13.16 244.58 11.8 240.12 C11.64 237.75 11.64 237.75 11.74 235.56 C11.98 224.79 11.98 224.79 10.29 214.23 C9.75 211.9 9.62 209.77 9.55 207.38 C9.52 206.47 9.49 205.55 9.46 204.61 C9.43 203.65 9.39 202.68 9.36 201.69 C9.13 195.54 8.86 189.56 7.74 183.5 C6.17 174.8 6.64 165.93 6.8 157.12 C6.14 157.12 5.48 157.12 4.8 157.12 C3.87 151.74 3.78 146.7 3.92 141.25 C4.03 134.01 3.33 127.37 1.87 120.29 C0.66 114.16 0.59 108.33 0.79 102.1 C0.96 99.07 0.96 99.07 -0.2 96.12 C-0.32 94.72 -0.4 93.32 -0.45 91.91 C-0.49 90.67 -0.49 90.67 -0.54 89.41 C-0.57 88.53 -0.61 87.65 -0.64 86.75 C-0.75 73.57 -0.75 73.57 -4.2 61.12 C-4.27 59.47 -4.28 57.81 -4.26 56.15 C-4.26 55.17 -4.25 54.19 -4.24 53.18 C-4.23 52.15 -4.21 51.12 -4.2 50.06 C-4.18 48.03 -4.15 46 -4.14 43.96 C-4.12 42.61 -4.12 42.61 -4.1 41.23 C-3.96 39.14 -3.96 39.14 -5.2 38.12 C-5.32 36.46 -5.38 34.79 -5.41 33.13 C-5.44 32.09 -5.47 31.06 -5.5 29.99 C-5.55 27.82 -5.59 25.65 -5.63 23.49 C-5.81 17.32 -6.53 12 -8.57 6.16 C-9.2 4.12 -9.2 4.12 -9.2 1.12 C-5.9 0.02 -3.48 -0 0 0 Z M314.8 191.12 C314.69 193.81 314.66 196.47 314.66 199.15 C314.66 200.43 314.66 200.43 314.65 201.74 C314.64 204.65 314.64 207.55 314.64 210.45 C314.64 212.54 314.63 214.63 314.63 216.72 C314.61 222.49 314.6 228.25 314.6 234.02 C314.59 240.23 314.58 246.43 314.56 252.64 C314.54 263.41 314.52 274.17 314.51 284.94 C314.49 296.23 314.47 307.53 314.45 318.82 C314.45 319.52 314.45 320.23 314.45 320.95 C314.44 324.51 314.43 328.07 314.43 331.63 C314.38 356.89 314.34 382.14 314.3 407.39 C314.26 431.92 314.22 456.46 314.17 480.99 C314.17 481.75 314.17 482.5 314.17 483.28 C314.15 490.87 314.14 498.46 314.13 506.05 C314.1 521.52 314.07 536.98 314.04 552.45 C314.04 553.16 314.04 553.87 314.04 554.6 C313.95 602.11 313.88 649.62 313.8 697.12 C310.3 697.18 307.66 696.94 304.36 695.75 C303.58 695.48 302.8 695.21 301.99 694.92 C300.25 694.29 298.52 693.62 296.8 692.94 C292.76 691.84 288.95 691.96 284.8 692.12 C284.8 691.46 284.8 690.8 284.8 690.12 C283.56 689.86 282.32 689.59 281.04 689.32 C279.4 688.96 277.75 688.61 276.11 688.25 C274.89 687.99 274.89 687.99 273.64 687.72 C269.5 686.82 265.71 685.78 261.8 684.12 C259.02 683.19 256.23 682.34 253.42 681.5 C252.69 681.27 251.96 681.04 251.21 680.8 C246.57 679.41 242.65 678.88 237.8 679.12 C237.8 678.46 237.8 677.8 237.8 677.12 C236.92 676.98 236.92 676.98 236.03 676.83 C230 675.73 224.41 674.06 218.66 671.93 C215.58 671.06 212.98 670.98 209.8 671.12 C209.8 670.46 209.8 669.8 209.8 669.12 C206.5 669.12 203.2 669.12 199.8 669.12 C199.8 668.46 199.8 667.8 199.8 667.12 C198.64 666.86 197.48 666.59 196.29 666.32 C194.75 665.96 193.21 665.61 191.67 665.25 C190.53 664.99 190.53 664.99 189.37 664.72 C185.09 663.72 180.96 662.55 176.8 661.12 C173.79 660.21 170.76 659.35 167.74 658.5 C166.95 658.27 166.16 658.04 165.34 657.8 C161.41 656.69 157.94 655.81 153.8 656.12 C153.8 655.46 153.8 654.8 153.8 654.12 C153.1 653.99 152.4 653.86 151.68 653.72 C150.77 653.55 149.86 653.37 148.92 653.19 C147.57 652.93 147.57 652.93 146.18 652.66 C143.8 652.12 143.8 652.12 141.8 651.12 C140.81 651.45 139.82 651.78 138.8 652.12 C138.8 685.45 138.8 718.78 138.8 753.12 C139.46 753.12 140.12 753.12 140.8 753.12 C140.8 753.78 140.8 754.44 140.8 755.12 C146.13 757.02 151.4 758.58 156.95 759.69 C158.8 760.12 158.8 760.12 160.8 761.12 C162.17 761.19 163.55 761.21 164.92 761.19 C166.84 761.16 166.84 761.16 168.8 761.12 C168.8 761.78 168.8 762.44 168.8 763.12 C169.44 763.26 170.08 763.39 170.73 763.53 C171.56 763.7 172.39 763.88 173.24 764.06 C174.06 764.24 174.88 764.41 175.73 764.59 C177.8 765.12 177.8 765.12 178.8 766.12 C180.79 766.38 182.79 766.64 184.79 766.84 C186.8 767.12 186.8 767.12 189.8 768.12 C190.46 767.79 191.12 767.46 191.8 767.12 C191.8 767.78 191.8 768.44 191.8 769.12 C193.74 769.63 195.67 770.13 197.61 770.62 C199.23 771.04 199.23 771.04 200.88 771.47 C203.79 772.23 203.79 772.23 206.8 772.12 C206.8 772.78 206.8 773.44 206.8 774.12 C209.44 774.12 212.08 774.12 214.8 774.12 C214.8 774.78 214.8 775.44 214.8 776.12 C215.42 776.25 216.03 776.37 216.67 776.49 C233.45 779.81 233.45 779.81 238.8 782.12 C243.73 784.1 247.57 784.3 252.8 784.12 C252.8 784.78 252.8 785.44 252.8 786.12 C256.1 786.45 259.4 786.78 262.8 787.12 C262.8 787.78 262.8 788.44 262.8 789.12 C264.02 789.25 265.23 789.37 266.49 789.5 C269.89 789.92 272.65 790.72 275.8 792.12 C280.13 793.7 284.44 794.75 288.94 795.66 C290.8 796.12 290.8 796.12 291.8 797.12 C294.47 797.27 297.12 797.17 299.8 797.12 C299.8 797.78 299.8 798.44 299.8 799.12 C300.4 799.23 301.01 799.34 301.63 799.45 C308.79 800.81 315.62 802.81 322.56 805 C327.33 806.48 331.85 807.51 336.8 808.12 C338.15 808.76 339.48 809.42 340.8 810.12 C346.05 811.94 350.32 812.32 355.8 812.12 C355.8 812.78 355.8 813.44 355.8 814.12 C359.1 814.45 362.4 814.78 365.8 815.12 C365.8 815.78 365.8 816.44 365.8 817.12 C369.1 817.45 372.4 817.78 375.8 818.12 C375.8 818.78 375.8 819.44 375.8 820.12 C378.77 820.12 381.74 820.12 384.8 820.12 C384.8 820.78 384.8 821.44 384.8 822.12 C385.44 822.26 386.08 822.39 386.73 822.53 C387.56 822.7 388.39 822.88 389.24 823.06 C390.06 823.24 390.88 823.41 391.73 823.59 C393.8 824.12 393.8 824.12 394.8 825.12 C399.72 826.45 404.76 827.35 409.8 828.12 C411.51 825.14 412.05 823 412.05 819.57 C412.05 818.65 412.06 817.74 412.06 816.79 C412.05 815.28 412.05 815.28 412.04 813.75 C412.05 812.14 412.05 812.14 412.05 810.49 C412.06 806.87 412.05 803.24 412.04 799.61 C412.04 797 412.04 794.38 412.04 791.77 C412.05 786.07 412.05 780.37 412.04 774.67 C412.03 766.19 412.02 757.72 412.03 749.24 C412.03 734.99 412.02 720.73 412.01 706.47 C412 692.35 411.99 678.23 411.99 664.11 C411.99 663.24 411.99 662.36 411.99 661.46 C411.99 657 411.99 652.54 411.99 648.09 C411.98 616.52 411.97 584.95 411.95 553.38 C411.93 522.7 411.92 492.03 411.91 461.35 C411.91 459.93 411.91 459.93 411.91 458.49 C411.91 448.99 411.9 439.5 411.9 430.01 C411.9 410.67 411.89 391.34 411.88 372 C411.88 371.11 411.88 370.22 411.88 369.31 C411.86 309.91 411.83 250.52 411.8 191.12 C399.3 190.97 386.8 190.82 374.3 190.68 C368.5 190.62 362.69 190.55 356.89 190.48 C351.29 190.41 345.7 190.34 340.1 190.28 C337.96 190.26 335.82 190.23 333.68 190.2 C330.7 190.17 327.71 190.13 324.72 190.1 C323.83 190.09 322.94 190.08 322.02 190.06 C318.1 189.63 318.1 189.63 314.8 191.12 Z M483.8 191.12 C482.68 194.47 482.67 196.96 482.68 200.49 C482.67 201.14 482.67 201.79 482.67 202.47 C482.67 204.66 482.67 206.86 482.68 209.06 C482.68 210.65 482.68 212.24 482.68 213.82 C482.67 218.19 482.68 222.57 482.68 226.94 C482.69 231.65 482.69 236.36 482.68 241.07 C482.68 249.23 482.69 257.39 482.69 265.56 C482.7 277.36 482.7 289.16 482.71 300.97 C482.71 320.12 482.71 339.26 482.72 358.41 C482.73 377.02 482.74 395.62 482.74 414.23 C482.74 415.37 482.74 416.52 482.74 417.7 C482.75 423.45 482.75 429.2 482.75 434.95 C482.76 482.67 482.78 530.4 482.8 578.12 C486.94 579.5 490.39 578.81 494.67 578.31 C495.48 578.23 496.28 578.15 497.11 578.06 C503.99 577.47 503.99 577.47 509.8 574.12 C512.74 574.09 515.68 574.19 518.62 574.28 C522.04 574.11 524.59 573.27 527.8 572.12 C535.19 570.66 542.63 569.88 550.14 569.47 C552.81 569.24 552.81 569.24 555.19 568.13 C558.52 566.84 561.55 566.7 565.11 566.5 C566.99 566.39 566.99 566.39 568.91 566.27 C569.86 566.22 570.82 566.17 571.8 566.12 C571.8 565.46 571.8 564.8 571.8 564.12 C573.27 564.18 573.27 564.18 574.76 564.23 C581.56 564.37 587.42 564.38 593.8 561.78 C596.05 561.04 597.82 560.99 600.17 561.06 C603.9 561.47 603.9 561.47 606.8 559.12 C609.39 558.82 611.89 558.62 614.49 558.5 C615.19 558.46 615.89 558.42 616.61 558.38 C618.34 558.29 620.07 558.21 621.8 558.12 C621.8 557.46 621.8 556.8 621.8 556.12 C622.87 556.14 623.94 556.15 625.04 556.16 C626.44 556.17 627.84 556.18 629.24 556.19 C629.94 556.2 630.65 556.2 631.38 556.21 C633.19 556.22 634.99 556.18 636.8 556.12 C637.13 555.79 637.46 555.46 637.8 555.12 C639.31 554.89 640.84 554.71 642.36 554.56 C643.6 554.44 643.6 554.44 644.87 554.31 C645.5 554.25 646.14 554.19 646.8 554.12 C646.35 556.4 645.89 558.67 645.42 560.94 C645.17 562.2 644.91 563.47 644.65 564.77 C643.8 568.12 643.8 568.12 641.8 571.12 C642.79 571.45 643.78 571.78 644.8 572.12 C644.66 573.6 644.51 575.08 644.36 576.56 C644.28 577.39 644.2 578.21 644.12 579.06 C643.8 581.12 643.8 581.12 642.8 582.12 C642.52 584.29 642.31 586.45 642.12 588.62 C642.06 589.29 642 589.95 641.93 590.63 C641.81 592.06 641.68 593.48 641.56 594.9 C641.23 598.6 640.89 602.3 640.56 605.99 C640.46 607.07 640.46 607.07 640.36 608.18 C639.89 613.21 639.37 618.23 638.74 623.25 C638.17 627.76 637.69 632.25 637.3 636.78 C637.18 638.26 637.18 638.26 637.05 639.78 C636.89 641.7 636.73 643.63 636.58 645.55 C636.16 650.67 635.22 655.17 633.8 660.12 C633.46 662.93 633.34 665.74 633.24 668.56 C633 674.14 632.55 679.59 631.8 685.12 C630.92 685.29 630.92 685.29 630.03 685.46 C623.22 686.77 616.51 688.39 609.8 690.12 C609.8 690.78 609.8 691.44 609.8 692.12 C608.6 692.08 607.41 692.04 606.17 692 C602.34 691.87 599.41 692.85 595.8 694.12 C592.12 695.18 588.44 696.2 584.75 697.22 C581.94 697.83 581.94 697.83 580.8 699.12 C579.77 699.27 578.74 699.41 577.67 699.56 C573.87 700.11 570.48 701.04 566.8 702.12 C562.8 703.15 558.8 704.14 554.8 705.12 C554.8 705.78 554.8 706.44 554.8 707.12 C551.5 707.45 548.2 707.78 544.8 708.12 C544.8 708.78 544.8 709.44 544.8 710.12 C542.85 710.31 542.85 710.31 540.86 710.5 C532.78 710.97 532.78 710.97 525.8 714.12 C521.72 715.08 517.62 715.95 513.52 716.82 C507.81 718.06 502.99 719.41 497.8 722.12 C495.52 722.71 493.23 723.19 490.92 723.66 C488.03 724.29 484.94 724.98 482.8 727.12 C482.7 730.19 482.66 733.23 482.67 736.29 C482.67 737.26 482.67 738.22 482.66 739.21 C482.66 742.41 482.66 745.61 482.67 748.81 C482.67 751.02 482.66 753.23 482.66 755.45 C482.66 760.09 482.66 764.74 482.67 769.39 C482.67 775.35 482.67 781.32 482.66 787.29 C482.66 791.86 482.66 796.43 482.67 801.01 C482.67 803.21 482.66 805.41 482.66 807.61 C482.66 810.68 482.66 813.75 482.67 816.83 C482.67 817.74 482.67 818.66 482.66 819.6 C482.54 824 482.54 824 483.8 828.12 C485.28 827.98 486.76 827.84 488.24 827.69 C489.06 827.61 489.88 827.52 490.73 827.44 C492.79 827.33 492.79 827.33 493.8 826.12 C494.93 825.98 496.07 825.84 497.24 825.69 C500.84 825.48 500.84 825.48 502.8 823.12 C504.76 822.86 506.73 822.61 508.7 822.41 C511.54 822.02 514.11 821.06 516.8 820.12 C517.79 820.12 518.78 820.12 519.8 820.12 C519.8 819.46 519.8 818.8 519.8 818.12 C523.1 817.79 526.4 817.46 529.8 817.12 C529.8 816.46 529.8 815.8 529.8 815.12 C530.47 815.08 531.15 815.03 531.85 814.98 C532.74 814.9 533.63 814.83 534.55 814.75 C535.43 814.68 536.31 814.61 537.22 814.54 C539.79 814.26 539.79 814.26 541.88 813.09 C543.8 812.12 543.8 812.12 547.8 812.12 C547.8 811.46 547.8 810.8 547.8 810.12 C548.87 810.17 549.94 810.21 551.05 810.25 C554.69 810.13 555.75 809.74 558.8 808.12 C559.97 807.96 561.15 807.79 562.36 807.62 C565.91 807.36 565.91 807.36 568.8 805.12 C571.12 804.73 573.46 804.39 575.8 804.12 C575.8 803.46 575.8 802.8 575.8 802.12 C577.82 802.16 579.84 802.19 581.85 802.22 C583.88 802.25 583.88 802.25 585.8 801.12 C585.8 800.46 585.8 799.8 585.8 799.12 C588.44 799.12 591.08 799.12 593.8 799.12 C593.8 798.79 593.8 798.46 593.8 798.12 C595.75 797.97 595.75 797.97 597.74 797.81 C603.37 797.2 608.72 795.66 613.8 793.12 C613.8 792.46 613.8 791.8 613.8 791.12 C616.44 791.12 619.08 791.12 621.8 791.12 C621.8 790.46 621.8 789.8 621.8 789.12 C625.1 789.12 628.4 789.12 631.8 789.12 C631.8 788.46 631.8 787.8 631.8 787.12 C632.43 787.08 633.05 787.03 633.7 786.98 C634.51 786.9 635.33 786.83 636.17 786.75 C636.99 786.68 637.8 786.61 638.63 786.54 C641 786.3 641 786.3 642.8 784.12 C643.69 784.14 644.57 784.17 645.49 784.19 C649.5 784.11 652.15 782.74 655.8 781.12 C657.12 781.12 658.44 781.12 659.8 781.12 C659.8 780.13 659.8 779.14 659.8 778.12 C660.73 778.33 661.66 778.54 662.61 778.75 C665.95 779.49 665.95 779.49 668.8 777.12 C671.06 776.71 671.06 776.71 673.49 776.5 C674.29 776.42 675.1 776.35 675.94 776.27 C676.55 776.22 677.17 776.17 677.8 776.12 C677.8 775.79 677.8 775.46 677.8 775.12 C680.77 774.79 683.74 774.46 686.8 774.12 C686.8 773.46 686.8 772.8 686.8 772.12 C687.41 772.08 688.03 772.03 688.66 771.98 C689.47 771.9 690.28 771.83 691.11 771.75 C691.91 771.68 692.71 771.61 693.54 771.54 C696.07 771.23 696.07 771.23 698.8 769.12 C699.97 768.96 701.15 768.79 702.36 768.62 C705.86 768.47 705.86 768.47 707.8 766.12 C710.13 766.12 712.47 766.12 714.8 766.12 C717.09 764.29 717.09 764.29 716.92 761.5 C716.88 760.72 716.84 759.93 716.8 759.12 C717.46 759.12 718.12 759.12 718.8 759.12 C718.82 758.39 718.85 757.65 718.87 756.89 C718.99 753.55 719.11 750.21 719.24 746.87 C719.28 745.72 719.32 744.56 719.36 743.36 C719.4 742.25 719.44 741.13 719.48 739.98 C719.54 738.44 719.54 738.44 719.59 736.87 C719.77 734.46 720.2 732.45 720.8 730.12 C721 728.22 721.16 726.31 721.3 724.41 C721.38 723.31 721.46 722.21 721.55 721.08 C721.63 719.94 721.71 718.8 721.8 717.62 C721.96 715.36 722.13 713.1 722.3 710.84 C722.37 709.84 722.44 708.84 722.52 707.81 C722.76 705.47 723.23 703.39 723.8 701.12 C723.79 698.45 723.75 695.79 723.67 693.12 C723.59 687.97 723.72 683.51 725.3 678.56 C728.21 668.88 727.04 658.13 726.8 648.12 C727.46 648.12 728.12 648.12 728.8 648.12 C729.13 639.21 729.46 630.3 729.8 621.12 C730.13 621.12 730.46 621.12 730.8 621.12 C730.86 620.34 730.92 619.55 730.98 618.74 C731.16 616.45 731.34 614.16 731.51 611.87 C731.7 609.4 731.88 606.94 732.05 604.47 C732.13 603.33 732.22 602.18 732.3 601 C732.37 599.94 732.44 598.89 732.52 597.8 C732.8 595.12 732.8 595.12 733.8 592.12 C734.01 590.08 734.17 588.04 734.3 585.99 C734.38 584.77 734.46 583.55 734.55 582.3 C734.63 581.02 734.71 579.75 734.8 578.44 C735.73 564.28 735.73 564.28 736.37 559.67 C736.8 556.08 736.83 552.68 736.74 549.06 C736.69 543.87 737.11 539.99 738.8 535.12 C739.8 529.6 739.92 524.27 739.86 518.69 C739.85 517.45 739.85 517.45 739.85 516.18 C739.84 514.16 739.82 512.14 739.8 510.12 C740.46 510.12 741.12 510.12 741.8 510.12 C741.79 509.47 741.78 508.81 741.76 508.13 C741.67 498.77 742.22 489.47 742.8 480.12 C743.13 480.12 743.46 480.12 743.8 480.12 C743.85 479.29 743.9 478.45 743.95 477.59 C744.45 469.79 745.27 462.13 746.4 454.4 C746.97 449.7 746.85 445.74 745.8 441.12 C743.85 441.34 743.85 441.34 741.86 441.56 C741.13 441.64 740.4 441.72 739.65 441.81 C737.79 441.94 737.79 441.94 736.8 443.12 C734.49 443.33 732.18 443.49 729.86 443.62 C725.17 443.73 725.17 443.73 720.8 445.12 C718.6 445.39 716.39 445.61 714.18 445.81 C712.84 445.93 711.5 446.06 710.15 446.18 C708.04 446.37 705.92 446.56 703.81 446.75 C701.77 446.93 699.72 447.12 697.68 447.31 C696.46 447.42 695.24 447.53 693.98 447.64 C691.01 448.09 689.41 448.8 686.8 450.12 C684.41 450.6 682.01 451 679.6 451.34 C678.9 451.45 678.2 451.55 677.48 451.65 C675.21 451.99 672.94 452.31 670.67 452.62 C669.13 452.85 667.58 453.07 666.03 453.29 C655.64 454.78 645.25 456.13 634.8 457.12 C634.8 457.78 634.8 458.44 634.8 459.12 C633.88 459.11 632.97 459.1 632.03 459.09 C630.84 459.08 629.65 459.07 628.42 459.06 C626.65 459.04 626.65 459.04 624.84 459.03 C621.88 458.91 621.88 458.91 619.8 460.12 C616.17 460.44 612.53 460.64 608.89 460.84 C605.93 460.78 605.93 460.78 604.8 462.12 C602.25 462.42 599.7 462.57 597.15 462.75 C592.66 463.25 588.23 464.24 583.8 465.12 C583.47 407.37 583.14 349.62 582.8 290.12 C640.22 290.12 697.64 290.12 756.8 290.12 C757.13 289.46 757.46 288.8 757.8 288.12 C758.13 288.12 758.46 288.12 758.8 288.12 C759.58 281.07 760.06 274.02 760.42 266.93 C760.71 264.05 761.13 261.62 761.82 258.84 C763.05 253.61 763.06 248.54 762.99 243.19 C762.99 242.24 762.99 241.3 762.98 240.33 C763.13 235.57 763.13 235.57 761.8 231.12 C762.79 231.12 763.78 231.12 764.8 231.12 C764.8 222.54 764.8 213.96 764.8 205.12 C765.46 205.12 766.12 205.12 766.8 205.12 C766.8 200.5 766.8 195.88 766.8 191.12 C673.41 191.12 580.02 191.12 483.8 191.12 Z " fill="#E4BD05" transform="translate(192.201130092144,249.8758015036583)"/>
<path d="M0 0 C1.24 -0 2.47 -0.01 3.75 -0.01 C5.13 -0.01 6.51 -0.01 7.89 -0.01 C9.35 -0.01 10.81 -0.01 12.27 -0.01 C16.29 -0.02 20.31 -0.02 24.33 -0.02 C28.66 -0.02 33 -0.02 37.33 -0.03 C45.82 -0.04 54.32 -0.04 62.81 -0.04 C69.71 -0.04 76.61 -0.04 83.51 -0.04 C103.07 -0.05 122.62 -0.06 142.17 -0.06 C143.22 -0.06 144.28 -0.06 145.37 -0.06 C146.95 -0.06 146.95 -0.06 148.56 -0.06 C165.69 -0.06 182.81 -0.07 199.93 -0.08 C217.49 -0.09 235.06 -0.1 252.62 -0.1 C262.49 -0.1 272.36 -0.1 282.22 -0.11 C290.62 -0.12 299.02 -0.12 307.42 -0.12 C311.71 -0.11 316 -0.11 320.29 -0.12 C324.21 -0.13 328.13 -0.13 332.05 -0.12 C333.48 -0.12 334.9 -0.12 336.32 -0.13 C338.25 -0.13 340.17 -0.13 342.1 -0.12 C343.17 -0.12 344.25 -0.12 345.35 -0.12 C348.15 0.13 349.79 0.57 352.11 2.13 C353.45 5.95 353.05 9.44 352.63 13.41 C352.5 14.65 352.37 15.89 352.24 17.17 C352.17 17.82 352.09 18.48 352.02 19.15 C351.64 22.65 351.29 26.16 350.94 29.66 C350.87 30.37 350.79 31.09 350.72 31.82 C350.05 38.6 349.56 45.39 349.11 52.19 C348.39 63.08 347.4 73.93 346.25 84.78 C345.35 93.38 344.61 101.99 343.9 110.6 C343.31 117.78 342.7 124.96 342.07 132.13 C341.98 133.16 341.89 134.19 341.8 135.25 C341.51 138.54 341.22 141.83 340.93 145.13 C340.49 150.1 340.05 155.07 339.61 160.04 C339.53 161.02 339.53 161.02 339.44 162.03 C338.46 173.12 337.5 184.21 336.54 195.29 C336.07 200.7 335.6 206.11 335.13 211.52 C334.74 215.96 334.35 220.39 333.97 224.83 C333.61 229.05 333.24 233.27 332.87 237.49 C332.74 239.04 332.6 240.59 332.47 242.15 C331.7 251.04 330.82 259.92 329.82 268.79 C329.15 274.69 328.6 280.6 328.15 286.52 C327.99 288.53 327.83 290.54 327.67 292.55 C327.59 293.58 327.51 294.6 327.43 295.65 C326.27 310.3 325.1 324.94 323.61 339.57 C322.26 352.93 321.22 366.3 320.18 379.69 C318.87 396.45 317.4 413.17 315.51 429.87 C314.45 439.25 313.67 448.63 312.97 458.03 C312.22 468.01 311.37 477.97 310.49 487.94 C310.42 488.77 310.35 489.6 310.27 490.46 C309.82 495.63 309.36 500.79 308.91 505.96 C308.3 512.83 307.7 519.7 307.09 526.57 C306.94 528.27 306.79 529.97 306.64 531.67 C305.64 543.01 304.66 554.36 303.7 565.71 C302.69 577.55 301.65 589.38 300.52 601.21 C299.13 615.79 297.82 630.37 296.56 644.96 C296.49 645.74 296.42 646.52 296.35 647.32 C295.68 655.17 295 663.03 294.33 670.88 C294.07 673.84 293.82 676.8 293.56 679.76 C293.44 681.14 293.33 682.53 293.21 683.92 C293.05 685.84 292.88 687.76 292.71 689.68 C292.58 691.3 292.58 691.3 292.43 692.96 C292.09 696.36 291.61 699.74 291.11 703.13 C290.96 704.98 290.83 706.83 290.72 708.68 C290.65 709.75 290.59 710.82 290.52 711.92 C290.45 713.08 290.37 714.25 290.3 715.44 C289.18 732.79 287.48 750.08 285.77 767.38 C285.25 772.62 284.78 777.87 284.37 783.13 C283.98 786.21 283.28 787.89 281.11 790.13 C275.24 792.55 269.23 794.34 263.11 796.07 C262.28 796.31 261.45 796.54 260.59 796.79 C255.31 798.29 250 799.67 244.66 800.98 C235.16 803.33 225.73 805.95 216.3 808.57 C212.92 809.5 209.54 810.44 206.16 811.37 C205.31 811.61 204.47 811.84 203.61 812.08 C198.09 813.6 192.56 815.07 187.02 816.51 C179.42 818.49 171.85 820.57 164.29 822.69 C163.16 823 162.04 823.32 160.88 823.64 C156.23 824.94 151.59 826.24 146.95 827.54 C133.85 831.22 120.74 834.78 107.53 838.03 C99.44 840.03 91.42 842.19 83.41 844.45 C79.56 845.54 75.72 846.61 71.87 847.69 C71.11 847.9 70.35 848.11 69.57 848.33 C63.1 850.14 56.61 851.89 50.11 853.63 C39.28 856.52 28.48 859.5 17.68 862.5 C16.87 862.73 16.07 862.95 15.24 863.18 C12.95 863.82 10.66 864.45 8.37 865.09 C7.68 865.28 6.99 865.47 6.28 865.67 C3.53 866.43 0.82 867.23 -1.89 868.13 C-4.65 868.41 -7.08 868.31 -9.89 868.13 C-12.2 864.66 -12.14 863.34 -12.14 859.25 C-12.14 858.01 -12.15 856.77 -12.15 855.49 C-12.15 854.11 -12.15 852.72 -12.14 851.34 C-12.14 849.87 -12.15 848.4 -12.15 846.93 C-12.16 842.87 -12.16 838.8 -12.15 834.74 C-12.15 830.33 -12.15 825.92 -12.16 821.5 C-12.17 813.76 -12.17 806.02 -12.17 798.28 C-12.16 786.77 -12.17 775.26 -12.17 763.75 C-12.19 742 -12.19 720.25 -12.19 698.5 C-12.19 681.71 -12.19 664.91 -12.19 648.12 C-12.19 645.71 -12.19 643.3 -12.19 640.9 C-12.2 637.26 -12.2 633.63 -12.2 630 C-12.21 596.24 -12.21 562.47 -12.21 528.7 C-12.21 527.43 -12.21 526.15 -12.21 524.84 C-12.2 518.38 -12.2 511.92 -12.2 505.47 C-12.2 504.18 -12.2 502.9 -12.2 501.58 C-12.2 498.99 -12.2 496.39 -12.2 493.8 C-12.2 453.43 -12.2 413.06 -12.22 372.7 C-12.24 327.38 -12.25 282.07 -12.25 236.75 C-12.25 231.92 -12.25 227.1 -12.25 222.27 C-12.25 221.08 -12.25 219.89 -12.25 218.67 C-12.25 200.69 -12.25 182.71 -12.26 164.73 C-12.28 144.29 -12.28 123.85 -12.27 103.42 C-12.26 91.97 -12.26 80.52 -12.27 69.07 C-12.28 61.44 -12.28 53.8 -12.27 46.17 C-12.26 41.81 -12.26 37.45 -12.27 33.09 C-12.28 29.13 -12.28 25.17 -12.27 21.22 C-12.26 19.79 -12.27 18.36 -12.27 16.93 C-12.28 15 -12.27 13.07 -12.26 11.14 C-12.26 10.06 -12.26 8.99 -12.26 7.89 C-11.83 4.74 -11.11 3.38 -8.89 1.13 C-5.67 0.06 -3.38 0 0 0 Z M24.11 111.13 C23 114.47 22.99 116.97 22.99 120.49 C22.99 121.15 22.99 121.8 22.99 122.47 C22.98 124.67 22.99 126.87 22.99 129.07 C22.99 130.65 22.99 132.24 22.99 133.83 C22.99 138.2 22.99 142.57 23 146.94 C23 151.65 23 156.36 23 161.07 C23 169.23 23 177.4 23.01 185.56 C23.02 197.36 23.02 209.17 23.02 220.97 C23.02 240.12 23.03 259.27 23.04 278.42 C23.05 297.02 23.05 315.63 23.06 334.23 C23.06 335.38 23.06 336.52 23.06 337.7 C23.06 343.45 23.06 349.2 23.06 354.95 C23.07 402.68 23.09 450.4 23.11 498.13 C27.25 499.51 30.71 498.82 34.99 498.32 C35.79 498.23 36.59 498.15 37.42 498.06 C44.3 497.47 44.3 497.47 50.11 494.13 C53.06 494.1 55.99 494.2 58.94 494.29 C62.35 494.12 64.9 493.27 68.11 492.13 C75.5 490.66 82.94 489.89 90.46 489.47 C93.13 489.24 93.13 489.24 95.5 488.14 C98.84 486.85 101.86 486.7 105.43 486.5 C107.31 486.39 107.31 486.39 109.23 486.28 C110.18 486.23 111.13 486.18 112.11 486.13 C112.11 485.47 112.11 484.81 112.11 484.13 C113.58 484.18 113.58 484.18 115.08 484.23 C121.88 484.37 127.73 484.38 134.12 481.79 C136.36 481.05 138.14 480.99 140.49 481.07 C144.21 481.47 144.21 481.47 147.11 479.13 C149.7 478.83 152.2 478.62 154.8 478.5 C155.5 478.46 156.2 478.43 156.93 478.39 C158.66 478.29 160.38 478.21 162.11 478.13 C162.11 477.47 162.11 476.81 162.11 476.13 C163.18 476.14 164.26 476.15 165.36 476.16 C166.76 476.17 168.15 476.18 169.55 476.19 C170.26 476.2 170.97 476.21 171.69 476.22 C173.5 476.23 175.31 476.18 177.11 476.13 C177.44 475.8 177.77 475.47 178.11 475.13 C179.63 474.9 181.15 474.72 182.68 474.57 C183.92 474.44 183.92 474.44 185.18 474.31 C185.82 474.25 186.46 474.19 187.11 474.13 C186.66 476.4 186.2 478.67 185.74 480.94 C185.48 482.21 185.23 483.47 184.97 484.77 C184.11 488.13 184.11 488.13 182.11 491.13 C183.1 491.46 184.09 491.79 185.11 492.13 C184.97 493.61 184.83 495.09 184.68 496.57 C184.59 497.39 184.51 498.21 184.43 499.06 C184.11 501.13 184.11 501.13 183.11 502.13 C182.84 504.29 182.62 506.46 182.43 508.63 C182.37 509.29 182.31 509.95 182.25 510.64 C182.12 512.06 181.99 513.48 181.87 514.91 C181.55 518.6 181.21 522.3 180.87 526 C180.77 527.08 180.77 527.08 180.67 528.18 C180.21 533.22 179.68 538.24 179.05 543.25 C178.49 547.76 178 552.26 177.62 556.78 C177.49 558.27 177.49 558.27 177.36 559.78 C177.2 561.71 177.05 563.63 176.9 565.56 C176.47 570.68 175.54 575.18 174.11 580.13 C173.78 582.94 173.66 585.74 173.55 588.57 C173.31 594.14 172.87 599.6 172.11 605.13 C171.24 605.29 171.24 605.29 170.35 605.46 C163.54 606.78 156.83 608.4 150.11 610.13 C150.11 610.79 150.11 611.45 150.11 612.13 C148.92 612.09 147.72 612.05 146.49 612 C142.65 611.87 139.72 612.86 136.11 614.13 C132.44 615.18 128.75 616.21 125.06 617.23 C122.25 617.83 122.25 617.83 121.11 619.13 C120.08 619.27 119.05 619.42 117.99 619.57 C114.19 620.12 110.79 621.04 107.11 622.13 C103.12 623.15 99.12 624.14 95.11 625.13 C95.11 625.79 95.11 626.45 95.11 627.13 C91.81 627.46 88.51 627.79 85.11 628.13 C85.11 628.79 85.11 629.45 85.11 630.13 C83.16 630.31 83.16 630.31 81.18 630.5 C73.1 630.97 73.1 630.97 66.11 634.13 C62.03 635.08 57.94 635.95 53.84 636.82 C48.13 638.07 43.31 639.41 38.11 642.13 C35.83 642.72 33.54 643.19 31.23 643.66 C28.35 644.3 25.25 644.99 23.11 647.13 C23.01 650.19 22.98 653.23 22.98 656.3 C22.98 657.26 22.98 658.22 22.98 659.22 C22.97 662.41 22.98 665.61 22.98 668.81 C22.98 671.03 22.98 673.24 22.98 675.45 C22.98 680.1 22.98 684.75 22.98 689.39 C22.99 695.36 22.99 701.33 22.98 707.29 C22.98 711.87 22.98 716.44 22.98 721.01 C22.98 723.21 22.98 725.41 22.98 727.61 C22.97 730.69 22.98 733.76 22.98 736.83 C22.98 737.75 22.98 738.66 22.98 739.61 C22.85 744.01 22.85 744.01 24.11 748.13 C25.59 747.99 27.07 747.84 28.55 747.69 C29.37 747.61 30.2 747.53 31.05 747.45 C33.1 747.34 33.1 747.34 34.11 746.13 C35.25 745.98 36.38 745.84 37.55 745.69 C41.15 745.48 41.15 745.48 43.11 743.13 C45.08 742.87 47.04 742.61 49.02 742.41 C51.85 742.03 54.42 741.07 57.11 740.13 C58.1 740.13 59.09 740.13 60.11 740.13 C60.11 739.47 60.11 738.81 60.11 738.13 C63.41 737.8 66.71 737.47 70.11 737.13 C70.11 736.47 70.11 735.81 70.11 735.13 C70.79 735.08 71.46 735.03 72.16 734.98 C73.05 734.91 73.94 734.83 74.86 734.75 C75.75 734.68 76.63 734.61 77.54 734.54 C80.11 734.26 80.11 734.26 82.19 733.09 C84.11 732.13 84.11 732.13 88.11 732.13 C88.11 731.47 88.11 730.81 88.11 730.13 C89.19 730.17 90.26 730.21 91.36 730.25 C95 730.13 96.07 729.75 99.11 728.13 C100.29 727.96 101.46 727.8 102.68 727.63 C106.23 727.36 106.23 727.36 109.11 725.13 C111.44 724.73 113.77 724.39 116.11 724.13 C116.11 723.47 116.11 722.81 116.11 722.13 C118.13 722.16 120.15 722.19 122.17 722.23 C124.2 722.26 124.2 722.26 126.11 721.13 C126.11 720.47 126.11 719.81 126.11 719.13 C128.75 719.13 131.39 719.13 134.11 719.13 C134.11 718.8 134.11 718.47 134.11 718.13 C136.06 717.97 136.06 717.97 138.05 717.82 C143.69 717.2 149.03 715.67 154.11 713.13 C154.11 712.47 154.11 711.81 154.11 711.13 C156.75 711.13 159.39 711.13 162.11 711.13 C162.11 710.47 162.11 709.81 162.11 709.13 C165.41 709.13 168.71 709.13 172.11 709.13 C172.11 708.47 172.11 707.81 172.11 707.13 C172.74 707.08 173.37 707.03 174.01 706.98 C174.83 706.91 175.65 706.83 176.49 706.75 C177.3 706.68 178.11 706.61 178.95 706.54 C181.32 706.3 181.32 706.3 183.11 704.13 C184 704.15 184.89 704.17 185.8 704.19 C189.82 704.12 192.47 702.75 196.11 701.13 C197.43 701.13 198.75 701.13 200.11 701.13 C200.11 700.14 200.11 699.15 200.11 698.13 C201.04 698.33 201.97 698.54 202.93 698.75 C206.27 699.5 206.27 699.5 209.11 697.13 C211.38 696.71 211.38 696.71 213.8 696.5 C214.61 696.43 215.42 696.35 216.25 696.28 C216.87 696.23 217.48 696.18 218.11 696.13 C218.11 695.8 218.11 695.47 218.11 695.13 C221.08 694.8 224.05 694.47 227.11 694.13 C227.11 693.47 227.11 692.81 227.11 692.13 C227.73 692.08 228.34 692.03 228.98 691.98 C229.79 691.91 230.59 691.83 231.43 691.75 C232.23 691.68 233.03 691.61 233.85 691.54 C236.39 691.23 236.39 691.23 239.11 689.13 C240.29 688.96 241.46 688.8 242.68 688.63 C246.17 688.47 246.17 688.47 248.11 686.13 C250.45 686.13 252.78 686.13 255.11 686.13 C257.4 684.29 257.4 684.29 257.24 681.5 C257.2 680.72 257.16 679.94 257.11 679.13 C257.77 679.13 258.43 679.13 259.11 679.13 C259.14 678.39 259.16 677.66 259.19 676.9 C259.31 673.56 259.43 670.22 259.55 666.88 C259.59 665.72 259.63 664.56 259.67 663.37 C259.71 662.25 259.75 661.14 259.8 659.99 C259.85 658.45 259.85 658.45 259.91 656.88 C260.09 654.47 260.52 652.45 261.11 650.13 C261.31 648.23 261.48 646.32 261.61 644.41 C261.7 643.31 261.78 642.22 261.86 641.09 C261.95 639.94 262.03 638.8 262.11 637.63 C262.28 635.37 262.44 633.11 262.61 630.85 C262.69 629.85 262.76 628.85 262.83 627.81 C263.08 625.48 263.55 623.4 264.11 621.13 C264.11 618.46 264.06 615.8 263.99 613.13 C263.91 607.98 264.03 603.52 265.61 598.57 C268.52 588.89 267.35 578.13 267.11 568.13 C267.77 568.13 268.43 568.13 269.11 568.13 C269.44 559.22 269.77 550.31 270.11 541.13 C270.44 541.13 270.77 541.13 271.11 541.13 C271.17 540.34 271.23 539.55 271.3 538.74 C271.47 536.45 271.65 534.16 271.83 531.87 C272.02 529.41 272.2 526.94 272.37 524.48 C272.45 523.33 272.53 522.18 272.61 521 C272.69 519.95 272.76 518.89 272.83 517.81 C273.11 515.13 273.11 515.13 274.11 512.13 C274.32 510.09 274.48 508.04 274.61 505.99 C274.7 504.77 274.78 503.56 274.86 502.3 C274.95 501.03 275.03 499.75 275.11 498.44 C276.04 484.28 276.04 484.28 276.68 479.68 C277.12 476.08 277.14 472.68 277.05 469.07 C277.01 463.88 277.43 459.99 279.11 455.13 C280.12 449.61 280.23 444.28 280.18 438.69 C280.17 437.45 280.17 437.45 280.16 436.19 C280.15 434.17 280.13 432.15 280.11 430.13 C280.77 430.13 281.43 430.13 282.11 430.13 C282.1 429.47 282.09 428.81 282.08 428.14 C281.99 418.77 282.53 409.47 283.11 400.13 C283.44 400.13 283.77 400.13 284.11 400.13 C284.16 399.29 284.21 398.46 284.26 397.59 C284.76 389.79 285.58 382.14 286.71 374.41 C287.29 369.7 287.17 365.75 286.11 361.13 C284.16 361.35 284.16 361.35 282.18 361.57 C281.45 361.65 280.71 361.73 279.96 361.81 C278.1 361.95 278.1 361.95 277.11 363.13 C274.8 363.34 272.49 363.5 270.18 363.63 C265.48 363.74 265.48 363.74 261.11 365.13 C258.91 365.4 256.71 365.62 254.5 365.81 C253.15 365.94 251.81 366.06 250.47 366.19 C248.35 366.38 246.24 366.57 244.12 366.75 C242.08 366.93 240.04 367.12 238 367.31 C236.77 367.42 235.55 367.53 234.29 367.64 C231.32 368.1 229.73 368.8 227.11 370.13 C224.73 370.6 222.33 371 219.92 371.35 C219.22 371.45 218.52 371.55 217.79 371.66 C215.53 371.99 213.26 372.31 210.99 372.63 C209.44 372.85 207.89 373.07 206.34 373.3 C195.96 374.78 185.56 376.13 175.11 377.13 C175.11 377.79 175.11 378.45 175.11 379.13 C174.2 379.12 173.28 379.11 172.34 379.09 C171.15 379.08 169.96 379.08 168.74 379.07 C166.96 379.05 166.96 379.05 165.15 379.03 C162.19 378.91 162.19 378.91 160.11 380.13 C156.48 380.45 152.85 380.64 149.2 380.85 C146.24 380.78 146.24 380.78 145.11 382.13 C142.57 382.42 140.02 382.58 137.46 382.75 C132.97 383.26 128.55 384.24 124.11 385.13 C123.78 327.38 123.45 269.63 123.11 210.13 C180.53 210.13 237.95 210.13 297.11 210.13 C297.44 209.47 297.77 208.81 298.11 208.13 C298.44 208.13 298.77 208.13 299.11 208.13 C299.89 201.07 300.38 194.03 300.73 186.94 C301.02 184.05 301.44 181.62 302.14 178.85 C303.37 173.61 303.37 168.54 303.3 163.19 C303.3 162.25 303.3 161.3 303.3 160.33 C303.44 155.57 303.44 155.57 302.11 151.13 C303.1 151.13 304.09 151.13 305.11 151.13 C305.11 142.55 305.11 133.97 305.11 125.13 C305.77 125.13 306.43 125.13 307.11 125.13 C307.11 120.51 307.11 115.89 307.11 111.13 C213.72 111.13 120.33 111.13 24.11 111.13 Z " fill="#FAD708" transform="translate(651.8865194320679,329.8713655471802)"/>
<path d="M0 0 C53.46 0 106.92 0 162 0 C163.14 2.27 163.13 3.53 163.13 6.05 C163.13 6.89 163.14 7.72 163.14 8.58 C163.14 9.93 163.14 9.93 163.13 11.31 C163.13 12.24 163.13 13.16 163.14 14.11 C163.14 16.07 163.13 18.03 163.13 19.99 C163.13 22.99 163.13 25.99 163.14 28.99 C163.14 30.89 163.13 32.79 163.13 34.69 C163.13 35.59 163.14 36.49 163.14 37.42 C163.13 38.67 163.13 38.67 163.13 39.95 C163.13 40.68 163.13 41.42 163.13 42.18 C163 44 163 44 162 46 C105.57 46.49 105.57 46.49 48 47 C48 52.28 48 57.56 48 63 C50.12 63.01 50.12 63.01 52.28 63.02 C65.55 63.07 78.82 63.15 92.1 63.24 C98.92 63.28 105.75 63.32 112.57 63.35 C119.15 63.37 125.73 63.41 132.31 63.46 C134.83 63.48 137.35 63.49 139.86 63.5 C143.37 63.51 146.89 63.54 150.4 63.57 C151.45 63.57 152.5 63.56 153.58 63.56 C154.53 63.58 155.49 63.59 156.47 63.6 C157.72 63.61 157.72 63.61 158.99 63.62 C159.65 63.74 160.32 63.87 161 64 C163.06 67.09 163.25 67.72 163.25 71.21 C163.26 72.5 163.26 72.5 163.27 73.81 C163.26 75.22 163.26 75.22 163.26 76.66 C163.26 78.14 163.26 78.14 163.27 79.66 C163.28 82.94 163.27 86.22 163.27 89.5 C163.27 91.78 163.27 94.05 163.27 96.33 C163.27 101.1 163.27 105.87 163.26 110.64 C163.25 116.76 163.26 122.89 163.27 129.01 C163.28 133.71 163.27 138.41 163.27 143.11 C163.27 145.37 163.27 147.63 163.27 149.88 C163.28 153.04 163.27 156.19 163.26 159.34 C163.26 160.28 163.27 161.22 163.27 162.19 C163.27 163.05 163.26 163.9 163.25 164.79 C163.25 165.91 163.25 165.91 163.25 167.05 C163 169 163 169 161 172 C158.26 172.37 158.26 172.37 154.69 172.36 C154.03 172.36 153.38 172.37 152.7 172.37 C150.5 172.37 148.29 172.36 146.09 172.34 C144.51 172.34 142.93 172.34 141.36 172.34 C137.07 172.34 132.78 172.33 128.49 172.3 C124.01 172.29 119.53 172.28 115.05 172.28 C106.57 172.27 98.08 172.25 89.59 172.22 C79.94 172.18 70.28 172.17 60.62 172.15 C40.75 172.12 20.87 172.07 1 172 C0.08 169.23 -0.13 167.58 -0.13 164.73 C-0.13 163.87 -0.14 163.01 -0.14 162.13 C-0.14 161.21 -0.13 160.29 -0.13 159.34 C-0.13 158.39 -0.13 157.44 -0.14 156.46 C-0.14 154.46 -0.13 152.46 -0.13 150.46 C-0.13 147.38 -0.13 144.3 -0.14 141.23 C-0.14 139.28 -0.13 137.34 -0.13 135.4 C-0.13 134.47 -0.14 133.55 -0.14 132.59 C-0.14 131.74 -0.13 130.89 -0.13 130.01 C-0.13 129.26 -0.13 128.51 -0.13 127.73 C0 126 0 126 1 125 C2.48 124.9 3.96 124.88 5.45 124.88 C6.41 124.88 7.37 124.88 8.36 124.88 C9.42 124.88 10.48 124.88 11.58 124.89 C13.25 124.89 13.25 124.89 14.95 124.89 C18.64 124.89 22.34 124.89 26.04 124.9 C28.59 124.9 31.14 124.91 33.7 124.91 C39.75 124.91 45.8 124.92 51.85 124.93 C58.73 124.94 65.62 124.94 72.5 124.95 C86.67 124.96 100.83 124.98 115 125 C115 118.4 115 111.8 115 105 C113.68 105.33 112.36 105.66 111 106 C109.48 106.09 107.96 106.13 106.44 106.13 C105.07 106.13 105.07 106.13 103.68 106.14 C102.2 106.13 102.2 106.13 100.68 106.13 C99.11 106.13 99.11 106.13 97.5 106.13 C94.03 106.14 90.56 106.14 87.09 106.13 C84.68 106.13 82.27 106.13 79.86 106.14 C74.82 106.14 69.77 106.14 64.72 106.13 C58.24 106.12 51.76 106.13 45.28 106.13 C40.31 106.14 35.34 106.14 30.36 106.13 C27.98 106.13 25.59 106.13 23.2 106.14 C19.86 106.14 16.53 106.13 13.19 106.13 C12.2 106.13 11.21 106.13 10.18 106.14 C8.82 106.13 8.82 106.13 7.43 106.13 C6.65 106.13 5.86 106.13 5.04 106.13 C3 106 3 106 0 105 C0 70.35 0 35.7 0 0 Z " fill="#000100" transform="translate(634,0)"/>
<path d="M0 0 C15.51 0 31.02 0 47 0 C47.05 22.13 47.08 44.26 47.1 66.39 C47.11 76.67 47.13 86.94 47.15 97.22 C47.17 106.17 47.18 115.12 47.19 124.08 C47.19 128.82 47.2 133.56 47.21 138.31 C47.22 142.77 47.23 147.23 47.23 151.69 C47.23 153.33 47.23 154.97 47.24 156.61 C47.25 158.84 47.25 161.07 47.24 163.31 C47.24 164.56 47.24 165.81 47.25 167.1 C47 170 47 170 45 172 C42.9 172.25 42.9 172.25 40.26 172.25 C39.25 172.25 38.25 172.26 37.22 172.26 C36.12 172.25 35.02 172.25 33.88 172.24 C32.14 172.25 32.14 172.25 30.37 172.25 C26.53 172.25 22.69 172.24 18.84 172.23 C16.18 172.23 13.52 172.23 10.86 172.23 C5.28 172.23 -0.3 172.22 -5.88 172.21 C-12.34 172.19 -18.8 172.18 -25.26 172.19 C-31.47 172.19 -37.67 172.18 -43.88 172.17 C-46.52 172.17 -49.17 172.17 -51.81 172.17 C-55.5 172.16 -59.19 172.16 -62.88 172.15 C-64.53 172.15 -64.53 172.15 -66.22 172.15 C-67.72 172.14 -67.72 172.14 -69.26 172.13 C-70.13 172.13 -71 172.13 -71.9 172.13 C-74 172 -74 172 -76 171 C-76 155.82 -76 140.64 -76 125 C-70.67 124.94 -65.34 124.88 -59.85 124.82 C-56.48 124.78 -53.11 124.74 -49.74 124.69 C-44.39 124.63 -39.04 124.56 -33.69 124.5 C-29.38 124.46 -25.07 124.4 -20.76 124.35 C-19.11 124.33 -17.46 124.31 -15.81 124.29 C-13.51 124.27 -11.21 124.24 -8.91 124.21 C-7.59 124.19 -6.28 124.17 -4.93 124.16 C-2.11 124.33 -2.11 124.33 -1 123 C-0.89 121.41 -0.85 119.81 -0.84 118.21 C-0.83 117.17 -0.82 116.14 -0.81 115.07 C-0.81 113.92 -0.8 112.78 -0.79 111.6 C-0.78 110.4 -0.77 109.2 -0.76 107.96 C-0.74 104.66 -0.72 101.36 -0.7 98.06 C-0.67 94.62 -0.65 91.17 -0.62 87.73 C-0.57 81.2 -0.53 74.67 -0.48 68.15 C-0.43 60.72 -0.38 53.29 -0.32 45.86 C-0.21 30.57 -0.1 15.29 0 0 Z " fill="#000100" transform="translate(565,0)"/>
<path d="M0 0 C0.33 0 0.66 0 1 0 C1 2.31 1 4.62 1 7 C0.67 7 0.34 7 0 7 C0 4.69 0 2.38 0 0 Z " fill="#000100" transform="translate(1016,1166)"/>
<path d="M0 0 C0.33 0 0.66 0 1 0 C1 1.98 1 3.96 1 6 C0.67 6 0.34 6 0 6 C0 4.02 0 2.04 0 0 Z " fill="#000100" transform="translate(1052,752)"/>
<path d="M0 0 C0.33 0 0.66 0 1 0 C1 1.65 1 3.3 1 5 C0.67 5 0.34 5 0 5 C0 3.35 0 1.7 0 0 Z " fill="#000100" transform="translate(1075,486)"/>
<path d="M0 0 C1 4 1 4 1 4 Z " fill="#FBD809" transform="translate(928,787)"/>
<path d="M0 0 C1 4 1 4 1 4 Z " fill="#FBD809" transform="translate(949,532)"/>
<path d="" fill="#FBD809" transform="translate(0,0)"/>
<path d="M0 0 C0.33 0.66 0.66 1.32 1 2 C0.34 1.67 -0.32 1.34 -1 1 C-0.67 0.67 -0.34 0.34 0 0 Z " fill="#E5BE06" transform="translate(836,819)"/>
<path d="" fill="#E5BE06" transform="translate(0,0)"/>
<path d="M0 0 C2 1 2 1 2 1 Z " fill="#FBD809" transform="translate(832,1033)"/>
<path d="M0 0 C2 1 2 1 2 1 Z " fill="#FBD809" transform="translate(857,1026)"/>
<path d="" fill="#FBD809" transform="translate(0,0)"/>
<path d="" fill="#E5BE06" transform="translate(0,0)"/>
<path d="M0 0 C2 1 2 1 2 1 Z " fill="#FBD809" transform="translate(689,825)"/>
<path d="M0 0 C2 1 2 1 2 1 Z " fill="#FBD809" transform="translate(730,818)"/>
<path d="" fill="#E5BE06" transform="translate(0,0)"/>
<path d="M0 0 C2 1 2 1 2 1 Z " fill="#000100" transform="translate(786,714)"/>
<path d="" fill="#E5BE06" transform="translate(0,0)"/>
<path d="" fill="#FBD809" transform="translate(0,0)"/>
<path d="" fill="#E5BE06" transform="translate(0,0)"/>
<path d="" fill="#E5BE06" transform="translate(0,0)"/>
<path d="" fill="#000100" transform="translate(0,0)"/>
<path d="" fill="#000100" transform="translate(0,0)"/>
<path d="" fill="#000100" transform="translate(0,0)"/>
<path d="" fill="#000100" transform="translate(0,0)"/>
<path d="" fill="#FBD809" transform="translate(0,0)"/>
<path d="" fill="#FBD809" transform="translate(0,0)"/>
<path d="" fill="#FBD809" transform="translate(0,0)"/>
<path d="" fill="#FBD809" transform="translate(0,0)"/>
<path d="" fill="#E5BE06" transform="translate(0,0)"/>
<path d="" fill="#FBD809" transform="translate(0,0)"/>
<path d="" fill="#E5BE06" transform="translate(0,0)"/>
<path d="" fill="#E5BE06" transform="translate(0,0)"/>
<path d="" fill="#FBD809" transform="translate(0,0)"/>
<path d="" fill="#FBD809" transform="translate(0,0)"/>
<path d="" fill="#E5BE06" transform="translate(0,0)"/>
<path d="" fill="#FBD809" transform="translate(0,0)"/>
<path d="" fill="#FBD809" transform="translate(0,0)"/>
<path d="" fill="#FBD809" transform="translate(0,0)"/>
<path d="" fill="#FBD809" transform="translate(0,0)"/>
<path d="" fill="#FBD809" transform="translate(0,0)"/>
<path d="" fill="#FBD809" transform="translate(0,0)"/>
<path d="" fill="#E5BE06" transform="translate(0,0)"/>
<path d="" fill="#E5BE06" transform="translate(0,0)"/>
<path d="" fill="#FBD809" transform="translate(0,0)"/>
<path d="" fill="#E5BE06" transform="translate(0,0)"/>
<path d="" fill="#E5BE06" transform="translate(0,0)"/>
<path d="" fill="#E5BE06" transform="translate(0,0)"/>
<path d="" fill="#FBD809" transform="translate(0,0)"/>
<path d="" fill="#FBD809" transform="translate(0,0)"/>
<path d="" fill="#FBD809" transform="translate(0,0)"/>
<path d="" fill="#E5BE06" transform="translate(0,0)"/>
<path d="" fill="#E5BE06" transform="translate(0,0)"/>
<path d="" fill="#E5BE06" transform="translate(0,0)"/>
</svg>
