<?xml version="1.0" encoding="UTF-8"?>
<!-- Generator: visioncortex VTracer 0.6.3 -->
<svg version="1.1" xmlns="http://www.w3.org/2000/svg" width="1280" height="1274">
<path d="M0 0 C1.7 -0 3.41 -0.01 5.11 -0.02 C9.77 -0.03 14.43 -0.02 19.08 -0.01 C24.16 -0.01 29.24 -0.02 34.31 -0.03 C43.2 -0.04 52.09 -0.05 60.98 -0.04 C74.2 -0.03 87.42 -0.05 100.64 -0.06 C124.94 -0.08 149.24 -0.09 173.54 -0.09 C176.98 -0.09 180.42 -0.09 183.86 -0.09 C184.55 -0.09 185.23 -0.09 185.93 -0.09 C201.1 -0.08 216.26 -0.09 231.42 -0.1 C234.88 -0.1 238.34 -0.1 241.81 -0.1 C243.2 -0.1 244.59 -0.1 245.98 -0.1 C246.67 -0.1 247.36 -0.1 248.07 -0.1 C249.46 -0.1 250.86 -0.1 252.25 -0.1 C291.8 -0.12 331.34 -0.13 370.89 -0.12 C371.98 -0.12 371.98 -0.12 373.1 -0.12 C381.27 -0.12 389.43 -0.12 397.59 -0.12 C399.82 -0.12 402.06 -0.12 404.29 -0.12 C405.78 -0.12 407.27 -0.12 408.76 -0.12 C455.89 -0.11 503.01 -0.13 550.13 -0.16 C562 -0.17 573.88 -0.18 585.75 -0.18 C586.85 -0.18 586.85 -0.18 587.97 -0.18 C610.51 -0.2 633.05 -0.21 655.6 -0.21 C656.31 -0.21 657.01 -0.21 657.74 -0.21 C673.29 -0.21 688.84 -0.21 704.38 -0.21 C709.94 -0.21 715.51 -0.21 721.07 -0.21 C722.45 -0.21 723.84 -0.21 725.22 -0.21 C747.24 -0.21 769.27 -0.22 791.29 -0.24 C814.1 -0.26 836.9 -0.26 859.71 -0.24 C872.85 -0.23 885.99 -0.24 899.13 -0.26 C907.91 -0.27 916.7 -0.27 925.48 -0.25 C930.48 -0.24 935.48 -0.24 940.48 -0.26 C978.79 -0.4 978.79 -0.4 995.72 5.38 C996.51 5.64 997.3 5.9 998.11 6.17 C1024.32 14.77 1046.94 29.31 1066.72 48.38 C1067.55 49.15 1068.37 49.91 1069.22 50.7 C1079.87 60.81 1088.45 72.74 1095.85 85.38 C1096.29 86.15 1096.74 86.91 1097.21 87.7 C1100.07 92.76 1102.09 97.81 1103.72 103.38 C1103.24 103 1102.76 102.63 1102.27 102.24 C1086.04 89.56 1071.46 83.58 1050.78 85.81 C1046.5 86.39 1042.24 87.1 1037.97 87.82 C1036.31 88.09 1034.64 88.36 1032.98 88.63 C1028.39 89.37 1023.8 90.14 1019.21 90.9 C1015.22 91.56 1011.24 92.21 1007.25 92.86 C993.38 95.13 979.51 97.43 965.65 99.73 C961.61 100.4 957.58 101.07 953.54 101.74 C917.27 107.75 881.01 113.79 844.76 119.86 C841.71 120.37 838.67 120.88 835.63 121.39 C834.51 121.57 834.51 121.57 833.37 121.77 C821.01 123.83 808.65 125.9 796.29 127.95 C785.66 129.72 775.03 131.5 764.41 133.27 C758.29 134.3 752.18 135.32 746.06 136.33 C740.42 137.27 734.79 138.21 729.15 139.16 C727.12 139.5 725.09 139.84 723.06 140.17 C713.75 141.71 704.49 143.32 695.3 145.47 C694.29 145.7 694.29 145.7 693.26 145.94 C683.59 148.28 671.92 151.83 666.28 160.64 C663.76 165.95 663.24 170.18 664.79 175.85 C668.8 186.75 676.21 195.8 683.03 205.07 C685.64 208.64 688.18 212.26 690.72 215.88 C694.82 221.71 698.97 227.5 703.16 233.26 C707.66 239.46 712.04 245.73 716.35 252.07 C720.61 258.35 724.97 264.52 729.49 270.62 C733.91 276.59 738.14 282.67 742.39 288.77 C746.29 294.37 750.26 299.92 754.28 305.45 C758.7 311.52 763 317.67 767.22 323.88 C772 330.93 776.91 337.86 781.91 344.75 C785.57 349.79 789.2 354.85 792.78 359.95 C793.27 360.64 793.77 361.34 794.27 362.06 C796.25 364.87 798.23 367.68 800.2 370.49 C801.69 372.6 803.17 374.71 804.66 376.82 C805.15 377.52 805.64 378.22 806.15 378.94 C809.78 384.08 813.46 389.17 817.16 394.26 C822.18 401.18 827.04 408.2 831.84 415.27 C836.09 421.51 840.48 427.65 844.91 433.75 C850.09 440.88 855.17 448.07 860.24 455.27 C862.73 458.81 865.22 462.35 867.72 465.88 C868.72 467.3 869.72 468.72 870.72 470.13 C871.22 470.83 871.71 471.54 872.22 472.26 C876.72 478.63 876.72 478.63 878.22 480.76 C879.22 482.18 880.22 483.59 881.22 485.01 C883.71 488.54 886.2 492.07 888.69 495.6 C889.68 497.01 890.67 498.41 891.66 499.82 C892.39 500.85 892.39 500.85 893.13 501.91 C895.82 505.73 898.55 509.53 901.29 513.31 C902.18 514.54 902.18 514.54 903.09 515.78 C904.23 517.36 905.38 518.93 906.53 520.5 C907.05 521.21 907.57 521.92 908.1 522.65 C908.56 523.28 909.02 523.9 909.49 524.55 C910.75 526.43 911.73 528.35 912.72 530.38 C904.53 533.32 896.16 535.29 887.7 537.29 C886.07 537.67 884.43 538.06 882.79 538.45 C879.24 539.3 875.68 540.14 872.13 540.98 C866.35 542.35 860.57 543.72 854.79 545.1 C852.76 545.58 850.72 546.06 848.69 546.55 C847.67 546.79 846.64 547.03 845.58 547.29 C842.38 548.05 839.18 548.81 835.98 549.57 C812.21 555.21 788.46 560.9 764.71 566.59 C752.2 569.59 739.69 572.58 727.18 575.57 C725.96 575.87 724.74 576.16 723.48 576.46 C699.96 582.09 676.43 587.71 652.91 593.32 C651.58 593.64 651.58 593.64 650.23 593.96 C639.69 596.47 629.16 598.99 618.62 601.5 C602.32 605.39 586.02 609.27 569.73 613.16 C566.97 613.82 564.22 614.48 561.46 615.13 C541.12 619.99 520.77 624.85 500.43 629.72 C499.5 629.94 498.57 630.16 497.62 630.39 C492.91 631.51 488.19 632.64 483.48 633.77 C482.54 633.99 481.6 634.22 480.63 634.45 C478.73 634.91 476.83 635.36 474.93 635.82 C451.65 641.39 428.37 646.95 405.09 652.48 C404.01 652.74 402.93 653 401.82 653.26 C393.02 655.36 384.22 657.45 375.43 659.54 C335.71 668.99 296 678.5 256.31 688.04 C248.81 689.85 241.31 691.64 233.81 693.44 C228.33 694.76 222.84 696.08 217.36 697.4 C213.8 698.26 210.25 699.11 206.69 699.97 C205.03 700.36 203.37 700.76 201.71 701.17 C199.45 701.72 197.18 702.26 194.91 702.8 C193 703.26 193 703.26 191.05 703.73 C188.12 704.3 185.68 704.7 182.72 704.38 C179.4 701.01 177.16 696.95 174.77 692.88 C174.4 692.25 174.03 691.63 173.65 690.98 C172.86 689.63 172.06 688.28 171.27 686.93 C169.14 683.31 167 679.69 164.87 676.07 C164.43 675.33 164 674.6 163.55 673.84 C159.5 666.98 155.37 660.18 151.22 653.38 C144.74 642.75 138.36 632.06 132.01 621.34 C126.47 611.99 120.88 602.67 115.22 593.38 C108.74 582.75 102.36 572.06 96.01 561.34 C90.47 551.99 84.88 542.67 79.22 533.38 C72.74 522.75 66.36 512.06 60.01 501.34 C54.47 491.99 48.88 482.67 43.22 473.38 C36.74 462.75 30.36 452.06 24.01 441.34 C18.47 431.99 12.88 422.67 7.22 413.38 C0.74 402.75 -5.64 392.06 -11.99 381.34 C-17.53 371.99 -23.12 362.67 -28.78 353.38 C-35.26 342.75 -41.64 332.06 -47.99 321.34 C-53.53 311.99 -59.12 302.67 -64.78 293.38 C-71.26 282.75 -77.64 272.06 -83.99 261.34 C-89.53 251.99 -95.12 242.67 -100.78 233.38 C-107.26 222.75 -113.64 212.07 -119.98 201.35 C-125.3 192.37 -130.66 183.43 -136.09 174.52 C-137.14 172.78 -138.2 171.04 -139.25 169.3 C-142.54 163.86 -145.86 158.44 -149.26 153.07 C-150.48 151.11 -151.69 149.15 -152.9 147.2 C-153.47 146.33 -154.03 145.46 -154.61 144.57 C-157.57 139.75 -158.99 136.4 -157.91 130.76 C-156.66 126.06 -155.28 121.43 -153.72 116.82 C-153.36 115.77 -153 114.71 -152.64 113.62 C-149.56 104.77 -145.81 96.57 -141.28 88.38 C-140.64 87.17 -139.99 85.96 -139.35 84.75 C-132.63 72.32 -123.97 61.63 -114.28 51.38 C-113.42 50.45 -112.57 49.52 -111.68 48.55 C-99.91 36.04 -85.49 26.26 -70.28 18.38 C-69.65 18.06 -69.02 17.73 -68.37 17.39 C-60.03 13.11 -51.53 9.58 -42.65 6.57 C-41.84 6.29 -41.04 6.01 -40.2 5.73 C-26.75 1.34 -14.03 -0.06 0 0 Z " fill="#FA513C" transform="translate(160.2794895172119,-0.38311004638671875)"/>
<path d="M0 0 C1.69 1.24 1.69 1.24 3 2.98 C3.49 3.62 3.99 4.27 4.5 4.93 C4.99 5.61 5.49 6.3 6 7 C6.49 7.65 6.98 8.3 7.48 8.98 C9.03 11.07 10.55 13.19 12.06 15.31 C13.21 16.91 14.36 18.51 15.5 20.11 C16.08 20.92 16.66 21.74 17.26 22.57 C20 26.39 22.75 30.2 25.5 34 C28.74 38.49 31.98 42.97 35.21 47.46 C41.35 55.98 47.53 64.45 53.77 72.89 C57.71 78.24 61.62 83.61 65.5 89 C72.26 98.39 79.12 107.7 86 117 C92.88 126.3 99.74 135.61 106.5 145 C110.99 151.23 115.51 157.44 120.06 163.62 C120.58 164.33 121.1 165.03 121.63 165.75 C122.15 166.47 122.68 167.18 123.22 167.91 C123.75 168.65 124.28 169.39 124.83 170.15 C126.47 172.31 128.13 174.27 129.95 176.27 C139.41 187.1 140.7 195.58 140.36 209.63 C140.36 211.66 140.36 213.68 140.37 215.7 C140.37 221.14 140.3 226.58 140.22 232.02 C140.14 237.72 140.13 243.42 140.12 249.13 C140.08 259.9 139.98 270.68 139.86 281.46 C139.73 293.73 139.66 306.01 139.6 318.29 C139.48 343.53 139.27 368.76 139 394 C137.78 394.4 137.78 394.4 136.54 394.82 C90.66 410.03 90.66 410.03 44.88 425.53 C44.09 425.8 43.31 426.07 42.51 426.34 C40.94 426.88 39.37 427.42 37.8 427.96 C37.03 428.22 36.26 428.49 35.46 428.76 C34.7 429.02 33.94 429.28 33.15 429.55 C23.28 432.94 13.39 436.26 3.5 439.59 C2.55 439.91 1.6 440.23 0.62 440.56 C-4.25 442.2 -9.11 443.84 -13.98 445.47 C-24.39 448.98 -34.81 452.48 -45.23 455.99 C-46.26 456.34 -47.29 456.69 -48.36 457.05 C-66.7 463.22 -85.04 469.42 -103.38 475.62 C-104.68 476.07 -105.99 476.51 -107.29 476.95 C-114.93 479.54 -122.58 482.13 -130.22 484.72 C-141.88 488.67 -153.53 492.62 -165.19 496.56 C-166.17 496.89 -166.17 496.89 -167.17 497.23 C-191.24 505.38 -215.32 513.51 -239.4 521.62 C-285.18 537.05 -330.95 552.51 -376.68 568.1 C-387.02 571.63 -397.35 575.14 -407.7 578.64 C-411.2 579.82 -414.71 581.01 -418.21 582.2 C-420.51 582.98 -422.81 583.76 -425.11 584.53 C-440.7 589.79 -440.7 589.79 -456.18 595.36 C-456.85 595.6 -457.51 595.85 -458.19 596.1 C-461.06 597.16 -463.93 598.24 -466.78 599.36 C-474.38 602.22 -482.27 603.75 -490.06 600.62 C-504.22 592.33 -512.82 575.61 -521 562 C-521.73 560.79 -522.46 559.58 -523.2 558.36 C-529.14 548.51 -534.96 538.59 -540.76 528.66 C-545.32 520.84 -549.95 513.06 -554.62 505.31 C-560.37 495.78 -565.98 486.17 -571.52 476.51 C-575.43 469.71 -579.38 462.94 -583.38 456.19 C-588.39 447.72 -593.39 439.24 -598.38 430.75 C-598.74 430.14 -599.1 429.52 -599.47 428.89 C-605.16 419.18 -610.79 409.43 -616.41 399.67 C-620.88 391.91 -625.42 384.2 -630 376.5 C-635.91 366.56 -641.73 356.58 -647.49 346.56 C-651.66 339.32 -655.85 332.09 -660.06 324.88 C-660.64 323.89 -661.21 322.91 -661.8 321.89 C-663.54 318.93 -665.27 315.96 -667 313 C-674.84 299.59 -682.64 286.17 -690.39 272.71 C-694.57 265.46 -698.78 258.23 -703 251 C-708.49 241.6 -713.94 232.18 -719.37 222.75 C-724.36 214.09 -729.39 205.45 -734.43 196.83 C-735.49 195.02 -736.54 193.21 -737.6 191.4 C-738.48 189.88 -739.39 188.37 -740.31 186.88 C-741.28 185.3 -742.15 183.65 -743 182 C-742.67 181.01 -742.34 180.02 -742 179 C-740.06 178.18 -740.06 178.18 -737.46 177.54 C-736.46 177.29 -735.47 177.04 -734.45 176.78 C-733.35 176.52 -732.24 176.25 -731.1 175.98 C-729.93 175.69 -728.77 175.4 -727.56 175.1 C-724.29 174.29 -721.01 173.49 -717.73 172.7 C-714.14 171.83 -710.57 170.94 -706.99 170.06 C-698.17 167.89 -689.35 165.75 -680.53 163.61 C-678.01 163 -675.49 162.39 -672.97 161.78 C-656.74 157.84 -640.51 153.91 -624.28 150 C-593.25 142.52 -562.23 134.98 -531.22 127.42 C-520.1 124.71 -508.99 122 -497.87 119.3 C-496.7 119.01 -495.54 118.73 -494.33 118.44 C-476.89 114.19 -459.45 109.95 -442 105.75 C-417.27 99.79 -392.54 93.81 -367.81 87.81 C-366.24 87.43 -366.24 87.43 -364.64 87.04 C-328.24 78.22 -291.85 69.37 -255.46 60.51 C-230.48 54.43 -205.5 48.36 -180.52 42.32 C-179.58 42.09 -178.65 41.87 -177.69 41.63 C-168.5 39.41 -159.32 37.19 -150.13 34.98 C-129.26 29.95 -108.4 24.88 -87.55 19.78 C-80.09 17.95 -72.63 16.13 -65.17 14.31 C-57.92 12.54 -50.67 10.76 -43.42 8.98 C-38.94 7.88 -34.45 6.78 -29.96 5.69 C-27.87 5.18 -25.77 4.66 -23.68 4.15 C-20.81 3.44 -17.93 2.74 -15.06 2.04 C-14.22 1.83 -13.39 1.62 -12.53 1.41 C-8.27 0.38 -4.41 -0.36 0 0 Z " fill="#FA513C" transform="translate(1138,612)"/>
<path d="M0 0 C5.11 5.75 8.48 13.37 12.06 20.12 C16.39 28.2 20.78 36.23 25.31 44.19 C30.23 52.84 35.08 61.53 39.88 70.25 C40.55 71.48 41.23 72.72 41.91 73.95 C42.25 74.56 42.59 75.17 42.93 75.8 C43.27 76.42 43.61 77.03 43.95 77.66 C44.29 78.27 44.63 78.88 44.97 79.51 C55.56 98.72 66.27 117.87 77 137 C84.21 149.86 91.41 162.73 98.56 175.62 C103.72 184.92 108.92 194.19 114.16 203.44 C118.1 210.41 122.03 217.39 125.94 224.38 C126.52 225.41 127.1 226.45 127.7 227.52 C130.66 232.81 133.62 238.1 136.57 243.4 C142.49 253.98 148.43 264.54 154.47 275.05 C158.32 281.78 162.1 288.54 165.88 295.31 C170.47 303.56 175.16 311.74 179.94 319.88 C185 328.49 189.92 337.19 194.75 345.94 C199.13 353.86 203.54 361.75 208.17 369.53 C211.86 375.74 215.46 381.99 219.06 388.25 C236.28 419.27 236.28 419.27 255.23 449.19 C257 452 257 452 257 455 C206.48 455.11 155.97 455.2 105.45 455.26 C99.48 455.26 93.5 455.27 87.53 455.27 C86.34 455.28 85.15 455.28 83.93 455.28 C64.71 455.3 45.5 455.34 26.28 455.39 C6.54 455.43 -13.2 455.46 -32.94 455.47 C-45.1 455.48 -57.27 455.5 -69.43 455.54 C-77.79 455.57 -86.16 455.57 -94.52 455.57 C-99.33 455.56 -104.14 455.57 -108.95 455.6 C-158.35 455.86 -205.09 445.19 -241.49 409.48 C-243.12 407.89 -244.77 406.33 -246.43 404.76 C-266.53 385.53 -283.73 359.63 -290.41 332.34 C-290.88 330.46 -291.41 328.59 -291.96 326.73 C-295.44 314.21 -295.54 302.14 -295.45 289.22 C-295.45 286.88 -295.45 284.53 -295.46 282.18 C-295.46 275.86 -295.43 269.54 -295.41 263.22 C-295.38 257.27 -295.38 251.31 -295.37 245.36 C-295.37 233.58 -295.34 221.81 -295.3 210.03 C-295.26 198.61 -295.24 187.18 -295.22 175.75 C-295.22 175.04 -295.22 174.34 -295.22 173.61 C-295.21 170.07 -295.21 166.52 -295.2 162.98 C-295.16 133.65 -295.09 104.33 -295 75 C-293.97 74.73 -292.94 74.47 -291.88 74.19 C-281.96 71.63 -272.05 69.07 -262.14 66.51 C-257.05 65.2 -251.96 63.88 -246.87 62.57 C-212.5 53.69 -178.13 44.77 -143.78 35.81 C-135.75 33.72 -127.72 31.63 -119.68 29.54 C-113.8 28.01 -107.92 26.48 -102.03 24.94 C-99.16 24.2 -96.29 23.45 -93.41 22.7 C-78.48 18.82 -63.55 14.9 -48.65 10.87 C-46.51 10.29 -44.37 9.71 -42.22 9.13 C-40.83 8.76 -39.44 8.38 -38.04 8 C-37.36 7.82 -36.69 7.64 -35.99 7.45 C-32.65 6.55 -29.32 5.64 -25.99 4.73 C-22.36 3.74 -18.72 2.75 -15.09 1.77 C-14.02 1.47 -12.94 1.17 -11.84 0.87 C-10.86 0.6 -9.88 0.34 -8.87 0.07 C-7.59 -0.28 -7.59 -0.28 -6.29 -0.63 C-3.82 -1.03 -2.34 -0.88 0 0 Z M-294 311 C-293 313 -293 313 -293 313 Z " fill="#FA513C" transform="translate(295,819)"/>
<path d="M0 0 C8.54 6.03 14.85 14.41 20.91 22.78 C23.59 26.41 26.39 29.95 29.17 33.51 C30.85 35.66 32.52 37.81 34.15 39.99 C36.19 42.64 36.19 42.64 38.74 44.95 C49.07 55.71 47.57 68.06 47.37 82.2 C47.36 84.9 47.36 87.61 47.37 90.31 C47.38 96.1 47.34 101.9 47.29 107.69 C47.21 116.07 47.18 124.45 47.17 132.83 C47.15 146.43 47.08 160.02 46.98 173.62 C46.89 186.82 46.82 200.02 46.78 213.22 C46.78 214.04 46.77 214.85 46.77 215.69 C46.76 219.78 46.75 223.87 46.73 227.96 C46.63 261.83 46.45 295.7 46.23 329.57 C26.99 334.96 26.99 334.96 17.89 337.21 C17 337.43 16.12 337.65 15.2 337.87 C12.36 338.58 9.51 339.28 6.66 339.99 C4.63 340.49 2.61 340.99 0.59 341.49 C-3.62 342.53 -7.83 343.57 -12.04 344.61 C-17.39 345.93 -22.74 347.26 -28.09 348.59 C-32.26 349.62 -36.43 350.65 -40.59 351.68 C-42.57 352.17 -44.54 352.66 -46.51 353.15 C-57.55 355.89 -68.58 358.48 -79.77 360.57 C-85.02 354.33 -89.99 347.99 -94.69 341.32 C-98.25 336.27 -101.91 331.29 -105.58 326.32 C-110.18 320.1 -114.75 313.86 -119.27 307.57 C-123.73 301.38 -128.23 295.21 -132.77 289.07 C-137.31 282.93 -141.81 276.77 -146.27 270.57 C-153.03 261.19 -159.89 251.88 -166.77 242.57 C-174.19 232.53 -181.58 222.48 -188.88 212.34 C-192.8 206.89 -196.78 201.48 -200.77 196.07 C-205.85 189.2 -210.88 182.28 -215.88 175.34 C-219.8 169.89 -223.78 164.48 -227.77 159.07 C-232.31 152.93 -236.81 146.77 -241.27 140.57 C-248.03 131.19 -254.89 121.88 -261.77 112.57 C-270.33 100.99 -278.85 89.38 -287.25 77.68 C-288.74 75.61 -290.24 73.54 -291.73 71.48 C-292.64 70.22 -293.55 68.96 -294.46 67.7 C-294.87 67.13 -295.28 66.57 -295.7 65.99 C-300.77 58.93 -300.77 58.93 -300.77 55.07 C-299.32 51.44 -297.12 50.51 -293.77 48.57 C-290.45 47.62 -290.45 47.62 -286.86 46.99 C-286.21 46.88 -285.56 46.76 -284.89 46.64 C-282.85 46.27 -280.81 45.92 -278.77 45.57 C-277.54 45.35 -276.3 45.13 -275.03 44.9 C-271.83 44.33 -268.62 43.77 -265.41 43.21 C-263.22 42.83 -261.02 42.45 -258.83 42.07 C-255.61 41.51 -252.39 40.95 -249.17 40.4 C-215.7 34.59 -182.26 28.66 -148.83 22.64 C-147.79 22.45 -146.74 22.26 -145.67 22.07 C-107.91 15.27 -70.18 8.34 -32.46 1.32 C-31.37 1.12 -31.37 1.12 -30.26 0.91 C-28.23 0.53 -26.21 0.16 -24.19 -0.22 C-23.06 -0.43 -21.93 -0.64 -20.77 -0.86 C-18.87 -1.22 -16.97 -1.59 -15.08 -1.98 C-9.51 -3.05 -5.05 -2.78 0 0 Z " fill="#FA513C" transform="translate(1230.76953125,151.42578125)"/>
<path d="M0 0 C2.69 3.36 4.72 6.02 6.74 9.68 C7.24 10.57 7.74 11.47 8.26 12.4 C8.79 13.36 9.33 14.32 9.88 15.31 C14.49 23.56 19.16 31.78 23.94 39.94 C24.52 40.93 25.1 41.93 25.7 42.95 C26.88 44.96 28.06 46.98 29.24 48.99 C32.14 53.95 35.04 58.91 37.94 63.88 C38.51 64.86 39.09 65.84 39.68 66.86 C44.61 75.32 49.5 83.8 54.39 92.28 C60.88 103.55 67.44 114.78 74 126 C81.84 139.41 89.64 152.83 97.39 166.29 C101.57 173.54 105.78 180.77 110 188 C114.86 196.32 119.69 204.65 124.5 213 C131.62 225.36 138.8 237.68 146 250 C153.84 263.41 161.64 276.83 169.39 290.28 C175.88 301.55 182.44 312.78 189 324 C196.83 337.4 204.64 350.82 212.39 364.27 C216.07 370.66 219.76 377.03 223.48 383.4 C224.65 385.4 225.81 387.41 226.98 389.42 C229.72 394.13 232.49 398.82 235.32 403.48 C235.84 404.34 236.35 405.2 236.89 406.08 C237.85 407.68 238.82 409.27 239.8 410.85 C242.46 415.31 244.02 418.66 243 424 C239.28 426.8 235.51 427.81 231.02 428.87 C230.33 429.04 229.64 429.2 228.92 429.37 C226.6 429.93 224.28 430.47 221.95 431.01 C220.27 431.41 218.6 431.8 216.92 432.2 C213.28 433.06 209.65 433.92 206.01 434.77 C200.18 436.14 194.35 437.52 188.52 438.9 C181.22 440.63 173.92 442.35 166.61 444.08 C151.83 447.56 137.05 451.08 122.27 454.6 C121.12 454.87 119.96 455.15 118.78 455.43 C114.14 456.54 109.5 457.64 104.86 458.75 C97.1 460.6 89.33 462.45 81.57 464.3 C80.52 464.55 79.46 464.8 78.38 465.06 C73.21 466.28 68.05 467.51 62.88 468.74 C53.83 470.89 44.78 473.05 35.73 475.23 C31.78 476.17 27.84 477.12 23.89 478.07 C22.04 478.51 20.18 478.96 18.33 479.4 C15.8 480.01 13.27 480.62 10.74 481.23 C9.99 481.41 9.24 481.59 8.48 481.78 C5.57 482.47 3 483 0 483 C0 323.61 0 164.22 0 0 Z " fill="#FA513C" transform="translate(0,304)"/>
<path d="M0 0 C-3.17 41.79 -20.26 76.79 -49 107 C-49.58 107.63 -50.16 108.27 -50.76 108.92 C-64.36 123.31 -82.17 133.77 -100 142 C-101.72 142.8 -101.72 142.8 -103.47 143.62 C-122.16 151.72 -143.92 156.35 -164.26 156.24 C-166.02 156.24 -166.02 156.24 -167.82 156.25 C-171.04 156.25 -174.27 156.24 -177.49 156.23 C-180.98 156.22 -184.46 156.23 -187.95 156.23 C-193.99 156.23 -200.02 156.22 -206.05 156.21 C-214.77 156.2 -223.49 156.19 -232.21 156.19 C-246.37 156.18 -260.52 156.17 -274.67 156.15 C-288.41 156.13 -302.15 156.12 -315.89 156.11 C-317.17 156.11 -317.17 156.11 -318.46 156.11 C-322.72 156.11 -326.97 156.1 -331.23 156.1 C-366.49 156.08 -401.74 156.04 -437 156 C-435.64 153.29 -434.43 153.25 -431.6 152.27 C-430.65 151.93 -429.7 151.6 -428.73 151.26 C-427.16 150.72 -427.16 150.72 -425.57 150.18 C-424.48 149.8 -423.4 149.42 -422.29 149.03 C-419.94 148.21 -417.6 147.4 -415.25 146.59 C-410.28 144.87 -405.3 143.13 -400.33 141.39 C-397.81 140.51 -395.28 139.63 -392.76 138.76 C-382.2 135.08 -371.66 131.34 -361.12 127.56 C-359.45 126.96 -357.77 126.36 -356.1 125.76 C-352.61 124.52 -349.13 123.27 -345.65 122.02 C-335.97 118.56 -326.29 115.1 -316.61 111.64 C-314.24 110.8 -311.87 109.95 -309.51 109.1 C-292.35 102.98 -275.19 96.86 -258.03 90.76 C-231.51 81.33 -205.01 71.85 -178.52 62.34 C-168.67 58.81 -158.83 55.28 -148.99 51.75 C-146.79 50.96 -144.59 50.17 -142.39 49.38 C-129.98 44.93 -117.57 40.49 -105.15 36.06 C-78.39 26.53 -51.66 16.91 -24.97 7.18 C-23.85 6.77 -22.73 6.37 -21.58 5.94 C-19.48 5.18 -17.39 4.42 -15.3 3.65 C-13.91 3.15 -13.91 3.15 -12.5 2.63 C-11.7 2.34 -10.9 2.05 -10.07 1.74 C-6.5 0.46 -3.79 -0.1 0 0 Z " fill="#FA513C" transform="translate(1277,1118)"/>
<path d="M0 0 C-0.66 0.33 -1.32 0.66 -2 1 C-2.33 33.34 -2.66 65.68 -3 99 C-6.19 95.81 -8.84 93.09 -11.5 89.59 C-12.13 88.75 -12.76 87.92 -13.42 87.06 C-14.42 85.73 -14.42 85.73 -15.44 84.38 C-16.14 83.44 -16.85 82.51 -17.57 81.56 C-22.67 74.8 -27.7 68 -32.7 61.17 C-37.11 55.17 -41.6 49.23 -46.12 43.31 C-47.12 42 -47.12 42 -48.14 40.66 C-51.31 36.5 -54.5 32.35 -57.71 28.22 C-58.83 26.77 -59.95 25.32 -61.06 23.88 C-61.58 23.22 -62.1 22.56 -62.64 21.88 C-63.84 20.31 -64.93 18.66 -66 17 C-65.51 15.51 -65.51 15.51 -65 14 C-62.72 13.11 -62.72 13.11 -59.67 12.37 C-58.53 12.09 -57.4 11.81 -56.22 11.53 C-54.98 11.23 -53.74 10.94 -52.46 10.64 C-51.19 10.34 -49.92 10.03 -48.61 9.72 C-45.92 9.07 -43.23 8.43 -40.53 7.79 C-37.09 6.98 -33.65 6.15 -30.21 5.32 C-26.92 4.52 -23.63 3.74 -20.34 2.96 C-19.11 2.66 -17.88 2.36 -16.61 2.06 C-10.96 0.74 -5.81 -0.4 0 0 Z " fill="#FA513C" transform="translate(1280,578)"/>
<path d="" fill="#FA513C" transform="translate(0,0)"/>
<path d="" fill="#FA513C" transform="translate(0,0)"/>
</svg>
