<?xml version="1.0" encoding="UTF-8"?>
<!DOCTYPE svg PUBLIC "-//W3C//DTD SVG 1.1//EN" "http://www.w3.org/Graphics/SVG/1.1/DTD/svg11.dtd">
<svg xmlns="http://www.w3.org/2000/svg" version="1.1" width="849px" height="829px" style="shape-rendering:geometricPrecision; text-rendering:geometricPrecision; image-rendering:optimizeQuality; fill-rule:evenodd; clip-rule:evenodd" xmlns:xlink="http://www.w3.org/1999/xlink">
<g><path style="opacity:0.929" fill="#030303" d="M 503.5,29.5 C 539.422,27.816 573.422,34.9827 605.5,51C 626.907,63.7399 644.407,80.5732 658,101.5C 662.236,119.252 663.57,137.252 662,155.5C 661.216,166.241 659.883,176.907 658,187.5C 644.991,248.312 622.491,305.146 590.5,358C 597.433,359.506 604.433,359.839 611.5,359C 623.26,357.748 634.926,355.915 646.5,353.5C 659.131,354.63 665.798,361.464 666.5,374C 662.642,395.183 651.642,411.517 633.5,423C 619.374,430.193 604.374,434.526 588.5,436C 582.814,436.311 577.147,436.811 571.5,437.5C 565.467,436.927 559.467,436.26 553.5,435.5C 552.914,435.709 552.414,436.043 552,436.5C 548.357,469.667 543.69,502.667 538,535.5C 532.942,555.876 521.442,571.376 503.5,582C 481.444,593.015 458.11,598.015 433.5,597C 407.678,594.015 389.178,580.848 378,557.5C 374.694,543.999 372.361,530.333 371,516.5C 369.37,494.507 367.87,472.507 366.5,450.5C 360.777,454.348 354.444,456.515 347.5,457C 326.742,458.262 306.409,455.929 286.5,450C 279.787,447.897 273.954,444.397 269,439.5C 249.588,457.526 229.755,458.026 209.5,441C 195.573,426.739 184.406,410.573 176,392.5C 147.971,327.037 128.638,259.037 118,188.5C 115.098,158.614 118.764,129.614 129,101.5C 142.596,71.2407 165.43,51.7407 197.5,43C 229.462,35.8689 261.462,35.8689 293.5,43C 306.051,45.9612 318.551,49.1279 331,52.5C 355.11,39.2878 380.944,34.1211 408.5,37C 419.858,37.1489 431.025,38.6489 442,41.5C 462.202,35.2756 482.702,31.2756 503.5,29.5 Z"/></g>
<g><path style="opacity:1" fill="#b4b4b4" d="M 528.5,48.5 C 514.484,48.349 500.484,48.6823 486.5,49.5C 494.441,47.9649 502.608,47.2983 511,47.5C 517.01,47.5005 522.843,47.8338 528.5,48.5 Z"/></g>
<g><path style="opacity:0.998" fill="#f9fafb" d="M 528.5,48.5 C 564.388,50.623 595.722,63.4563 622.5,87C 626.299,91.8006 630.466,96.3006 635,100.5C 642.373,110.951 646.373,122.618 647,135.5C 647.386,155.402 645.553,175.069 641.5,194.5C 640.215,197.589 639.549,200.922 639.5,204.5C 638.082,212.662 636.082,220.662 633.5,228.5C 631.057,233.5 629.39,238.834 628.5,244.5C 614.06,287.312 594.727,327.812 570.5,366C 571.751,368.303 573.751,369.636 576.5,370C 580.598,371.006 584.764,371.506 589,371.5C 599.561,371.023 610.061,370.023 620.5,368.5C 627.153,367.946 633.82,367.612 640.5,367.5C 648.269,370.031 651.103,375.365 649,383.5C 643.115,393.718 634.949,401.551 624.5,407C 599.181,420.297 572.348,424.797 544,420.5C 540.078,421.102 538.578,423.435 539.5,427.5C 537.564,436.257 536.564,445.257 536.5,454.5C 534.783,457.845 534.116,461.511 534.5,465.5C 532.02,484.525 529.354,503.525 526.5,522.5C 525.076,524.515 524.41,526.848 524.5,529.5C 519.23,549.277 507.23,563.444 488.5,572C 480.785,575.429 472.785,577.929 464.5,579.5C 461.455,579.508 458.455,579.841 455.5,580.5C 445.719,580.95 436.052,580.284 426.5,578.5C 414.223,574.401 404.723,566.735 398,555.5C 389.772,538.807 385.606,521.14 385.5,502.5C 385.238,488.325 384.572,474.325 383.5,460.5C 383.5,458.5 383.5,456.5 383.5,454.5C 383.832,445.143 383.498,435.81 382.5,426.5C 381.893,426.624 381.56,426.957 381.5,427.5C 358.863,444.275 333.863,448.775 306.5,441C 299.389,439.183 293.222,435.683 288,430.5C 281.669,422.833 282.169,415.667 289.5,409C 292.608,406.894 295.941,405.228 299.5,404C 310.769,401.956 321.769,398.956 332.5,395C 337.961,390.891 342.628,386.057 346.5,380.5C 347.404,379.791 347.737,378.791 347.5,377.5C 344.167,377.5 340.833,377.5 337.5,377.5C 335.485,376.076 333.152,375.41 330.5,375.5C 325.666,374.054 321,372.554 316.5,371C 301.588,386.574 287.422,402.741 274,419.5C 256.759,439.628 237.592,441.795 216.5,426C 209.49,418.802 203.323,410.969 198,402.5C 180.613,369.721 167.113,335.388 157.5,299.5C 157.59,296.848 156.924,294.515 155.5,292.5C 151.979,278.753 148.646,265.086 145.5,251.5C 145.58,248.219 144.913,245.219 143.5,242.5C 140.191,226.261 137.358,209.928 135,193.5C 131.706,165.649 135.039,138.649 145,112.5C 158.802,81.2053 182.636,62.872 216.5,57.5C 221.122,57.8439 225.455,57.1773 229.5,55.5C 233.653,54.8343 237.987,54.5009 242.5,54.5C 253.495,55.2771 264.495,55.9437 275.5,56.5C 277.838,58.0395 280.505,58.7062 283.5,58.5C 296.684,60.7126 309.684,63.7126 322.5,67.5C 324.515,68.9238 326.848,69.5905 329.5,69.5C 332.314,71.096 335.314,71.596 338.5,71C 358.598,58.0686 380.598,52.2353 404.5,53.5C 414.718,54.5548 425.052,55.5548 435.5,56.5C 441.978,59.3369 448.312,59.0036 454.5,55.5C 464.906,52.2333 475.572,50.2333 486.5,49.5C 500.484,48.6823 514.484,48.349 528.5,48.5 Z"/></g>
<g><path style="opacity:0.961" fill="#a8a8a8" d="M 229.5,55.5 C 225.455,57.1773 221.122,57.8439 216.5,57.5C 220.567,55.9462 224.9,55.2796 229.5,55.5 Z"/></g>
<g><path style="opacity:1" fill="#717171" d="M 275.5,56.5 C 278.428,56.5651 281.095,57.2318 283.5,58.5C 280.505,58.7062 277.838,58.0395 275.5,56.5 Z"/></g>
<g><path style="opacity:1" fill="#9b9b9b" d="M 454.5,55.5 C 448.312,59.0036 441.978,59.3369 435.5,56.5C 438.35,56.6361 441.183,56.9695 444,57.5C 447.489,56.7243 450.989,56.0577 454.5,55.5 Z"/></g>
<g><path style="opacity:1" fill="#326192" d="M 630.5,135.5 C 630.627,146.852 630.294,158.185 629.5,169.5C 618.7,234.752 595.367,295.085 559.5,350.5C 558.28,350.113 557.613,349.28 557.5,348C 567.724,328.724 571.557,308.224 569,286.5C 565.822,267.617 564.822,248.617 566,229.5C 568.231,221.316 569.398,212.983 569.5,204.5C 570.656,196.677 570.823,188.677 570,180.5C 569.434,178.277 568.6,176.277 567.5,174.5C 549.954,126.615 518.287,91.2816 472.5,68.5C 479.61,66.1245 486.944,64.6245 494.5,64C 522.485,61.666 549.485,65.666 575.5,76C 596.556,85.3836 613.723,99.5503 627,118.5C 628.953,124.006 630.12,129.672 630.5,135.5 Z"/></g>
<g><path style="opacity:1" fill="#5a5a5a" d="M 322.5,67.5 C 325.152,67.4095 327.485,68.0762 329.5,69.5C 326.848,69.5905 324.515,68.9238 322.5,67.5 Z"/></g>
<g><path style="opacity:1" fill="#6387ac" d="M 416.5,70.5 C 404.817,70.3981 393.15,70.7314 381.5,71.5C 388.27,69.9993 395.27,69.3326 402.5,69.5C 407.346,69.5008 412.012,69.8341 416.5,70.5 Z"/></g>
<g><path style="opacity:1" fill="#6f90b2" d="M 256.5,71.5 C 245.482,71.3808 234.482,71.7141 223.5,72.5C 229.936,71.0126 236.602,70.3459 243.5,70.5C 248.013,70.5009 252.347,70.8343 256.5,71.5 Z"/></g>
<g><path style="opacity:1" fill="#316192" d="M 416.5,70.5 C 460.351,75.0085 496.185,94.3418 524,128.5C 535.823,143.809 545.323,160.476 552.5,178.5C 544.231,178.552 535.897,178.719 527.5,179C 495.692,184.121 482.025,202.621 486.5,234.5C 486.734,240.545 488.067,246.212 490.5,251.5C 495.115,264.729 500.282,277.729 506,290.5C 515.24,307.31 524.24,324.31 533,341.5C 537.264,349.028 542.264,356.028 548,362.5C 548.483,363.448 548.649,364.448 548.5,365.5C 537.298,368.2 530.131,375.2 527,386.5C 524.225,416.528 521.058,446.528 517.5,476.5C 515.206,487.612 513.539,498.945 512.5,510.5C 511.085,526.935 504.419,540.768 492.5,552C 474.571,562.649 455.238,566.982 434.5,565C 424.256,561.425 416.423,554.925 411,545.5C 408.471,539.579 406.137,533.579 404,527.5C 401.825,512.911 400.492,498.244 400,483.5C 399.667,452.5 399.333,421.5 399,390.5C 394.236,373.567 383.069,365.234 365.5,365.5C 369.247,349.097 375.08,333.43 383,318.5C 395.538,280.573 395.538,242.573 383,204.5C 376.249,192.422 366.083,184.922 352.5,182C 331.992,180.752 312.825,185.252 295,195.5C 295.612,161.997 305.612,131.663 325,104.5C 338.149,88.0311 354.983,77.1977 375.5,72C 377.473,71.5045 379.473,71.3379 381.5,71.5C 393.15,70.7314 404.817,70.3981 416.5,70.5 Z"/></g>
<g><path style="opacity:1" fill="#316192" d="M 256.5,71.5 C 278.828,72.8989 300.495,77.2323 321.5,84.5C 294.669,115.289 280.336,151.289 278.5,192.5C 277.719,215.666 277.719,238.999 278.5,262.5C 277.728,266.452 277.395,270.452 277.5,274.5C 275.999,281.27 275.333,288.27 275.5,295.5C 275.284,302.08 275.951,308.413 277.5,314.5C 280.859,332.719 289.525,347.886 303.5,360C 287.167,378.333 270.833,396.667 254.5,415C 248.118,420.838 241.118,421.838 233.5,418C 223.709,410.928 215.875,402.095 210,391.5C 205.333,382.167 200.667,372.833 196,363.5C 191.926,352.444 187.76,341.444 183.5,330.5C 181.943,322.832 179.609,315.499 176.5,308.5C 166.121,272.32 157.955,235.653 152,198.5C 148.131,171.904 150.464,145.904 159,120.5C 171.792,92.8843 193.292,76.8843 223.5,72.5C 234.482,71.7141 245.482,71.3808 256.5,71.5 Z"/></g>
<g><path style="opacity:1" fill="#c2d0df" d="M 630.5,135.5 C 631.166,139.82 631.499,144.32 631.5,149C 631.661,156.064 630.994,162.897 629.5,169.5C 630.294,158.185 630.627,146.852 630.5,135.5 Z"/></g>
<g><path style="opacity:1" fill="#aec0d4" d="M 567.5,174.5 C 568.6,176.277 569.434,178.277 570,180.5C 570.823,188.677 570.656,196.677 569.5,204.5C 569.96,194.386 569.293,184.386 567.5,174.5 Z"/></g>
<g><path style="opacity:1" fill="#346293" d="M 551.5,222.5 C 549.956,229.599 549.29,236.932 549.5,244.5C 549.501,250.011 549.834,255.344 550.5,260.5C 550.673,270.55 551.506,280.55 553,290.5C 553.667,297.833 553.667,305.167 553,312.5C 551.49,318.872 549.824,325.205 548,331.5C 547.586,331.957 547.086,332.291 546.5,332.5C 535.401,311.969 524.568,291.302 514,270.5C 511.007,261.843 508.007,253.176 505,244.5C 501.929,234.701 500.929,224.701 502,214.5C 506.612,201.763 515.778,195.263 529.5,195C 537.849,194.427 546.182,194.593 554.5,195.5C 553.428,204.486 552.428,213.486 551.5,222.5 Z"/></g>
<g><path style="opacity:1" fill="#949494" d="M 641.5,194.5 C 641.678,198.122 641.011,201.456 639.5,204.5C 639.549,200.922 640.215,197.589 641.5,194.5 Z"/></g>
<g><path style="opacity:1" fill="#326192" d="M 336.5,197.5 C 344.997,196.508 352.997,198.008 360.5,202C 366.984,206.796 370.484,213.296 371,221.5C 381.479,261.25 377.145,299.25 358,335.5C 354.782,343.983 352.282,352.65 350.5,361.5C 324.168,360.224 306.001,347.224 296,322.5C 294.039,317.323 292.706,311.99 292,306.5C 293.897,275.819 294.73,245.152 294.5,214.5C 307.248,205.45 321.248,199.783 336.5,197.5 Z"/></g>
<g><path style="opacity:1" fill="#f8f9fb" d="M 521.5,202.5 C 526.959,202.103 532.292,202.603 537.5,204C 539.787,206.243 539.953,208.743 538,211.5C 530.266,220.277 522.266,220.61 514,212.5C 513.333,210.833 513.333,209.167 514,207.5C 516.479,205.686 518.979,204.019 521.5,202.5 Z"/></g>
<g><path style="opacity:1" fill="#f9fafb" d="M 338.5,206.5 C 346.995,205.326 354.828,206.992 362,211.5C 363.929,215.851 362.762,219.351 358.5,222C 346.176,228 338.176,224.5 334.5,211.5C 335.127,209.213 336.46,207.546 338.5,206.5 Z"/></g>
<g><path style="opacity:1" fill="#5f5f5f" d="M 633.5,228.5 C 632.61,234.166 630.943,239.5 628.5,244.5C 629.39,238.834 631.057,233.5 633.5,228.5 Z"/></g>
<g><path style="opacity:1" fill="#c4d1df" d="M 278.5,192.5 C 279.176,216.002 279.176,239.336 278.5,262.5C 277.719,238.999 277.719,215.666 278.5,192.5 Z"/></g>
<g><path style="opacity:1" fill="#c3d1df" d="M 551.5,222.5 C 550.707,235.15 550.374,247.817 550.5,260.5C 549.834,255.344 549.501,250.011 549.5,244.5C 549.29,236.932 549.956,229.599 551.5,222.5 Z"/></g>
<g><path style="opacity:1" fill="#85a0be" d="M 486.5,234.5 C 488.196,239.963 489.529,245.629 490.5,251.5C 488.067,246.212 486.734,240.545 486.5,234.5 Z"/></g>
<g><path style="opacity:1" fill="#626262" d="M 143.5,242.5 C 144.913,245.219 145.58,248.219 145.5,251.5C 144.087,248.781 143.42,245.781 143.5,242.5 Z"/></g>
<g><path style="opacity:1" fill="#adbfd3" d="M 277.5,274.5 C 276.218,287.837 276.218,301.171 277.5,314.5C 275.951,308.413 275.284,302.08 275.5,295.5C 275.333,288.27 275.999,281.27 277.5,274.5 Z"/></g>
<g><path style="opacity:1" fill="#595959" d="M 155.5,292.5 C 156.924,294.515 157.59,296.848 157.5,299.5C 156.076,297.485 155.41,295.152 155.5,292.5 Z"/></g>
<g><path style="opacity:1" fill="#bbcada" d="M 176.5,308.5 C 179.609,315.499 181.943,322.832 183.5,330.5C 180.391,323.501 178.057,316.168 176.5,308.5 Z"/></g>
<g><path style="opacity:1" fill="#aeaeae" d="M 640.5,367.5 C 633.82,367.612 627.153,367.946 620.5,368.5C 624.406,367.06 628.573,366.394 633,366.5C 635.69,366.503 638.19,366.836 640.5,367.5 Z"/></g>
<g><path style="opacity:1" fill="#898989" d="M 330.5,375.5 C 333.152,375.41 335.485,376.076 337.5,377.5C 334.848,377.59 332.515,376.924 330.5,375.5 Z"/></g>
<g><path style="opacity:1" fill="#838383" d="M 337.5,377.5 C 340.833,377.5 344.167,377.5 347.5,377.5C 347.737,378.791 347.404,379.791 346.5,380.5C 343.797,378.89 340.797,377.89 337.5,377.5 Z"/></g>
<g><path style="opacity:1" fill="#366494" d="M 555.5,378.5 C 562.643,382.39 570.31,385.223 578.5,387C 586.5,387.667 594.5,387.667 602.5,387C 610.871,385.848 619.204,384.848 627.5,384C 612.536,396.659 595.203,403.659 575.5,405C 567.5,405.667 559.5,405.667 551.5,405C 548.204,404.543 545.037,403.709 542,402.5C 539.541,390.405 544.041,382.405 555.5,378.5 Z"/></g>
<g><path style="opacity:1" fill="#366494" d="M 350.5,425.5 C 339.551,427.595 328.551,427.928 317.5,426.5C 311.636,426.157 306.303,424.323 301.5,421C 301.833,420.667 302.167,420.333 302.5,420C 312.777,417.13 323.111,414.463 333.5,412C 342.069,408.444 349.235,402.944 355,395.5C 358.714,389.119 363.714,384.119 370,380.5C 380.854,383.543 385.02,390.543 382.5,401.5C 374.571,413.433 363.904,421.433 350.5,425.5 Z"/></g>
<g><path style="opacity:1" fill="#bbcadb" d="M 350.5,425.5 C 349.737,426.268 348.737,426.768 347.5,427C 342.039,427.919 336.539,428.419 331,428.5C 326.228,428.692 321.728,428.025 317.5,426.5C 328.551,427.928 339.551,427.595 350.5,425.5 Z"/></g>
<g><path style="opacity:1" fill="#5a5a5a" d="M 381.5,427.5 C 381.56,426.957 381.893,426.624 382.5,426.5C 383.498,435.81 383.832,445.143 383.5,454.5C 382.833,445.5 382.167,436.5 381.5,427.5 Z"/></g>
<g><path style="opacity:1" fill="#565656" d="M 539.5,427.5 C 539.143,436.712 538.143,445.712 536.5,454.5C 536.564,445.257 537.564,436.257 539.5,427.5 Z"/></g>
<g><path style="opacity:1" fill="#8f8f8f" d="M 536.5,454.5 C 536.354,458.387 535.687,462.054 534.5,465.5C 534.116,461.511 534.783,457.845 536.5,454.5 Z"/></g>
<g><path style="opacity:1" fill="#a2a2a2" d="M 383.5,460.5 C 384.572,474.325 385.238,488.325 385.5,502.5C 383.839,488.702 383.172,474.702 383.5,460.5 Z"/></g>
<g><path style="opacity:1" fill="#aebfd3" d="M 517.5,476.5 C 516.748,488.098 515.082,499.431 512.5,510.5C 513.539,498.945 515.206,487.612 517.5,476.5 Z"/></g>
<g><path style="opacity:1" fill="#5f5f5f" d="M 526.5,522.5 C 526.59,525.152 525.924,527.485 524.5,529.5C 524.41,526.848 525.076,524.515 526.5,522.5 Z"/></g>
<g><path style="opacity:1" fill="#c3c3c3" d="M 426.5,578.5 C 436.052,580.284 445.719,580.95 455.5,580.5C 455.5,580.833 455.5,581.167 455.5,581.5C 447.826,581.666 440.159,581.5 432.5,581C 430.277,580.434 428.277,579.6 426.5,578.5 Z"/></g>
<g><path style="opacity:1" fill="#737373" d="M 464.5,579.5 C 461.727,580.657 458.727,581.324 455.5,581.5C 455.5,581.167 455.5,580.833 455.5,580.5C 458.455,579.841 461.455,579.508 464.5,579.5 Z"/></g>
<g><path style="opacity:0.845" fill="#306091" d="M 535.5,668.5 C 545.192,668.472 554.859,668.972 564.5,670C 583.314,674.972 592.314,687.139 591.5,706.5C 586.821,706.666 582.155,706.499 577.5,706C 575.819,688.661 566.152,679.994 548.5,680C 540.084,679.439 531.751,680.106 523.5,682C 511.537,689.561 508.704,699.728 515,712.5C 518.677,716.423 523.177,718.923 528.5,720C 544.138,723.826 559.805,727.493 575.5,731C 588.793,735.98 595.46,745.646 595.5,760C 595.579,771.166 591.579,780.5 583.5,788C 568.114,795.941 551.781,798.608 534.5,796C 521.312,794.987 510.146,789.82 501,780.5C 495.341,772.047 493.174,762.713 494.5,752.5C 498.846,752.334 503.179,752.501 507.5,753C 508.254,767.846 515.587,777.846 529.5,783C 544.408,787.23 558.741,785.897 572.5,779C 580.343,770.782 582.177,761.282 578,750.5C 575.188,746.338 571.355,743.505 566.5,742C 546.698,738.642 527.365,733.642 508.5,727C 498.597,717.952 495.097,706.785 498,693.5C 501.235,680.599 509.402,672.766 522.5,670C 527.019,669.825 531.353,669.325 535.5,668.5 Z"/></g>
<g><path style="opacity:0.845" fill="#306091" d="M 648.5,668.5 C 675.868,663.997 697.701,672.664 714,694.5C 725.547,718.219 726.214,742.219 716,766.5C 712.917,771.588 709.083,776.088 704.5,780C 710.342,785.011 716.009,790.177 721.5,795.5C 719.403,800.12 716.07,802.953 711.5,804C 705.741,799.043 699.907,794.209 694,789.5C 679.174,796.072 663.674,798.239 647.5,796C 613.093,789.102 595.76,767.935 595.5,732.5C 594.762,705.115 606.428,685.282 630.5,673C 636.407,670.53 642.407,669.03 648.5,668.5 Z M 653.5,679.5 C 680.981,677.522 698.814,689.522 707,715.5C 709.179,728.563 708.846,741.563 706,754.5C 694.242,779.117 674.742,788.95 647.5,784C 626.949,778.113 614.782,764.613 611,743.5C 608.606,728.296 610.94,713.962 618,700.5C 626.829,688.177 638.663,681.177 653.5,679.5 Z"/></g>
<g><path style="opacity:0.843" fill="#306091" d="M 730.5,670.5 C 734.997,669.945 739.164,670.611 743,672.5C 743.5,708.832 743.667,745.165 743.5,781.5C 768.5,781.5 793.5,781.5 818.5,781.5C 818.5,785.5 818.5,789.5 818.5,793.5C 788.833,793.5 759.167,793.5 729.5,793.5C 729.173,752.428 729.506,711.428 730.5,670.5 Z"/></g>
<g><path style="opacity:0.82" fill="#191919" d="M 29.5,685.5 C 49.8791,685.06 70.2125,685.56 90.5,687C 99.9843,690.149 105.484,696.649 107,706.5C 111.633,730.134 102.133,742.967 78.5,745C 66.1712,745.5 53.8378,745.667 41.5,745.5C 41.6666,759.504 41.4999,773.504 41,787.5C 37.27,788.46 33.4367,788.793 29.5,788.5C 29.5,754.167 29.5,719.833 29.5,685.5 Z M 41.5,695.5 C 56.2387,695.05 70.9054,695.55 85.5,697C 92.8559,700.872 96.1892,707.039 95.5,715.5C 96.2834,724.449 92.6167,730.615 84.5,734C 70.2257,735.43 55.8923,735.93 41.5,735.5C 41.5,722.167 41.5,708.833 41.5,695.5 Z"/></g>
<g><path style="opacity:0.802" fill="#191919" d="M 267.5,698.5 C 270.833,698.5 274.167,698.5 277.5,698.5C 277.5,705.833 277.5,713.167 277.5,720.5C 282.833,720.5 288.167,720.5 293.5,720.5C 293.777,723.448 293.444,726.281 292.5,729C 287.511,729.499 282.511,729.666 277.5,729.5C 277.063,745.224 277.563,760.891 279,776.5C 279.833,777.333 280.667,778.167 281.5,779C 285.167,779.333 288.833,779.667 292.5,780C 295.229,787.921 292.396,790.755 284,788.5C 275.52,789.938 270.187,786.604 268,778.5C 267.5,762.17 267.333,745.837 267.5,729.5C 263.833,729.5 260.167,729.5 256.5,729.5C 256.5,726.5 256.5,723.5 256.5,720.5C 260.167,720.5 263.833,720.5 267.5,720.5C 267.5,713.167 267.5,705.833 267.5,698.5 Z"/></g>
<g><path style="opacity:0.795" fill="#191919" d="M 140.5,717.5 C 166.489,716.31 180.156,728.643 181.5,754.5C 180.488,778.016 168.321,789.682 145,789.5C 127.841,790.933 116.508,783.6 111,767.5C 106.008,750.633 109.841,736.133 122.5,724C 128.169,720.503 134.169,718.336 140.5,717.5 Z M 138.5,727.5 C 159.387,724.232 170.053,733.065 170.5,754C 170.758,771.331 162.258,780.498 145,781.5C 128.24,780.071 119.74,770.905 119.5,754C 119.643,740.404 125.976,731.571 138.5,727.5 Z"/></g>
<g><path style="opacity:0.779" fill="#191919" d="M 212.5,717.5 C 221.881,716.841 230.881,718.341 239.5,722C 246.39,726.617 249.39,733.117 248.5,741.5C 245.167,741.5 241.833,741.5 238.5,741.5C 238.233,737.426 236.9,733.759 234.5,730.5C 223.97,725.533 213.304,725.366 202.5,730C 197.455,737.027 198.788,742.361 206.5,746C 219.329,748.026 231.996,750.693 244.5,754C 251.037,759.755 253.203,766.922 251,775.5C 248.737,782.097 244.237,786.264 237.5,788C 225.506,789.934 213.506,789.934 201.5,788C 191.469,784.465 186.469,777.298 186.5,766.5C 190.122,765.341 193.789,765.175 197.5,766C 198.278,769.147 199.111,772.313 200,775.5C 211.687,782.479 223.853,783.313 236.5,778C 241.765,772.593 241.765,767.26 236.5,762C 223.157,759.131 209.824,756.131 196.5,753C 189.286,748.037 186.786,741.203 189,732.5C 191.141,726.359 195.307,722.193 201.5,720C 205.312,719.205 208.979,718.371 212.5,717.5 Z"/></g>
<g><path style="opacity:0.78" fill="#191919" d="M 321.5,717.5 C 330.398,716.846 338.731,718.679 346.5,723C 348.709,724.873 350.542,727.04 352,729.5C 352.212,726.242 352.712,723.076 353.5,720C 356.76,719.216 359.927,719.383 363,720.5C 363.667,742.5 363.667,764.5 363,786.5C 362.423,803.187 353.923,812.687 337.5,815C 325.255,816.749 313.588,815.083 302.5,810C 297.527,805.221 294.861,799.388 294.5,792.5C 297.841,791.995 301.174,791.828 304.5,792C 305.604,799.107 309.604,803.774 316.5,806C 328.497,809.613 339.164,807.446 348.5,799.5C 352.285,792.279 353.452,784.612 352,776.5C 344.747,783.874 335.914,787.54 325.5,787.5C 303.317,786.317 291.983,774.651 291.5,752.5C 291.558,732.12 301.558,720.453 321.5,717.5 Z M 321.5,727.5 C 346.434,726.944 356.267,738.944 351,763.5C 348.215,768.619 344.382,772.786 339.5,776C 329.9,778.457 320.567,777.791 311.5,774C 305.295,768.229 302.295,761.063 302.5,752.5C 302.385,738.992 308.719,730.659 321.5,727.5 Z"/></g>
<g><path style="opacity:0.81" fill="#191919" d="M 402.5,717.5 C 405.777,717.216 408.943,717.549 412,718.5C 412.667,721.833 412.667,725.167 412,728.5C 396.457,725.444 387.457,731.777 385,747.5C 384.5,761.163 384.333,774.829 384.5,788.5C 381.167,788.5 377.833,788.5 374.5,788.5C 374.5,765.833 374.5,743.167 374.5,720.5C 377.833,720.5 381.167,720.5 384.5,720.5C 384.336,723.187 384.503,725.854 385,728.5C 388.575,721.134 394.409,717.468 402.5,717.5 Z"/></g>
<g><path style="opacity:0.787" fill="#191919" d="M 446.5,717.5 C 470.786,719.12 483.12,732.12 483.5,756.5C 463.167,756.5 442.833,756.5 422.5,756.5C 423.189,772.689 431.689,781.022 448,781.5C 459.452,781.035 467.285,775.535 471.5,765C 475.362,764.087 479.028,764.42 482.5,766C 477.249,782.906 465.749,790.739 448,789.5C 439.571,790.069 431.738,788.236 424.5,784C 422.037,780.535 419.204,777.369 416,774.5C 409.713,760.003 410.046,745.67 417,731.5C 424.807,722.344 434.64,717.678 446.5,717.5 Z M 443.5,726.5 C 460.037,725.731 469.37,733.398 471.5,749.5C 455.153,749.833 438.82,749.499 422.5,748.5C 424.128,735.875 431.128,728.541 443.5,726.5 Z"/></g>
</svg>
