<?xml version="1.0" encoding="UTF-8"?>
<!DOCTYPE svg PUBLIC "-//W3C//DTD SVG 1.1//EN" "http://www.w3.org/Graphics/SVG/1.1/DTD/svg11.dtd">
<svg xmlns="http://www.w3.org/2000/svg" version="1.1" width="500px" height="500px" style="shape-rendering:geometricPrecision; text-rendering:geometricPrecision; image-rendering:optimizeQuality; fill-rule:evenodd; clip-rule:evenodd" xmlns:xlink="http://www.w3.org/1999/xlink">
<g><path style="opacity:0.996" fill="#3778ae" d="M 214.5,-0.5 C 237.167,-0.5 259.833,-0.5 282.5,-0.5C 297.07,1.39088 311.403,4.72421 325.5,9.5C 326.007,10.8589 327.007,11.8589 328.5,12.5C 295.319,45.5143 261.986,78.3476 228.5,111C 236.25,111.151 243.25,111.651 249.5,112.5C 209.167,112.5 168.833,112.5 128.5,112.5C 128.271,92.8339 127.937,73.6672 127.5,55C 128.95,38.8674 136.617,26.534 150.5,18C 170.742,7.63677 192.075,1.47011 214.5,-0.5 Z M 175.5,39.5 C 188.646,37.8185 197.479,43.1519 202,55.5C 203.546,67.9079 198.379,76.0746 186.5,80C 171.456,81.6229 162.79,74.9562 160.5,60C 161.211,50.3992 166.211,43.5658 175.5,39.5 Z"/></g>
<g><path style="opacity:0.971" fill="#3773a6" d="M 325.5,9.5 C 338.68,13.2466 349.68,20.2466 358.5,30.5C 249.277,137.222 140.777,244.888 33,353.5C 34.1498,357.159 36.6498,359.826 40.5,361.5C 41.3857,362.325 41.719,363.325 41.5,364.5C 26.5899,354.37 16.2565,340.703 10.5,323.5C 11.7899,324.058 12.6232,325.058 13,326.5C 78.1126,261.387 143.279,196.221 208.5,131C 185.167,130.667 161.833,130.333 138.5,130C 142.025,129.821 145.359,129.321 148.5,128.5C 182.167,128.5 215.833,128.5 249.5,128.5C 249.5,123.167 249.5,117.833 249.5,112.5C 243.25,111.651 236.25,111.151 228.5,111C 261.986,78.3476 295.319,45.5143 328.5,12.5C 327.007,11.8589 326.007,10.8589 325.5,9.5 Z"/></g>
<g><path style="opacity:0.995" fill="#366c9a" d="M 358.5,30.5 C 365.584,37.3269 370.084,45.6603 372,55.5C 372.667,98.5 372.667,141.5 372,184.5C 370.392,206.348 360.059,223.015 341,234.5C 340.667,234.167 340.333,233.833 340,233.5C 331.588,237.582 322.754,240.582 313.5,242.5C 312.914,242.291 312.414,241.957 312,241.5C 266.238,242.331 220.404,242.831 174.5,243C 139.958,247.549 120.124,266.716 115,300.5C 114.667,324.5 114.333,348.5 114,372.5C 96.5738,373.658 79.0738,373.825 61.5,373C 54.2823,371.213 47.6156,368.38 41.5,364.5C 41.719,363.325 41.3857,362.325 40.5,361.5C 36.6498,359.826 34.1498,357.159 33,353.5C 140.777,244.888 249.277,137.222 358.5,30.5 Z"/></g>
<g><path style="opacity:0.987" fill="#fed849" d="M 458.5,133.5 C 435.236,158.934 411.402,183.934 387,208.5C 385.228,207.01 385.061,205.343 386.5,203.5C 386.03,202.537 385.363,202.537 384.5,203.5C 385.1,200.668 385.767,197.835 386.5,195C 386.355,194.228 386.022,193.561 385.5,193C 386.167,170.333 386.833,147.667 387.5,125C 403.833,124.333 420.167,124.333 436.5,125C 444.666,126.026 451.999,128.859 458.5,133.5 Z"/></g>
<g><path style="opacity:0.997" fill="#3778ae" d="M 148.5,128.5 C 145.359,129.321 142.025,129.821 138.5,130C 161.833,130.333 185.167,130.667 208.5,131C 143.279,196.221 78.1126,261.387 13,326.5C 12.6232,325.058 11.7899,324.058 10.5,323.5C 8.40519,319.837 6.90519,315.837 6,311.5C 3.60181,301.077 1.43514,290.743 -0.5,280.5C -0.5,259.833 -0.5,239.167 -0.5,218.5C 0.833333,218.167 0.833333,217.833 -0.5,217.5C -0.5,217.167 -0.5,216.833 -0.5,216.5C 2.35812,198.766 7.85812,181.766 16,165.5C 27.3537,145.148 44.5204,132.982 67.5,129C 94.4979,128.5 121.498,128.333 148.5,128.5 Z"/></g>
<g><path style="opacity:0.994" fill="#fed142" d="M 458.5,133.5 C 470.202,140.038 479.036,149.371 485,161.5C 491.857,175.575 496.691,189.908 499.5,204.5C 499.5,205.833 499.5,207.167 499.5,208.5C 498.778,208.082 498.278,207.416 498,206.5C 446.167,260.333 394.333,314.167 342.5,368C 368.327,368.866 393.994,369.699 419.5,370.5C 363.5,370.5 307.5,370.5 251.5,370.5C 251.5,375.5 251.5,380.5 251.5,385.5C 272.167,385.5 292.833,385.5 313.5,385.5C 332.329,386.332 351.329,386.832 370.5,387C 354.823,387.167 339.156,387.667 323.5,388.5C 289.349,424.485 255.016,460.318 220.5,496C 221.025,496.692 221.692,497.192 222.5,497.5C 224.886,496.012 225.552,496.345 224.5,498.5C 205.301,497.294 186.635,493.46 168.5,487C 161.502,483.503 154.835,479.503 148.5,475C 144.893,471.902 141.893,468.402 139.5,464.5C 140.397,463.402 141.23,463.402 142,464.5C 209.198,394.97 276.031,325.136 342.5,255C 344.957,253.438 347.624,252.438 350.5,252C 351.337,250.989 351.67,249.822 351.5,248.5C 369.546,238.77 380.546,223.77 384.5,203.5C 385.363,202.537 386.03,202.537 386.5,203.5C 385.061,205.343 385.228,207.01 387,208.5C 411.402,183.934 435.236,158.934 458.5,133.5 Z"/></g>
<g><path style="opacity:0.994" fill="#fecb3b" d="M 499.5,208.5 C 499.5,236.5 499.5,264.5 499.5,292.5C 495.996,311.496 488.496,328.829 477,344.5C 461.696,362.075 442.529,370.741 419.5,370.5C 393.994,369.699 368.327,368.866 342.5,368C 394.333,314.167 446.167,260.333 498,206.5C 498.278,207.416 498.778,208.082 499.5,208.5 Z"/></g>
<g><path style="opacity:0.989" fill="#fed94a" d="M 351.5,248.5 C 351.67,249.822 351.337,250.989 350.5,252C 347.624,252.438 344.957,253.438 342.5,255C 276.031,325.136 209.198,394.97 142,464.5C 141.23,463.402 140.397,463.402 139.5,464.5C 138.206,463.71 137.039,462.71 136,461.5C 131.874,454.499 129.04,446.999 127.5,439C 128.795,399.171 128.795,359.171 127.5,319C 128.117,316.723 128.784,314.556 129.5,312.5C 130.198,318.467 130.698,324.467 131,330.5C 154.531,306.637 177.698,282.47 200.5,258C 197.207,257.174 193.874,256.674 190.5,256.5C 235.998,255.667 281.665,255.167 327.5,255C 335.964,254.385 343.964,252.218 351.5,248.5 Z"/></g>
<g><path style="opacity:0.986" fill="#fede4f" d="M 190.5,256.5 C 193.874,256.674 197.207,257.174 200.5,258C 177.698,282.47 154.531,306.637 131,330.5C 130.698,324.467 130.198,318.467 129.5,312.5C 131.708,287.129 144.708,269.962 168.5,261C 175.594,258.281 182.927,256.781 190.5,256.5 Z"/></g>
<g><path style="opacity:0.986" fill="#fecb3b" d="M 313.5,385.5 C 333.167,385.5 352.833,385.5 372.5,385.5C 372.561,406.336 372.894,427.169 373.5,448C 369.885,463.245 361.218,474.578 347.5,482C 326.481,491.92 304.481,497.753 281.5,499.5C 263.167,499.5 244.833,499.5 226.5,499.5C 226.158,498.662 225.492,498.328 224.5,498.5C 225.552,496.345 224.886,496.012 222.5,497.5C 221.692,497.192 221.025,496.692 220.5,496C 255.016,460.318 289.349,424.485 323.5,388.5C 339.156,387.667 354.823,387.167 370.5,387C 351.329,386.832 332.329,386.332 313.5,385.5 Z M 315.5,417.5 C 330.258,416.929 338.591,423.929 340.5,438.5C 339.419,449.173 333.753,456.006 323.5,459C 306.657,459.49 298.49,451.323 299,434.5C 301.34,425.661 306.84,419.994 315.5,417.5 Z"/></g>
</svg>
