<?xml version="1.0" encoding="UTF-8"?>
<!DOCTYPE svg PUBLIC "-//W3C//DTD SVG 1.1//EN" "http://www.w3.org/Graphics/SVG/1.1/DTD/svg11.dtd">
<svg xmlns="http://www.w3.org/2000/svg" version="1.1" width="1024px" height="1024px" style="shape-rendering:geometricPrecision; text-rendering:geometricPrecision; image-rendering:optimizeQuality; fill-rule:evenodd; clip-rule:evenodd" xmlns:xlink="http://www.w3.org/1999/xlink">
<g><path style="opacity:0.999" fill="#babcc0" d="M 500.5,118.5 C 334.215,230.649 167.548,342.316 0.5,453.5C 0.840417,435.116 3.50708,417.116 8.5,399.5C 145.282,308.602 281.948,217.435 418.5,126C 419.252,125.329 419.586,124.496 419.5,123.5C 446.406,120.388 473.406,118.721 500.5,118.5 Z"/></g>
<g><path style="opacity:0.999" fill="#b7b9bd" d="M 500.5,118.5 C 533.014,117.77 565.348,119.436 597.5,123.5C 401.899,254.643 206.232,385.81 10.5,517C 9.55198,517.483 8.55198,517.649 7.5,517.5C 2.13751,496.546 -0.195824,475.213 0.5,453.5C 167.548,342.316 334.215,230.649 500.5,118.5 Z"/></g>
<g><path style="opacity:0.997" fill="#bdbfc2" d="M 419.5,123.5 C 419.586,124.496 419.252,125.329 418.5,126C 281.948,217.435 145.282,308.602 8.5,399.5C 16.9323,367.64 30.9323,338.64 50.5,312.5C 131.111,259.218 211.444,205.551 291.5,151.5C 333.126,137.973 375.793,128.639 419.5,123.5 Z"/></g>
<g><path style="opacity:0.996" fill="#b4b6ba" d="M 597.5,123.5 C 615.146,124.972 632.479,127.639 649.5,131.5C 581.661,176.919 513.994,222.586 446.5,268.5C 398.843,279.992 353.843,298.159 311.5,323C 280.953,341.543 254.786,365.043 233,393.5C 226.638,402.898 220.805,412.565 215.5,422.5C 150.167,466.167 84.8333,509.833 19.5,553.5C 14.5059,541.851 10.5059,529.851 7.5,517.5C 8.55198,517.649 9.55198,517.483 10.5,517C 206.232,385.81 401.899,254.643 597.5,123.5 Z"/></g>
<g><path style="opacity:0.994" fill="#b1b3b7" d="M 649.5,131.5 C 677.294,136.282 704.627,142.949 731.5,151.5C 682.405,184.891 633.071,218.058 583.5,251C 589.016,251.173 594.349,251.673 599.5,252.5C 547.873,251.977 496.873,257.31 446.5,268.5C 513.994,222.586 581.661,176.919 649.5,131.5 Z"/></g>
<g><path style="opacity:0.981" fill="#bfc2c5" d="M 291.5,151.5 C 211.444,205.551 131.111,259.218 50.5,312.5C 77.1037,276.063 109.104,245.23 146.5,220C 191.444,190.197 239.777,167.364 291.5,151.5 Z"/></g>
<g><path style="opacity:0.996" fill="#aeafb4" d="M 731.5,151.5 C 749.296,157.206 766.629,163.872 783.5,171.5C 741.148,199.007 699.148,227.007 657.5,255.5C 638.198,254.021 618.865,253.021 599.5,252.5C 594.349,251.673 589.016,251.173 583.5,251C 633.071,218.058 682.405,184.891 731.5,151.5 Z"/></g>
<g><path style="opacity:0.995" fill="#aaacb0" d="M 783.5,171.5 C 808.472,181.152 832.139,193.152 854.5,207.5C 854.063,209.074 853.063,210.241 851.5,211C 821.262,230.942 791.262,251.109 761.5,271.5C 727.24,263.568 692.573,258.234 657.5,255.5C 699.148,227.007 741.148,199.007 783.5,171.5 Z"/></g>
<g><path style="opacity:0.998" fill="#a8a9ae" d="M 854.5,207.5 C 860.459,210.807 866.125,214.473 871.5,218.5C 841.893,238.109 812.559,258.109 783.5,278.5C 776.083,276.151 768.75,273.818 761.5,271.5C 791.262,251.109 821.262,230.942 851.5,211C 853.063,210.241 854.063,209.074 854.5,207.5 Z"/></g>
<g><path style="opacity:0.993" fill="#a4a5aa" d="M 871.5,218.5 C 897.606,235.078 921.273,254.744 942.5,277.5C 920.884,292.982 898.884,307.982 876.5,322.5C 848.02,302.763 817.02,288.096 783.5,278.5C 812.559,258.109 841.893,238.109 871.5,218.5 Z"/></g>
<g><path style="opacity:0.992" fill="#9f9fa5" d="M 942.5,277.5 C 964.783,300.464 982.783,326.464 996.5,355.5C 976.976,367.425 957.976,380.092 939.5,393.5C 923.813,365.144 902.813,341.478 876.5,322.5C 898.884,307.982 920.884,292.982 942.5,277.5 Z"/></g>
<g><path style="opacity:0.998" fill="#256bc0" d="M 586.5,330.5 C 531.864,387.47 476.53,443.804 420.5,499.5C 420.5,443.167 420.5,386.833 420.5,330.5C 475.833,330.5 531.167,330.5 586.5,330.5 Z"/></g>
<g><path style="opacity:0.999" fill="#2369bd" d="M 586.5,330.5 C 643.833,330.5 701.167,330.5 758.5,330.5C 717.803,371.863 677.47,413.529 637.5,455.5C 623.833,455.5 610.167,455.5 596.5,455.5C 596.5,469.167 596.5,482.833 596.5,496.5C 537.833,556.167 479.167,615.833 420.5,675.5C 420.5,616.833 420.5,558.167 420.5,499.5C 476.53,443.804 531.864,387.47 586.5,330.5 Z"/></g>
<g><path style="opacity:0.995" fill="#2066b9" d="M 758.5,330.5 C 799.063,329.805 836.397,340.305 870.5,362C 874.025,364.698 877.358,367.531 880.5,370.5C 869.253,380.243 858.42,390.576 848,401.5C 815.297,434.702 782.797,468.035 750.5,501.5C 748.885,475.047 734.885,459.88 708.5,456C 684.836,455.5 661.169,455.333 637.5,455.5C 677.47,413.529 717.803,371.863 758.5,330.5 Z"/></g>
<g><path style="opacity:0.991" fill="#98989f" d="M 996.5,355.5 C 1013.95,390.659 1022.29,427.992 1021.5,467.5C 1000.58,480.413 979.915,493.746 959.5,507.5C 963.325,467.598 956.659,429.598 939.5,393.5C 957.976,380.092 976.976,367.425 996.5,355.5 Z"/></g>
<g><path style="opacity:0.999" fill="#1e64b6" d="M 880.5,370.5 C 902.462,387.822 916.795,410.156 923.5,437.5C 838.804,523.529 754.471,609.862 670.5,696.5C 664.038,689.536 656.371,684.37 647.5,681C 630.17,680.5 612.837,680.333 595.5,680.5C 595.5,693.167 595.5,705.833 595.5,718.5C 594.668,736.662 594.168,754.995 594,773.5C 550.601,817.064 507.768,861.064 465.5,905.5C 450.5,905.5 435.5,905.5 420.5,905.5C 420.5,882.833 420.5,860.167 420.5,837.5C 513.835,742.832 606.835,647.832 699.5,552.5C 731.555,550.445 748.555,533.445 750.5,501.5C 782.797,468.035 815.297,434.702 848,401.5C 858.42,390.576 869.253,380.243 880.5,370.5 Z"/></g>
<g><path style="opacity:0.997" fill="#b1b3b7" d="M 215.5,422.5 C 206.896,442.586 202.23,463.586 201.5,485.5C 201.707,492.568 202.374,499.568 203.5,506.5C 152.247,539.748 101.247,573.415 50.5,607.5C 37.7721,591.05 27.4387,573.05 19.5,553.5C 84.8333,509.833 150.167,466.167 215.5,422.5 Z"/></g>
<g><path style="opacity:0.999" fill="#1e64b5" d="M 923.5,437.5 C 925.836,443.507 927.169,449.841 927.5,456.5C 845.005,539.495 763.005,622.995 681.5,707C 680.552,707.483 679.552,707.649 678.5,707.5C 675.833,703.833 673.167,700.167 670.5,696.5C 754.471,609.862 838.804,523.529 923.5,437.5 Z"/></g>
<g><path style="opacity:0.997" fill="#1b61b2" d="M 927.5,456.5 C 933.929,495.653 928.096,532.987 910,568.5C 891.534,598.959 865.701,620.793 832.5,634C 815.978,640.381 798.978,645.047 781.5,648C 801.281,653.42 819.947,661.253 837.5,671.5C 843.104,675.765 848.437,680.432 853.5,685.5C 857.867,692.189 862.2,698.856 866.5,705.5C 880.927,729.258 894.927,753.258 908.5,777.5C 867.5,818.833 826.5,860.167 785.5,901.5C 762.007,859.187 739.007,816.52 716.5,773.5C 709.948,760.064 703.115,746.73 696,733.5C 692.028,726.383 687.528,719.716 682.5,713.5C 681.559,711.228 680.226,709.228 678.5,707.5C 679.552,707.649 680.552,707.483 681.5,707C 763.005,622.995 845.005,539.495 927.5,456.5 Z"/></g>
<g><path style="opacity:0.99" fill="#929198" d="M 1021.5,467.5 C 1018.53,519.767 1001.53,566.767 970.5,608.5C 931.357,633.908 892.357,659.574 853.5,685.5C 848.437,680.432 843.104,675.765 837.5,671.5C 878.601,652.564 911.101,623.898 935,585.5C 948.499,561.17 956.666,535.17 959.5,507.5C 979.915,493.746 1000.58,480.413 1021.5,467.5 Z"/></g>
<g><path style="opacity:1" fill="#2066b9" d="M 596.5,496.5 C 596.5,515.167 596.5,533.833 596.5,552.5C 630.833,552.5 665.167,552.5 699.5,552.5C 606.835,647.832 513.835,742.832 420.5,837.5C 420.5,823.833 420.5,810.167 420.5,796.5C 420.5,776.167 420.5,755.833 420.5,735.5C 420.5,722.167 420.5,708.833 420.5,695.5C 420.5,688.833 420.5,682.167 420.5,675.5C 479.167,615.833 537.833,556.167 596.5,496.5 Z"/></g>
<g><path style="opacity:0.998" fill="#aeafb4" d="M 203.5,506.5 C 205.817,521.782 210.15,536.448 216.5,550.5C 170.624,580.932 124.957,611.599 79.5,642.5C 74.1701,638.003 69.3368,633.003 65,627.5C 59.5365,621.216 54.7031,614.55 50.5,607.5C 101.247,573.415 152.247,539.748 203.5,506.5 Z"/></g>
<g><path style="opacity:0.997" fill="#aaacb0" d="M 216.5,550.5 C 227.803,571.418 241.803,590.418 258.5,607.5C 217.204,635.154 175.87,662.82 134.5,690.5C 123.444,682.956 112.777,674.79 102.5,666C 94.5762,658.245 86.9095,650.411 79.5,642.5C 124.957,611.599 170.624,580.932 216.5,550.5 Z"/></g>
<g><path style="opacity:0.999" fill="#a8a9ae" d="M 258.5,607.5 C 263.46,610.792 267.793,614.792 271.5,619.5C 230.993,646.92 190.66,674.586 150.5,702.5C 144.86,698.853 139.527,694.853 134.5,690.5C 175.87,662.82 217.204,635.154 258.5,607.5 Z"/></g>
<g><path style="opacity:0.994" fill="#8f8e95" d="M 970.5,608.5 C 950.12,636.716 926.12,661.549 898.5,683C 887.979,690.756 877.313,698.256 866.5,705.5C 862.2,698.856 857.867,692.189 853.5,685.5C 892.357,659.574 931.357,633.908 970.5,608.5 Z"/></g>
<g><path style="opacity:0.996" fill="#a4a5aa" d="M 271.5,619.5 C 296.787,640.069 324.454,657.069 354.5,670.5C 350.673,674.441 346.34,677.941 341.5,681C 307.262,703.609 273.262,726.442 239.5,749.5C 208.215,736.693 178.548,721.026 150.5,702.5C 190.66,674.586 230.993,646.92 271.5,619.5 Z"/></g>
<g><path style="opacity:0.994" fill="#9f9fa5" d="M 354.5,670.5 C 375.888,680.408 397.888,688.741 420.5,695.5C 420.5,708.833 420.5,722.167 420.5,735.5C 395.641,751.093 371.308,767.426 347.5,784.5C 310.373,776.013 274.373,764.346 239.5,749.5C 273.262,726.442 307.262,703.609 341.5,681C 346.34,677.941 350.673,674.441 354.5,670.5 Z"/></g>
<g><path style="opacity:0.994" fill="#93939a" d="M 682.5,713.5 C 687.528,719.716 692.028,726.383 696,733.5C 703.115,746.73 709.948,760.064 716.5,773.5C 676.777,784.578 636.444,792.578 595.5,797.5C 595.5,771.167 595.5,744.833 595.5,718.5C 624.578,718.117 653.578,716.45 682.5,713.5 Z"/></g>
<g><path style="opacity:0.989" fill="#9b9ba1" d="M 420.5,735.5 C 420.5,755.833 420.5,776.167 420.5,796.5C 395.966,793.689 371.633,789.689 347.5,784.5C 371.308,767.426 395.641,751.093 420.5,735.5 Z"/></g>
<g><path style="opacity:0.996" fill="#1e63b4" d="M 595.5,718.5 C 595.5,744.833 595.5,771.167 595.5,797.5C 595.5,833.5 595.5,869.5 595.5,905.5C 552.167,905.5 508.833,905.5 465.5,905.5C 507.768,861.064 550.601,817.064 594,773.5C 594.168,754.995 594.668,736.662 595.5,718.5 Z"/></g>
<g><path style="opacity:0.991" fill="#185eac" d="M 908.5,777.5 C 934.059,819.604 959.392,861.938 984.5,904.5C 918.5,905.833 852.5,905.833 786.5,904.5C 785.873,903.583 785.539,902.583 785.5,901.5C 826.5,860.167 867.5,818.833 908.5,777.5 Z"/></g>
</svg>
