<?xml version="1.0" encoding="UTF-8"?>
<!DOCTYPE svg PUBLIC "-//W3C//DTD SVG 1.1//EN" "http://www.w3.org/Graphics/SVG/1.1/DTD/svg11.dtd">
<svg xmlns="http://www.w3.org/2000/svg" version="1.1" width="4096px" height="4096px" style="shape-rendering:geometricPrecision; text-rendering:geometricPrecision; image-rendering:optimizeQuality; fill-rule:evenodd; clip-rule:evenodd" xmlns:xlink="http://www.w3.org/1999/xlink">
<g><path style="opacity:0.995" fill="#00d8ff" d="M 2810.5,341.5 C 2943.94,336.793 3046.44,390.127 3118,501.5C 3154.3,561.725 3179.64,626.391 3194,695.5C 3213.1,787.861 3221.1,881.194 3218,975.5C 3213.18,1121.93 3192.68,1266.1 3156.5,1408C 3265.73,1439.63 3372.06,1478.96 3475.5,1526C 3562.89,1566.16 3645.22,1614.16 3722.5,1670C 3783.88,1715.05 3837.72,1767.88 3884,1828.5C 3984.05,1967.06 3987.05,2107.73 3893,2250.5C 3858.17,2300.21 3817.67,2345.04 3771.5,2385C 3688.7,2454.37 3598.37,2512.7 3500.5,2560C 3392.07,2612.37 3280.07,2655.7 3164.5,2690C 3205.88,2851.2 3225.71,3015.04 3224,3181.5C 3222.9,3277.23 3208.56,3370.89 3181,3462.5C 3159.92,3530.02 3126.92,3590.68 3082,3644.5C 3026.68,3705.75 2957.85,3741.58 2875.5,3752C 2821.09,3757.94 2767.09,3755.28 2713.5,3744C 2650.58,3730.25 2589.91,3709.91 2531.5,3683C 2430.17,3634.71 2335.51,3576.38 2247.5,3508C 2179.05,3454.9 2113.55,3398.07 2051,3337.5C 1950.98,3435.02 1842.15,3520.85 1724.5,3595C 1636.84,3650.16 1543.51,3693.49 1444.5,3725C 1386.66,3742.78 1327.5,3752.28 1267,3753.5C 1127.66,3753.7 1023.33,3694.03 954,3574.5C 915.737,3503.71 891.07,3428.38 880,3348.5C 868.812,3272.56 864.812,3196.22 868,3119.5C 874.594,2977.1 895.761,2836.94 931.5,2699C 793.49,2659.56 661.157,2606.22 534.5,2539C 451.387,2493.96 374.387,2440.29 303.5,2378C 262.883,2341.07 227.05,2300.24 196,2255.5C 163.321,2207.79 141.321,2155.46 130,2098.5C 119.201,2030.76 128.201,1965.76 157,1903.5C 187.122,1841.37 227.288,1786.53 277.5,1739C 330.958,1688.86 388.958,1644.86 451.5,1607C 560.791,1542.19 675.791,1489.53 796.5,1449C 841.177,1433.75 886.177,1419.58 931.5,1406.5C 931.833,1405.83 932.167,1405.17 932.5,1404.5C 903.048,1288.12 883.214,1170.12 873,1050.5C 864.387,950.235 866.721,850.235 880,750.5C 890.544,672.873 913.544,599.206 949,529.5C 1015.49,406.802 1118.99,345.468 1259.5,345.5C 1318.43,345.99 1376.1,354.824 1432.5,372C 1503.29,394.042 1571.29,422.709 1636.5,458C 1730.63,510.172 1819.3,570.172 1902.5,638C 1951.8,678.122 1999.47,720.289 2045.5,764.5C 2127.35,686.117 2214.01,613.95 2305.5,548C 2393.73,484.867 2488.39,432.534 2589.5,391C 2660.66,362.623 2734.33,346.123 2810.5,341.5 Z M 2799.5,507.5 C 2829.69,505.271 2859.35,508.104 2888.5,516C 2916.9,525.109 2940.4,541.276 2959,564.5C 2986.08,599.65 3006.08,638.65 3019,681.5C 3036.9,741.218 3047.56,802.218 3051,864.5C 3056.67,975.505 3050.33,1085.84 3032,1195.5C 3022.91,1253.45 3011.08,1310.78 2996.5,1367.5C 2827.67,1328.97 2657,1301.81 2484.5,1286C 2385.95,1144.74 2278.28,1010.4 2161.5,883C 2241.97,804.838 2327.97,733.838 2419.5,670C 2474.21,632.628 2531.54,599.294 2591.5,570C 2639.29,547.179 2688.96,529.512 2740.5,517C 2760.15,512.838 2779.82,509.671 2799.5,507.5 Z M 1242.5,510.5 C 1293,509.528 1342.34,516.695 1390.5,532C 1447.72,550.108 1502.72,573.441 1555.5,602C 1636.65,646.887 1713.31,698.221 1785.5,756C 1835.61,796.098 1883.94,838.431 1930.5,883C 1812.72,1010.37 1704.06,1144.71 1604.5,1286C 1432.22,1301.94 1261.72,1328.11 1093,1364.5C 1066.24,1259.28 1047.91,1152.61 1038,1044.5C 1030.33,966.126 1030.67,887.792 1039,809.5C 1044.66,750.532 1058.33,693.532 1080,638.5C 1093.13,606.368 1111.63,577.868 1135.5,553C 1155.61,534.111 1179.27,521.778 1206.5,516C 1218.57,513.635 1230.57,511.801 1242.5,510.5 Z M 2045.5,1001.5 C 2125.27,1087.29 2199.94,1177.13 2269.5,1271C 2119.8,1265.01 1970.14,1265.01 1820.5,1271C 1891.19,1177.79 1966.19,1087.95 2045.5,1001.5 Z M 2007.5,1430.5 C 2136.37,1429.84 2265.04,1434.51 2393.5,1444.5C 2522.79,1636.97 2639.46,1837.64 2743.5,2046.5C 2640.53,2257.03 2524.53,2459.2 2395.5,2653C 2181.61,2667.7 1967.61,2669.37 1753.5,2658C 1734.78,2657.26 1716.11,2655.92 1697.5,2654C 1565.2,2462.01 1448.2,2260.17 1346.5,2048.5C 1448.04,1837.8 1564.38,1636.63 1695.5,1445C 1746.69,1440.27 1798.02,1436.93 1849.5,1435C 1902.32,1433.01 1954.98,1431.51 2007.5,1430.5 Z M 1479.5,1465.5 C 1480.87,1465.34 1482.21,1465.51 1483.5,1466C 1402.98,1591.82 1328.15,1721.32 1259,1854.5C 1213.18,1746.71 1172.68,1636.87 1137.5,1525C 1250.75,1500.07 1364.75,1480.24 1479.5,1465.5 Z M 2605.5,1465.5 C 2722.1,1480.21 2837.76,1500.21 2952.5,1525.5C 2918.02,1637.45 2877.52,1747.12 2831,1854.5C 2795.14,1787.99 2758.47,1721.99 2721,1656.5C 2683.44,1592.14 2644.94,1528.48 2605.5,1465.5 Z M 974.5,1565.5 C 976.124,1565.36 977.29,1566.03 978,1567.5C 1029.55,1732.24 1091.38,1892.91 1163.5,2049.5C 1090.38,2208.76 1027.55,2372.09 975,2539.5C 856.069,2505.52 741.569,2460.36 631.5,2404C 551.848,2362.65 478.515,2312.32 411.5,2253C 374.268,2219.13 343.102,2180.63 318,2137.5C 301.552,2108.82 292.385,2077.99 290.5,2045C 291.335,2021.5 296.501,1999 306,1977.5C 322.042,1942.72 343.042,1911.39 369,1883.5C 417.285,1832.86 471.118,1789.36 530.5,1753C 627.981,1694.26 730.647,1646.26 838.5,1609C 883.597,1593.35 928.93,1578.85 974.5,1565.5 Z M 3112.5,1567.5 C 3245.07,1604.19 3372.07,1654.69 3493.5,1719C 3560.37,1754.75 3622.37,1797.42 3679.5,1847C 3712.76,1876.91 3741.6,1910.41 3766,1947.5C 3778.01,1967.18 3787.01,1988.18 3793,2010.5C 3800.57,2043.45 3797.57,2075.45 3784,2106.5C 3767.66,2142.55 3746.32,2175.22 3720,2204.5C 3671.46,2255.73 3617.63,2300.23 3558.5,2338C 3464.11,2397.03 3364.45,2445.69 3259.5,2484C 3213.39,2501.2 3166.72,2516.7 3119.5,2530.5C 3082.34,2413.18 3039.17,2298.18 2990,2185.5C 2969.32,2138.62 2948.15,2091.95 2926.5,2045.5C 2998.9,1890.3 3060.9,1730.97 3112.5,1567.5 Z M 2831.5,2237.5 C 2833.47,2239.43 2834.97,2241.76 2836,2244.5C 2882.9,2351.37 2924.4,2460.37 2960.5,2571.5C 2880.25,2590.65 2799.25,2606.15 2717.5,2618C 2679.85,2623.75 2642.18,2628.75 2604.5,2633C 2685.88,2504.78 2761.54,2372.95 2831.5,2237.5 Z M 1258.5,2243.5 C 1328.65,2378.05 1404.65,2508.88 1486.5,2636C 1368.66,2623.5 1251.83,2604.67 1136,2579.5C 1171.38,2465.51 1212.22,2353.51 1258.5,2243.5 Z M 3001.5,2731.5 C 3003.14,2731.29 3004.64,2731.62 3006,2732.5C 3039.92,2866.3 3058.42,3002.13 3061.5,3140C 3062.11,3214.28 3054.61,3287.78 3039,3360.5C 3028.97,3406.59 3012.64,3450.26 2990,3491.5C 2973.12,3522.38 2949.96,3547.55 2920.5,3567C 2889.37,3583.29 2856.2,3590.79 2821,3589.5C 2778.54,3588.61 2737.04,3581.77 2696.5,3569C 2625.17,3545.83 2557.5,3514.83 2493.5,3476C 2375.48,3402.7 2266.65,3317.2 2167,3219.5C 2282.34,3089.98 2389.17,2953.81 2487.5,2811C 2620.05,2799.44 2751.72,2781.44 2882.5,2757C 2922.53,2749.56 2962.2,2741.06 3001.5,2731.5 Z M 1090.5,2738.5 C 1208.76,2764.49 1328.09,2784.32 1448.5,2798C 1501.12,2803.86 1553.79,2809.2 1606.5,2814C 1706.82,2956.48 1816.49,3091.81 1935.5,3220C 1851.42,3301.64 1760.75,3374.64 1663.5,3439C 1596.22,3483.31 1524.89,3520.31 1449.5,3550C 1403.59,3567.64 1356.26,3579.64 1307.5,3586C 1265.93,3591.85 1225.26,3588.19 1185.5,3575C 1157.38,3563.22 1134.22,3545.06 1116,3520.5C 1093.45,3489.07 1076.45,3454.74 1065,3417.5C 1046.06,3354.57 1035.39,3290.23 1033,3224.5C 1029.19,3110.89 1037.86,2998.23 1059,2886.5C 1068.24,2836.88 1078.74,2787.55 1090.5,2738.5 Z M 2255.5,2825.5 C 2261.84,2825.33 2268.18,2825.5 2274.5,2826C 2204.91,2921.44 2130.24,3012.94 2050.5,3100.5C 1969.87,3012.72 1893.54,2921.56 1821.5,2827C 1894.98,2828.73 1968.48,2829.89 2042,2830.5C 2113.37,2830.4 2184.53,2828.73 2255.5,2825.5 Z"/></g>
<g><path style="opacity:0.998" fill="#00d8ff" d="M 2027.5,1701.5 C 2160.17,1699.91 2263.01,1753.91 2336,1863.5C 2393.69,1962.14 2402.69,2065.14 2363,2172.5C 2314.05,2285.78 2229.21,2355.61 2108.5,2382C 1999.57,2400.27 1902.9,2374.27 1818.5,2304C 1729.08,2221.78 1690.91,2119.94 1704,1998.5C 1723.55,1878.15 1787.38,1790.32 1895.5,1735C 1937.46,1715.34 1981.46,1704.18 2027.5,1701.5 Z"/></g>
</svg>
