<?xml version="1.0" encoding="UTF-8"?>
<!DOCTYPE svg PUBLIC "-//W3C//DTD SVG 1.1//EN" "http://www.w3.org/Graphics/SVG/1.1/DTD/svg11.dtd">
<svg xmlns="http://www.w3.org/2000/svg" version="1.1" width="914px" height="683px" style="shape-rendering:geometricPrecision; text-rendering:geometricPrecision; image-rendering:optimizeQuality; fill-rule:evenodd; clip-rule:evenodd" xmlns:xlink="http://www.w3.org/1999/xlink">
<g><path style="opacity:0.904" fill="#aeb6bf" d="M 467.5,68.5 C 469.099,68.2322 470.432,68.5655 471.5,69.5C 458.98,75.0934 446.646,81.2601 434.5,88C 445.52,89.8366 456.52,91.67 467.5,93.5C 467.5,95.1667 467.5,96.8333 467.5,98.5C 466.5,98.5 465.5,98.5 464.5,98.5C 453.3,96.8932 442.3,94.7265 431.5,92C 440.395,101.063 449.395,109.896 458.5,118.5C 455.518,118.037 452.518,117.704 449.5,117.5C 448.391,117.443 447.391,117.11 446.5,116.5C 446.5,115.833 446.167,115.5 445.5,115.5C 439.547,107.708 433.38,100.041 427,92.5C 420.822,96.5041 416.322,101.837 413.5,108.5C 409.531,107.517 406.198,105.517 403.5,102.5C 404.228,100.265 405.561,98.4321 407.5,97C 426.065,84.5516 446.065,75.0516 467.5,68.5 Z"/></g>
<g><path style="opacity:0.933" fill="#cbcfd4" d="M 514.5,127.5 C 510.613,127.354 506.946,126.687 503.5,125.5C 504.376,125.631 505.043,125.298 505.5,124.5C 502.167,118.5 498.833,112.5 495.5,106.5C 488.697,111.541 482.031,116.541 475.5,121.5C 472.094,121.044 468.761,120.378 465.5,119.5C 474.606,113.774 483.939,108.274 493.5,103C 483.605,102.059 473.939,100.559 464.5,98.5C 465.5,98.5 466.5,98.5 467.5,98.5C 467.5,96.8333 467.5,95.1667 467.5,93.5C 475.478,94.5953 483.311,96.262 491,98.5C 491.5,98 492,97.5 492.5,97C 488.505,86.8534 485.838,76.3534 484.5,65.5C 480.167,66.8333 475.833,68.1667 471.5,69.5C 470.432,68.5655 469.099,68.2322 467.5,68.5C 473.499,65.7238 479.833,63.7238 486.5,62.5C 492.81,85.4543 502.143,107.121 514.5,127.5 Z"/></g>
<g><path style="opacity:0.968" fill="#cd413a" d="M 403.5,102.5 C 406.198,105.517 409.531,107.517 413.5,108.5C 423.883,112.096 434.55,114.429 445.5,115.5C 446.167,115.5 446.5,115.833 446.5,116.5C 447.391,117.11 448.391,117.443 449.5,117.5C 449.396,119.703 448.73,121.703 447.5,123.5C 450.898,132.028 453.898,140.695 456.5,149.5C 453.784,154.023 452.451,159.023 452.5,164.5C 449.293,158.431 445.793,152.431 442,146.5C 429.696,133.196 417.03,120.196 404,107.5C 403.598,106.128 403.098,104.795 402.5,103.5C 402.624,102.893 402.957,102.56 403.5,102.5 Z M 421.5,117.5 C 428.725,118.723 435.725,120.723 442.5,123.5C 445.574,131.722 448.241,140.056 450.5,148.5C 450.5,149.167 450.167,149.5 449.5,149.5C 445.633,142.786 441.133,136.453 436,130.5C 431,126.267 426.166,121.933 421.5,117.5 Z"/></g>
<g><path style="opacity:0.075" fill="#f3baba" d="M 450.5,148.5 C 451.573,149.251 451.74,150.251 451,151.5C 450.283,150.956 449.783,150.289 449.5,149.5C 450.167,149.5 450.5,149.167 450.5,148.5 Z"/></g>
<g><path style="opacity:0.968" fill="#c93b35" d="M 571.5,138.5 C 600.711,144.786 627.711,156.119 652.5,172.5C 652.995,174.452 653.328,176.452 653.5,178.5C 653.415,180.333 652.748,181.666 651.5,182.5C 645.471,178.73 639.305,175.064 633,171.5C 622.685,192.273 608.852,210.44 591.5,226C 601.364,223.873 611.364,222.039 621.5,220.5C 622.5,220.5 623.5,220.5 624.5,220.5C 624.552,222.903 624.219,225.236 623.5,227.5C 608.473,231.34 593.473,235.34 578.5,239.5C 578.584,235.163 579.584,231.163 581.5,227.5C 582.397,228.598 583.23,228.598 584,227.5C 598.742,209.259 612.909,190.593 626.5,171.5C 613.059,174.418 599.726,178.418 586.5,183.5C 586.833,181.5 587.167,179.5 587.5,177.5C 586.167,177.5 584.833,177.5 583.5,177.5C 596.18,173 609.18,169.167 622.5,166C 605.647,159.108 588.647,152.941 571.5,147.5C 572.649,147.209 573.316,146.376 573.5,145C 573.125,142.711 572.459,140.545 571.5,138.5 Z"/></g>
<g><path style="opacity:0.981" fill="#b83b37" d="M 652.5,172.5 C 667.352,183.852 679.685,197.518 689.5,213.5C 667.506,218.033 645.506,222.699 623.5,227.5C 624.219,225.236 624.552,222.903 624.5,220.5C 623.5,220.5 622.5,220.5 621.5,220.5C 639.815,216.265 658.482,213.598 677.5,212.5C 679.604,212.799 681.604,212.466 683.5,211.5C 683.376,210.893 683.043,210.56 682.5,210.5C 672.738,200.398 662.405,191.065 651.5,182.5C 652.748,181.666 653.415,180.333 653.5,178.5C 653.328,176.452 652.995,174.452 652.5,172.5 Z"/></g>
<g><path style="opacity:0.979" fill="#de4137" d="M 449.5,117.5 C 452.518,117.704 455.518,118.037 458.5,118.5C 460.861,118.674 463.194,119.007 465.5,119.5C 468.761,120.378 472.094,121.044 475.5,121.5C 484.847,122.74 494.181,124.073 503.5,125.5C 506.946,126.687 510.613,127.354 514.5,127.5C 533.72,130.202 552.72,133.869 571.5,138.5C 572.459,140.545 573.125,142.711 573.5,145C 573.316,146.376 572.649,147.209 571.5,147.5C 569.139,147.326 566.806,146.993 564.5,146.5C 563.378,160.367 559.711,173.534 553.5,186C 553.833,186.5 554.167,187 554.5,187.5C 563.903,183.366 573.569,180.033 583.5,177.5C 584.833,177.5 586.167,177.5 587.5,177.5C 587.167,179.5 586.833,181.5 586.5,183.5C 575.298,187.432 564.298,191.932 553.5,197C 565.159,205.154 574.493,215.321 581.5,227.5C 579.584,231.163 578.584,235.163 578.5,239.5C 540.984,249.45 504.317,261.783 468.5,276.5C 467.833,276.5 467.167,276.5 466.5,276.5C 466.065,273.843 465.065,271.509 463.5,269.5C 470.866,265.93 478.533,262.93 486.5,260.5C 486.024,252.891 483.357,246.225 478.5,240.5C 473.145,246.187 467.812,251.854 462.5,257.5C 461.032,256.221 460.365,254.554 460.5,252.5C 466.954,245.924 466.621,244.59 459.5,248.5C 458.5,248.5 457.5,248.5 456.5,248.5C 456.5,247.167 456.5,245.833 456.5,244.5C 461.315,240.53 466.315,236.697 471.5,233C 468.015,228.59 463.682,226.423 458.5,226.5C 457.831,220.391 457.498,214.391 457.5,208.5C 458.649,193.472 456.982,178.805 452.5,164.5C 452.451,159.023 453.784,154.023 456.5,149.5C 457.322,151.389 458.155,153.389 459,155.5C 468.175,146.488 478.342,138.821 489.5,132.5C 475.474,129.495 461.474,126.495 447.5,123.5C 448.73,121.703 449.396,119.703 449.5,117.5 Z M 463.5,170.5 C 473.008,172.558 482.341,175.225 491.5,178.5C 492.525,178.897 492.692,179.563 492,180.5C 490.293,182.037 488.793,183.704 487.5,185.5C 478.942,191.551 471.109,198.551 464,206.5C 463.783,196.787 463.283,187.12 462.5,177.5C 462.198,174.941 462.532,172.607 463.5,170.5 Z M 558.5,146.5 C 559.338,146.842 559.672,147.508 559.5,148.5C 556.093,162.311 550.759,175.311 543.5,187.5C 542.778,187.918 542.278,188.584 542,189.5C 532.705,184.103 523.205,179.103 513.5,174.5C 518.234,171.145 522.9,167.812 527.5,164.5C 537.67,158.248 548.003,152.248 558.5,146.5 Z M 521.5,160.5 C 516.991,162.919 512.658,165.586 508.5,168.5C 507.833,167.5 507.167,166.5 506.5,165.5C 506.769,161.069 506.436,156.735 505.5,152.5C 504.446,145.956 502.946,139.622 501,133.5C 518.28,136.356 535.447,139.856 552.5,144C 541.788,149.02 531.454,154.52 521.5,160.5 Z M 500.5,154.5 C 500.5,159.5 500.5,164.5 500.5,169.5C 499.167,169.5 497.833,169.5 496.5,169.5C 486.254,166.197 475.921,162.864 465.5,159.5C 474.589,149.742 484.589,141.075 495.5,133.5C 498.06,140.304 499.727,147.304 500.5,154.5 Z M 496.5,187.5 C 493.915,199.005 489.915,210.005 484.5,220.5C 483.11,221.899 482.11,223.566 481.5,225.5C 480.391,225.443 479.391,225.11 478.5,224.5C 474.4,220.279 469.733,216.779 464.5,214C 472.397,206.597 480.397,199.431 488.5,192.5C 491.184,190.807 493.851,189.14 496.5,187.5 Z M 542.5,204.5 C 554.668,211.765 566.002,220.265 576.5,230C 550.945,237.631 525.612,245.631 500.5,254C 505.703,248.965 510.703,243.798 515.5,238.5C 526.015,228.324 535.015,216.99 542.5,204.5 Z M 529.5,208.5 C 522.887,218.446 515.887,228.113 508.5,237.5C 503.196,243.808 497.863,250.142 492.5,256.5C 491.833,254.833 491.167,253.167 490.5,251.5C 489.963,245.052 488.296,238.885 485.5,233C 485.57,232.235 485.903,231.735 486.5,231.5C 500.384,223.057 514.717,215.391 529.5,208.5 Z"/></g>
<g><path style="opacity:0.624" fill="#e98480" d="M 463.5,170.5 C 462.532,172.607 462.198,174.941 462.5,177.5C 461.2,174.976 461.2,172.309 462.5,169.5C 463.107,169.624 463.44,169.957 463.5,170.5 Z"/></g>
<g><path style="opacity:0.11" fill="#f3b5b4" d="M 558.5,146.5 C 559.302,145.115 559.969,145.282 560.5,147C 560.43,147.765 560.097,148.265 559.5,148.5C 559.672,147.508 559.338,146.842 558.5,146.5 Z"/></g>
<g><path style="opacity:0.984" fill="#e83f34" d="M 505.5,152.5 C 506.436,156.735 506.769,161.069 506.5,165.5C 506.238,166.978 506.571,168.311 507.5,169.5C 508.107,169.376 508.44,169.043 508.5,168.5C 512.658,165.586 516.991,162.919 521.5,160.5C 524.878,159.891 526.878,161.224 527.5,164.5C 522.9,167.812 518.234,171.145 513.5,174.5C 523.205,179.103 532.705,184.103 542,189.5C 542.278,188.584 542.778,187.918 543.5,187.5C 544.794,189.048 545.461,191.048 545.5,193.5C 545.868,197.66 544.868,201.326 542.5,204.5C 535.015,216.99 526.015,228.324 515.5,238.5C 513.393,237.532 511.059,237.198 508.5,237.5C 515.887,228.113 522.887,218.446 529.5,208.5C 514.717,215.391 500.384,223.057 486.5,231.5C 486.749,227.542 486.082,223.876 484.5,220.5C 489.915,210.005 493.915,199.005 496.5,187.5C 493.851,189.14 491.184,190.807 488.5,192.5C 487.624,192.631 486.957,192.298 486.5,191.5C 487.348,189.591 487.682,187.591 487.5,185.5C 488.793,183.704 490.293,182.037 492,180.5C 492.692,179.563 492.525,178.897 491.5,178.5C 491.196,177.85 490.863,177.183 490.5,176.5C 491.577,174.271 492.244,171.937 492.5,169.5C 493.833,169.5 495.167,169.5 496.5,169.5C 497.833,169.5 499.167,169.5 500.5,169.5C 500.5,164.5 500.5,159.5 500.5,154.5C 501.885,153.426 503.051,152.093 504,150.5C 504.278,151.416 504.778,152.082 505.5,152.5 Z"/></g>
<g><path style="opacity:1" fill="#fef8f8" d="M 504.5,184.5 C 514.139,187.486 523.139,191.819 531.5,197.5C 518.146,205.004 504.813,212.171 491.5,219C 498.095,208.386 502.428,196.886 504.5,184.5 Z"/></g>
<g><path style="opacity:0.039" fill="#fdc7c6" d="M 506.5,165.5 C 507.167,166.5 507.833,167.5 508.5,168.5C 508.44,169.043 508.107,169.376 507.5,169.5C 506.571,168.311 506.238,166.978 506.5,165.5 Z"/></g>
<g><path style="opacity:0.235" fill="#e0a7a9" d="M 682.5,210.5 C 683.043,210.56 683.376,210.893 683.5,211.5C 681.604,212.466 679.604,212.799 677.5,212.5C 679.167,211.833 680.833,211.167 682.5,210.5 Z"/></g>
<g><path style="opacity:0.243" fill="#f7a7a0" d="M 478.5,224.5 C 479.391,225.11 480.391,225.443 481.5,225.5C 480.053,226.885 479.053,226.552 478.5,224.5 Z"/></g>
<g><path style="opacity:1" fill="#f4bdbb" d="M 466.5,245.5 C 466.461,244.244 466.961,243.244 468,242.5C 468.585,243.998 468.085,244.998 466.5,245.5 Z"/></g>
<g><path style="opacity:0.231" fill="#f4afad" d="M 490.5,251.5 C 491.167,253.167 491.833,254.833 492.5,256.5C 492.44,257.043 492.107,257.376 491.5,257.5C 490.534,255.604 490.201,253.604 490.5,251.5 Z"/></g>
<g><path style="opacity:1" fill="#ce3b34" d="M 457.5,208.5 C 457.498,214.391 457.831,220.391 458.5,226.5C 456.131,234.406 452.798,241.906 448.5,249C 451.198,247.859 453.865,246.359 456.5,244.5C 456.5,245.833 456.5,247.167 456.5,248.5C 457.5,248.5 458.5,248.5 459.5,248.5C 453.679,252.804 447.679,256.97 441.5,261C 435.5,267.667 429.5,274.333 423.5,281C 428.812,278.831 433.812,275.831 438.5,272C 446.053,265.727 453.386,259.227 460.5,252.5C 460.365,254.554 461.032,256.221 462.5,257.5C 454.465,265.691 445.799,273.191 436.5,280C 445.411,276.555 454.411,273.055 463.5,269.5C 465.065,271.509 466.065,273.843 466.5,276.5C 465.167,277.167 463.833,277.833 462.5,278.5C 461.609,279.11 460.609,279.443 459.5,279.5C 455.917,280.797 452.584,282.463 449.5,284.5C 438.557,288.972 427.89,293.972 417.5,299.5C 413.849,300.659 410.515,302.326 407.5,304.5C 407.167,304.5 406.833,304.5 406.5,304.5C 404.706,302.897 403.706,300.73 403.5,298C 406.725,294.283 409.725,290.45 412.5,286.5C 428.278,270.295 441.111,251.961 451,231.5C 453.894,223.992 456.06,216.325 457.5,208.5 Z"/></g>
<g><path style="opacity:1" fill="#eaaaa9" d="M 435.5,280.5 C 434.948,282.609 433.614,283.442 431.5,283C 432.693,281.905 434.027,281.072 435.5,280.5 Z"/></g>
<g><path style="opacity:0.98" fill="#c0413b" d="M 412.5,286.5 C 409.725,290.45 406.725,294.283 403.5,298C 403.706,300.73 404.706,302.897 406.5,304.5C 397.371,309.567 388.371,314.9 379.5,320.5C 377.965,321.354 376.632,321.354 375.5,320.5C 388.407,309.932 400.741,298.598 412.5,286.5 Z"/></g>
<g><path style="opacity:0.965" fill="#b2b9c2" d="M 459.5,279.5 C 453.19,297.955 444.856,315.455 434.5,332C 444.634,329.903 454.634,327.07 464.5,323.5C 466.083,325.663 467.416,327.996 468.5,330.5C 455.29,334.971 441.957,339.137 428.5,343C 438.27,354.948 449.937,364.448 463.5,371.5C 464.496,371.414 465.329,371.748 466,372.5C 467.833,375.667 469.667,378.833 471.5,382C 470.906,382.464 470.239,382.631 469.5,382.5C 467.61,382.297 466.11,382.963 465,384.5C 458.024,395.295 450.524,405.628 442.5,415.5C 442.628,413.345 442.128,411.345 441,409.5C 440.583,410.756 439.75,411.423 438.5,411.5C 444.276,401.884 450.276,392.384 456.5,383C 449.496,384.496 442.496,386.329 435.5,388.5C 435.803,385.412 434.47,383.746 431.5,383.5C 438.36,380.595 445.36,377.762 452.5,375C 444.417,370.406 437.084,364.906 430.5,358.5C 431.376,358.631 432.043,358.298 432.5,357.5C 424.581,344.665 416.915,331.665 409.5,318.5C 408.743,317.227 408.077,317.227 407.5,318.5C 406.953,314.022 406.953,309.355 407.5,304.5C 410.515,302.326 413.849,300.659 417.5,299.5C 415.168,311.16 416.834,322.16 422.5,332.5C 433.503,317.279 442.503,301.279 449.5,284.5C 452.584,282.463 455.917,280.797 459.5,279.5 Z"/></g>
<g><path style="opacity:0.92" fill="#d0d4d9" d="M 466.5,276.5 C 467.167,276.5 467.833,276.5 468.5,276.5C 473.785,289.13 481.785,299.796 492.5,308.5C 496.408,298.534 498.908,288.201 500,277.5C 502.054,280.274 503.554,283.274 504.5,286.5C 503.274,294.135 501.607,301.635 499.5,309C 504.607,307.794 509.607,305.961 514.5,303.5C 515.833,304.167 516.833,305.167 517.5,306.5C 513.091,309.567 508.424,312.233 503.5,314.5C 502.479,315.002 502.312,315.668 503,316.5C 512.146,322.992 521.979,328.325 532.5,332.5C 533.298,332.957 533.631,333.624 533.5,334.5C 520.723,331.03 508.557,326.03 497,319.5C 493.157,330.224 488.657,340.557 483.5,350.5C 482.31,348.131 480.643,346.131 478.5,344.5C 481.666,337.189 484.499,329.855 487,322.5C 480.764,325.035 474.598,327.702 468.5,330.5C 467.416,327.996 466.083,325.663 464.5,323.5C 472.67,320.753 480.67,317.42 488.5,313.5C 476.757,304.094 468.091,292.428 462.5,278.5C 463.833,277.833 465.167,277.167 466.5,276.5 Z"/></g>
<g><path style="opacity:0.935" fill="#a7b0ba" d="M 430.5,358.5 C 427.52,355.856 424.52,353.189 421.5,350.5C 417.478,354.854 413.478,359.187 409.5,363.5C 408.167,362.167 406.833,360.833 405.5,359.5C 407.557,355.271 410.223,351.437 413.5,348C 401.347,349.536 389.347,352.036 377.5,355.5C 378.292,353.244 377.292,351.91 374.5,351.5C 386.956,347.38 399.623,343.547 412.5,340C 412.957,339.586 413.291,339.086 413.5,338.5C 409.75,332.34 407.75,325.674 407.5,318.5C 408.077,317.227 408.743,317.227 409.5,318.5C 416.915,331.665 424.581,344.665 432.5,357.5C 432.043,358.298 431.376,358.631 430.5,358.5 Z"/></g>
<g><path style="opacity:0.947" fill="#98a3af" d="M 375.5,320.5 C 376.632,321.354 377.965,321.354 379.5,320.5C 370.953,328.552 364.119,337.885 359,348.5C 358.023,350.74 357.523,353.073 357.5,355.5C 363.132,354.009 368.799,352.675 374.5,351.5C 377.292,351.91 378.292,353.244 377.5,355.5C 370.895,357.151 364.229,358.485 357.5,359.5C 357.772,366.482 359.939,372.816 364,378.5C 368.967,384.469 374.301,390.135 380,395.5C 387.975,383.042 396.475,371.042 405.5,359.5C 406.833,360.833 408.167,362.167 409.5,363.5C 400.474,374.53 391.807,385.863 383.5,397.5C 385.074,398.631 386.741,398.798 388.5,398C 402.757,392.859 417.091,388.025 431.5,383.5C 434.47,383.746 435.803,385.412 435.5,388.5C 420.038,392.697 404.704,397.197 389.5,402C 402.729,410.195 416.896,416.362 432,420.5C 434.391,417.617 436.558,414.617 438.5,411.5C 439.75,411.423 440.583,410.756 441,409.5C 442.128,411.345 442.628,413.345 442.5,415.5C 440.721,417.546 439.054,419.713 437.5,422C 440.157,422.175 442.824,422.008 445.5,421.5C 447.179,421.285 448.179,421.952 448.5,423.5C 451.253,425.304 454.92,426.304 459.5,426.5C 460.237,428.305 461.237,429.971 462.5,431.5C 461.311,432.429 459.978,432.762 458.5,432.5C 425.929,429.033 395.929,418.533 368.5,401C 355.746,392.422 348.079,380.588 345.5,365.5C 347.221,355.059 351.388,345.725 358,337.5C 363.702,331.63 369.535,325.964 375.5,320.5 Z"/></g>
<g><path style="opacity:0.008" fill="#fefffe" d="M 533.5,334.5 C 534.833,335.167 534.833,335.167 533.5,334.5 Z"/></g>
<g><path style="opacity:1" fill="#d8dbdf" d="M 537.5,392.5 C 537.565,392.062 537.399,391.728 537,391.5C 536.581,392.672 535.915,393.672 535,394.5C 533.809,390.178 532.475,389.845 531,393.5C 530.601,393.272 530.435,392.938 530.5,392.5C 534.761,378.215 538.928,363.881 543,349.5C 545.223,352.779 547.057,356.279 548.5,360C 545.697,371.243 542.031,382.077 537.5,392.5 Z"/></g>
<g><path style="opacity:0.925" fill="#b1bac2" d="M 510.5,402.5 C 512.048,402.821 512.715,403.821 512.5,405.5C 491.801,413.675 470.467,419.675 448.5,423.5C 448.179,421.952 447.179,421.285 445.5,421.5C 466.901,414.592 488.568,408.259 510.5,402.5 Z"/></g>
<g><path style="opacity:0.795" fill="#c4cad1" d="M 530.5,392.5 C 530.435,392.938 530.601,393.272 531,393.5C 532.475,389.845 533.809,390.178 535,394.5C 535.915,393.672 536.581,392.672 537,391.5C 537.399,391.728 537.565,392.062 537.5,392.5C 531.758,407.985 524.924,422.985 517,437.5C 512.4,438.823 507.9,438.823 503.5,437.5C 507.182,437.665 510.848,437.499 514.5,437C 513.584,436.722 512.918,436.222 512.5,435.5C 514.335,434.878 515.502,433.544 516,431.5C 520.498,420.674 524.164,409.674 527,398.5C 522.284,401.125 517.45,403.458 512.5,405.5C 512.715,403.821 512.048,402.821 510.5,402.5C 515.807,400.449 521.141,398.282 526.5,396C 506.748,394.144 487.748,389.644 469.5,382.5C 470.239,382.631 470.906,382.464 471.5,382C 469.667,378.833 467.833,375.667 466,372.5C 465.329,371.748 464.496,371.414 463.5,371.5C 468.25,362.331 473.25,353.331 478.5,344.5C 480.643,346.131 482.31,348.131 483.5,350.5C 481.452,355.599 479.118,360.599 476.5,365.5C 476.833,365.833 477.167,366.167 477.5,366.5C 497.992,358.892 518.325,350.892 538.5,342.5C 538.833,342.833 539.167,343.167 539.5,343.5C 537.833,344.667 536.167,345.833 534.5,347C 514.136,356.849 493.802,366.683 473.5,376.5C 491.169,385 509.669,391 529,394.5C 529.278,393.584 529.778,392.918 530.5,392.5 Z"/></g>
<g><path style="opacity:0.991" fill="#494646" d="M 305.5,426.5 C 305.5,427.5 305.5,428.5 305.5,429.5C 303.585,429.216 301.919,429.549 300.5,430.5C 299.597,433.391 299.264,436.391 299.5,439.5C 301.5,439.5 303.5,439.5 305.5,439.5C 305.5,440.833 305.5,442.167 305.5,443.5C 303.5,443.5 301.5,443.5 299.5,443.5C 299.666,451.174 299.5,458.841 299,466.5C 297.333,467.833 295.667,467.833 294,466.5C 293.5,458.841 293.334,451.174 293.5,443.5C 292.167,443.5 290.833,443.5 289.5,443.5C 289.5,442.167 289.5,440.833 289.5,439.5C 290.833,439.5 292.167,439.5 293.5,439.5C 293.545,435.654 294.378,431.987 296,428.5C 298.945,425.811 302.111,425.145 305.5,426.5 Z"/></g>
<g><path style="opacity:0.928" fill="#3e3b3b" d="M 154.5,426.5 C 157.966,427.109 158.966,428.942 157.5,432C 154.763,433.08 153.096,432.246 152.5,429.5C 152.942,428.261 153.609,427.261 154.5,426.5 Z"/></g>
<g><path style="opacity:0.82" fill="#383434" d="M 531.5,438.5 C 531.5,435.167 531.5,431.833 531.5,428.5C 530.5,428.5 529.5,428.5 528.5,428.5C 530.375,427.363 533.042,427.196 536.5,428C 535.437,429.188 534.103,429.688 532.5,429.5C 532.81,432.713 532.477,435.713 531.5,438.5 Z"/></g>
<g><path style="opacity:0.979" fill="#393636" d="M 139.5,466.5 C 139.667,455.828 139.5,445.161 139,434.5C 138.648,436.247 138.148,437.914 137.5,439.5C 133.674,449.147 129.341,458.48 124.5,467.5C 121.844,464.199 119.678,460.532 118,456.5C 115.211,450.593 112.711,444.593 110.5,438.5C 110.291,437.078 109.791,435.745 109,434.5C 108.5,445.161 108.333,455.828 108.5,466.5C 107.5,466.5 106.5,466.5 105.5,466.5C 105.5,454.167 105.5,441.833 105.5,429.5C 107.621,429.325 109.621,429.659 111.5,430.5C 115.891,439.625 120.058,448.959 124,458.5C 128.484,448.864 132.984,439.197 137.5,429.5C 139.695,428.231 141.861,428.231 144,429.5C 144.667,441.833 144.667,454.167 144,466.5C 142.384,467.801 140.884,467.801 139.5,466.5 Z"/></g>
<g><path style="opacity:0.318" fill="#9e9c9c" d="M 305.5,426.5 C 306.434,427.568 306.768,428.901 306.5,430.5C 304.5,430.5 302.5,430.5 300.5,430.5C 301.919,429.549 303.585,429.216 305.5,429.5C 305.5,428.5 305.5,427.5 305.5,426.5 Z"/></g>
<g><path style="opacity:0.094" fill="#cac9c9" d="M 528.5,428.5 C 529.5,428.5 530.5,428.5 531.5,428.5C 531.5,431.833 531.5,435.167 531.5,438.5C 530.989,435.037 529.989,431.704 528.5,428.5 Z"/></g>
<g><path style="opacity:0.904" fill="#b0b8c1" d="M 459.5,426.5 C 477.138,429.828 494.805,432.828 512.5,435.5C 512.918,436.222 513.584,436.722 514.5,437C 510.848,437.499 507.182,437.665 503.5,437.5C 488.21,437.206 473.21,435.539 458.5,432.5C 459.978,432.762 461.311,432.429 462.5,431.5C 461.237,429.971 460.237,428.305 459.5,426.5 Z"/></g>
<g><path style="opacity:0.557" fill="#4e4a4a" d="M 547.5,438.5 C 547.664,435.813 547.497,433.146 547,430.5C 546.487,431.527 545.987,432.527 545.5,433.5C 543.833,440.167 542.167,440.167 540.5,433.5C 540.013,432.527 539.513,431.527 539,430.5C 538.503,433.146 538.336,435.813 538.5,438.5C 537.192,434.981 537.192,431.315 538.5,427.5C 540.267,429.916 541.767,432.583 543,435.5C 544.233,432.583 545.733,429.916 547.5,427.5C 548.808,431.315 548.808,434.981 547.5,438.5 Z"/></g>
<g><path style="opacity:0.986" fill="#393535" d="M 313.5,431.5 C 314.5,431.5 315.5,431.5 316.5,431.5C 316.5,434.167 316.5,436.833 316.5,439.5C 318.833,439.5 321.167,439.5 323.5,439.5C 323.5,440.833 323.5,442.167 323.5,443.5C 321.167,443.5 318.833,443.5 316.5,443.5C 316.334,449.176 316.501,454.843 317,460.5C 318.224,463.473 320.224,464.14 323,462.5C 323.494,464.134 323.66,465.801 323.5,467.5C 319.397,468.231 315.897,467.231 313,464.5C 311.616,457.589 311.116,450.589 311.5,443.5C 310.167,443.5 308.833,443.5 307.5,443.5C 307.5,442.167 307.5,440.833 307.5,439.5C 308.833,439.5 310.167,439.5 311.5,439.5C 311.132,436.467 311.798,433.8 313.5,431.5 Z"/></g>
<g><path style="opacity:0.035" fill="#dcdbdb" d="M 540.5,433.5 C 539.833,435.167 539.167,436.833 538.5,438.5C 538.336,435.813 538.503,433.146 539,430.5C 539.513,431.527 540.013,432.527 540.5,433.5 Z"/></g>
<g><path style="opacity:0.035" fill="#dbdbdb" d="M 547.5,438.5 C 546.833,436.833 546.167,435.167 545.5,433.5C 545.987,432.527 546.487,431.527 547,430.5C 547.497,433.146 547.664,435.813 547.5,438.5 Z"/></g>
<g><path style="opacity:0.588" fill="#868484" d="M 340.5,445.5 C 342.167,437 338.834,433.833 330.5,436C 326.5,439.667 326.5,443.333 330.5,447C 333.146,447.497 335.813,447.664 338.5,447.5C 332.003,450.919 328.003,448.919 326.5,441.5C 328.091,434.037 332.425,431.871 339.5,435C 342.946,438.342 343.279,441.842 340.5,445.5 Z"/></g>
<g><path style="opacity:1" fill="#ebebeb" d="M 340.5,445.5 C 340.5,446.833 339.833,447.5 338.5,447.5C 335.813,447.664 333.146,447.497 330.5,447C 326.5,443.333 326.5,439.667 330.5,436C 338.834,433.833 342.167,437 340.5,445.5 Z"/></g>
<g><path style="opacity:0.427" fill="#797676" d="M 111.5,430.5 C 109.621,429.659 107.621,429.325 105.5,429.5C 105.5,441.833 105.5,454.167 105.5,466.5C 106.5,466.5 107.5,466.5 108.5,466.5C 108.333,455.828 108.5,445.161 109,434.5C 109.791,435.745 110.291,437.078 110.5,438.5C 109.506,447.986 109.173,457.652 109.5,467.5C 107.833,467.5 106.167,467.5 104.5,467.5C 104.5,454.5 104.5,441.5 104.5,428.5C 107.388,427.99 109.721,428.656 111.5,430.5 Z"/></g>
<g><path style="opacity:0.964" fill="#433f3f" d="M 174.5,438.5 C 177.978,438.184 181.312,438.684 184.5,440C 185.38,441.356 185.714,442.856 185.5,444.5C 172.92,440.913 167.753,445.579 170,458.5C 173.675,463.703 178.342,464.703 184,461.5C 184.798,463.259 184.631,464.926 183.5,466.5C 171.892,469.699 165.226,465.366 163.5,453.5C 164.053,446.008 167.719,441.008 174.5,438.5 Z"/></g>
<g><path style="opacity:0.96" fill="#3d3939" d="M 217.5,438.5 C 232.212,438.892 237.379,446.226 233,460.5C 228.874,466.97 223.041,469.137 215.5,467C 207.892,462.652 205.392,456.152 208,447.5C 209.775,442.888 212.942,439.888 217.5,438.5 Z M 216.5,443.5 C 226.584,442.084 230.75,446.418 229,456.5C 226.571,463.125 222.071,464.959 215.5,462C 211.293,455.574 211.626,449.408 216.5,443.5 Z"/></g>
<g><path style="opacity:0.96" fill="#423e3e" d="M 245.5,438.5 C 248.249,438.274 250.916,438.607 253.5,439.5C 254.833,441.167 254.833,442.833 253.5,444.5C 250.897,443.438 248.23,443.272 245.5,444C 244.24,445.814 244.24,447.647 245.5,449.5C 251.117,450.79 254.783,454.124 256.5,459.5C 253.727,467.051 248.393,469.551 240.5,467C 238.44,465.507 238.107,463.674 239.5,461.5C 242.344,463.103 245.344,463.603 248.5,463C 250.698,461.33 251.032,459.33 249.5,457C 246.088,455.545 242.921,453.712 240,451.5C 237.665,445.326 239.498,440.992 245.5,438.5 Z"/></g>
<g><path style="opacity:0.954" fill="#413d3d" d="M 270.5,438.5 C 279.344,437.329 284.844,440.995 287,449.5C 287.176,465.668 279.676,470.835 264.5,465C 259.039,458.732 258.205,451.899 262,444.5C 264.322,441.605 267.155,439.605 270.5,438.5 Z M 269.5,443.5 C 277.489,441.818 281.823,444.984 282.5,453C 282.092,460.746 278.092,464.08 270.5,463C 266.875,460.929 264.875,457.763 264.5,453.5C 264.71,449.335 266.377,446.002 269.5,443.5 Z"/></g>
<g><path style="opacity:0.998" fill="#3b3838" d="M 152.5,439.5 C 154.167,439.5 155.833,439.5 157.5,439.5C 157.5,448.833 157.5,458.167 157.5,467.5C 155.856,467.714 154.356,467.38 153,466.5C 152.5,457.506 152.334,448.506 152.5,439.5 Z"/></g>
<g><path style="opacity:0.964" fill="#403d3d" d="M 201.5,438.5 C 205.225,438.78 206.392,440.78 205,444.5C 201.274,442.646 198.608,443.646 197,447.5C 195.726,454.103 195.226,460.77 195.5,467.5C 193.856,467.714 192.356,467.38 191,466.5C 190.5,457.506 190.334,448.506 190.5,439.5C 192.167,439.5 193.833,439.5 195.5,439.5C 195.343,440.873 195.51,442.207 196,443.5C 197.107,440.887 198.94,439.22 201.5,438.5 Z"/></g>
<g><path style="opacity:0.145" fill="#c5c5c5" d="M 139.5,466.5 C 138.833,457.5 138.167,448.5 137.5,439.5C 138.148,437.914 138.648,436.247 139,434.5C 139.5,445.161 139.667,455.828 139.5,466.5 Z"/></g>
<g><path style="opacity:1" fill="#4b4848" d="M 331.5,436.5 C 337.209,435.678 338.543,437.511 335.5,442C 337.211,443.133 337.711,444.633 337,446.5C 334.799,441.514 333.132,441.514 332,446.5C 331.502,443.183 331.335,439.85 331.5,436.5 Z"/></g>
<g><path style="opacity:1" fill="#e7e6e6" d="M 332.5,437.5 C 333.5,437.5 334.5,437.5 335.5,437.5C 335.5,438.5 335.5,439.5 335.5,440.5C 334.5,440.5 333.5,440.5 332.5,440.5C 332.5,439.5 332.5,438.5 332.5,437.5 Z"/></g>
<g><path style="opacity:0.996" fill="#121212" d="M 129.5,476.5 C 138.669,475.929 147.502,477.262 156,480.5C 156.828,485.202 156.662,489.869 155.5,494.5C 146.332,489.905 136.666,488.405 126.5,490C 116.699,494.102 113.199,501.269 116,511.5C 124.035,520.525 133.535,527.692 144.5,533C 161.488,544.138 165.321,558.638 156,576.5C 147.964,584.765 138.131,589.098 126.5,589.5C 117.928,588.774 109.595,586.941 101.5,584C 100.529,578.928 100.195,573.762 100.5,568.5C 106.135,570.647 111.802,572.813 117.5,575C 126.633,577.84 135.133,576.673 143,571.5C 147.25,565.07 147.583,558.404 144,551.5C 140.799,547.964 137.299,544.797 133.5,542C 122.583,536.755 113.083,529.588 105,520.5C 98.7029,509.123 99.3696,498.123 107,487.5C 113.331,481.251 120.831,477.584 129.5,476.5 Z"/></g>
<g><path style="opacity:0.994" fill="#111111" d="M 258.5,611.5 C 253.025,612.489 247.358,612.822 241.5,612.5C 234.7,605.53 228.033,598.364 221.5,591C 214.85,589.002 208.183,587.002 201.5,585C 184.115,577.598 174.282,564.431 172,545.5C 167.955,524.021 173.122,505.188 187.5,489C 203.503,477.287 221.17,473.953 240.5,479C 256.596,484.763 266.763,495.93 271,512.5C 278.29,538.852 272.124,561.352 252.5,580C 247.342,583.05 242.008,585.717 236.5,588C 243.672,596.004 251.005,603.838 258.5,611.5 Z M 220.5,488.5 C 239.503,488.405 251.67,497.405 257,515.5C 260.241,526.845 260.241,538.178 257,549.5C 251.568,567.413 239.401,576.413 220.5,576.5C 200.764,574.266 189.264,563.266 186,543.5C 181.893,522.688 188.059,505.855 204.5,493C 209.705,490.536 215.038,489.036 220.5,488.5 Z"/></g>
<g><path style="opacity:0.996" fill="#131313" d="M 407.5,476.5 C 415.732,476.528 423.732,477.862 431.5,480.5C 432.493,485.12 432.827,489.786 432.5,494.5C 427.559,492.91 422.559,491.41 417.5,490C 410.615,488.902 403.949,489.569 397.5,492C 388.595,500.372 388.261,509.038 396.5,518C 403.996,523.249 411.663,528.249 419.5,533C 426.096,537.594 431.262,543.427 435,550.5C 439.562,570.265 432.062,582.765 412.5,588C 400.165,590.049 388.165,588.715 376.5,584C 375.866,581.925 375.532,579.759 375.5,577.5C 375.347,574.283 376.014,571.283 377.5,568.5C 388.317,575.625 399.983,577.792 412.5,575C 422.521,569.421 424.688,561.587 419,551.5C 415.799,547.964 412.299,544.797 408.5,542C 397.994,536.994 388.828,530.16 381,521.5C 372.823,507.038 374.989,494.205 387.5,483C 393.893,479.577 400.56,477.411 407.5,476.5 Z"/></g>
<g><path style="opacity:0.761" fill="#313131" d="M 290.5,478.5 C 290.5,514.167 290.5,549.833 290.5,585.5C 309.167,585.5 327.833,585.5 346.5,585.5C 327.674,586.497 308.674,586.83 289.5,586.5C 289.168,550.329 289.502,514.329 290.5,478.5 Z"/></g>
<g><path style="opacity:0.998" fill="#080808" d="M 346.5,585.5 C 327.833,585.5 309.167,585.5 290.5,585.5C 290.5,549.833 290.5,514.167 290.5,478.5C 294.566,477.178 298.733,477.178 303,478.5C 303.5,510.165 303.667,541.832 303.5,573.5C 317.833,573.5 332.167,573.5 346.5,573.5C 346.5,577.5 346.5,581.5 346.5,585.5 Z"/></g>
<g><path style="opacity:0.996" fill="#141414" d="M 670.5,507.5 C 691.666,504.82 704.5,513.82 709,534.5C 709.667,540.167 709.667,545.833 709,551.5C 691.243,552.492 673.41,552.826 655.5,552.5C 659.509,574.093 672.009,581.426 693,574.5C 696.92,573.373 700.587,571.706 704,569.5C 704.828,573.871 704.661,578.205 703.5,582.5C 687.118,590.99 671.118,590.49 655.5,581C 645.504,572.689 641.171,562.022 642.5,549C 641.577,527.958 650.91,514.125 670.5,507.5 Z M 672.5,519.5 C 687.065,518.56 695.065,525.394 696.5,540C 683.154,540.833 669.821,540.666 656.5,539.5C 658.082,529.594 663.415,522.927 672.5,519.5 Z"/></g>
<g><path style="opacity:0.997" fill="#141414" d="M 505.5,570.5 C 506.483,574.298 506.817,578.298 506.5,582.5C 489.805,590.95 473.472,590.45 457.5,581C 451.778,576.383 447.944,570.55 446,563.5C 440.783,544.188 445.283,527.688 459.5,514C 472.66,505.773 485.993,505.44 499.5,513C 506.054,518.273 509.888,525.106 511,533.5C 511.5,539.825 511.666,546.158 511.5,552.5C 493.488,552.167 475.488,552.5 457.5,553.5C 459.068,563.843 464.401,571.343 473.5,576C 477.761,577.363 482.095,577.696 486.5,577C 493.166,575.723 499.499,573.556 505.5,570.5 Z M 475.5,519.5 C 489.296,518.955 496.962,525.621 498.5,539.5C 485.179,540.666 471.846,540.833 458.5,540C 460.481,529.872 466.148,523.039 475.5,519.5 Z"/></g>
<g><path style="opacity:0.999" fill="#080808" d="M 564.5,508.5 C 564.5,512.5 564.5,516.5 564.5,520.5C 563.5,520.5 562.5,520.5 561.5,520.5C 550.422,519.727 543.255,524.727 540,535.5C 539.358,539.491 538.858,543.491 538.5,547.5C 537.505,559.989 537.171,572.656 537.5,585.5C 533.5,585.5 529.5,585.5 525.5,585.5C 525.5,560.5 525.5,535.5 525.5,510.5C 529.5,510.5 533.5,510.5 537.5,510.5C 537.176,514.555 537.509,518.555 538.5,522.5C 539.298,522.043 539.631,521.376 539.5,520.5C 544.973,510.351 553.307,506.351 564.5,508.5 Z"/></g>
<g><path style="opacity:0.694" fill="#414141" d="M 564.5,508.5 C 565.485,512.634 565.818,516.968 565.5,521.5C 563.901,521.768 562.568,521.434 561.5,520.5C 562.5,520.5 563.5,520.5 564.5,520.5C 564.5,516.5 564.5,512.5 564.5,508.5 Z"/></g>
<g><path style="opacity:0.999" fill="#060606" d="M 753.5,508.5 C 756.5,508.5 759.5,508.5 762.5,508.5C 763.089,512.971 762.423,516.971 760.5,520.5C 749.297,519.186 741.797,523.853 738,534.5C 737.433,537.168 736.933,539.834 736.5,542.5C 735.504,556.657 735.171,570.99 735.5,585.5C 731.5,585.5 727.5,585.5 723.5,585.5C 723.5,560.5 723.5,535.5 723.5,510.5C 727.5,510.5 731.5,510.5 735.5,510.5C 735.334,514.514 735.501,518.514 736,522.5C 736.717,521.956 737.217,521.289 737.5,520.5C 740.271,513.112 745.604,509.112 753.5,508.5 Z"/></g>
<g><path style="opacity:0.443" fill="#888888" d="M 753.5,508.5 C 756.625,507.521 759.958,507.187 763.5,507.5C 763.5,512.167 763.5,516.833 763.5,521.5C 762.209,521.737 761.209,521.404 760.5,520.5C 762.423,516.971 763.089,512.971 762.5,508.5C 759.5,508.5 756.5,508.5 753.5,508.5 Z"/></g>
<g><path style="opacity:0.733" fill="#454545" d="M 584.5,511.5 C 579.733,510.203 575.066,510.203 570.5,511.5C 569.957,511.44 569.624,511.107 569.5,510.5C 572,510.167 574.5,509.833 577,509.5C 579.929,509.525 582.429,510.191 584.5,511.5 Z"/></g>
<g><path style="opacity:0.659" fill="#525252" d="M 640.5,512.5 C 638.952,511.206 636.952,510.539 634.5,510.5C 632.079,510.56 629.746,510.893 627.5,511.5C 631.715,509.564 636.381,508.897 641.5,509.5C 641.737,510.791 641.404,511.791 640.5,512.5 Z"/></g>
<g><path style="opacity:1" fill="#f0efef" d="M 779.5,509.5 C 781.469,512.697 781.803,516.03 780.5,519.5C 779.391,519.443 778.391,519.11 777.5,518.5C 776.183,516.518 776.183,514.518 777.5,512.5C 777.253,511.287 776.586,510.62 775.5,510.5C 774.737,509.732 773.737,509.232 772.5,509C 774.885,508.444 777.218,508.61 779.5,509.5 Z"/></g>
<g><path style="opacity:0.631" fill="#454545" d="M 539.5,520.5 C 539.631,521.376 539.298,522.043 538.5,522.5C 537.509,518.555 537.176,514.555 537.5,510.5C 533.5,510.5 529.5,510.5 525.5,510.5C 525.5,535.5 525.5,560.5 525.5,585.5C 529.5,585.5 533.5,585.5 537.5,585.5C 537.171,572.656 537.505,559.989 538.5,547.5C 538.5,560.5 538.5,573.5 538.5,586.5C 533.833,586.5 529.167,586.5 524.5,586.5C 524.5,560.833 524.5,535.167 524.5,509.5C 529.167,509.5 533.833,509.5 538.5,509.5C 538.185,513.371 538.518,517.038 539.5,520.5 Z"/></g>
<g><path style="opacity:0.996" fill="#121212" d="M 584.5,511.5 C 590.832,530.994 597.665,550.327 605,569.5C 612.989,550.368 620.489,531.035 627.5,511.5C 629.746,510.893 632.079,510.56 634.5,510.5C 636.952,510.539 638.952,511.206 640.5,512.5C 631.013,536.812 621.513,561.145 612,585.5C 607.263,586.469 602.43,586.803 597.5,586.5C 588.221,561.608 579.221,536.608 570.5,511.5C 575.066,510.203 579.733,510.203 584.5,511.5 Z"/></g>
<g><path style="opacity:0.82" fill="#272727" d="M 737.5,520.5 C 737.217,521.289 736.717,521.956 736,522.5C 735.501,518.514 735.334,514.514 735.5,510.5C 731.5,510.5 727.5,510.5 723.5,510.5C 723.5,535.5 723.5,560.5 723.5,585.5C 723.167,585.5 722.833,585.5 722.5,585.5C 722.5,560.167 722.5,534.833 722.5,509.5C 727.167,509.5 731.833,509.5 736.5,509.5C 736.185,513.371 736.518,517.038 737.5,520.5 Z"/></g>
<g><path style="opacity:1" fill="#504d4d" d="M 771.5,510.5 C 772.833,510.5 774.167,510.5 775.5,510.5C 776.586,510.62 777.253,511.287 777.5,512.5C 776.183,514.518 776.183,516.518 777.5,518.5C 777.5,519.167 777.167,519.5 776.5,519.5C 774.807,514.429 773.474,514.429 772.5,519.5C 771.516,516.572 771.183,513.572 771.5,510.5 Z"/></g>
<g><path style="opacity:1" fill="#f8f8f8" d="M 773.5,511.5 C 776.957,511.667 777.29,512.667 774.5,514.5C 773.614,513.675 773.281,512.675 773.5,511.5 Z"/></g>
<g><path style="opacity:0.702" fill="#636060" d="M 779.5,509.5 C 781.876,510.512 782.876,512.345 782.5,515C 782.693,517.008 782.026,518.508 780.5,519.5C 781.803,516.03 781.469,512.697 779.5,509.5 Z"/></g>
<g><path style="opacity:1" fill="#f5f5f5" d="M 771.5,510.5 C 771.183,513.572 771.516,516.572 772.5,519.5C 773.474,514.429 774.807,514.429 776.5,519.5C 777.643,521.101 776.976,521.767 774.5,521.5C 768.905,520.422 767.072,517.088 769,511.5C 769.838,510.001 770.671,509.668 771.5,510.5 Z"/></g>
<g><path style="opacity:0.435" fill="#7d7a7a" d="M 779.5,509.5 C 777.218,508.61 774.885,508.444 772.5,509C 773.737,509.232 774.737,509.732 775.5,510.5C 774.167,510.5 772.833,510.5 771.5,510.5C 770.671,509.668 769.838,510.001 769,511.5C 767.072,517.088 768.905,520.422 774.5,521.5C 776.976,521.767 777.643,521.101 776.5,519.5C 777.167,519.5 777.5,519.167 777.5,518.5C 778.391,519.11 779.391,519.443 780.5,519.5C 780.047,520.458 779.381,521.292 778.5,522C 771.75,524.234 767.75,521.901 766.5,515C 768.531,507.39 772.864,505.557 779.5,509.5 Z"/></g>
<g><path style="opacity:0.506" fill="#646464" d="M 736.5,542.5 C 736.5,557.167 736.5,571.833 736.5,586.5C 731.637,586.819 726.97,586.486 722.5,585.5C 722.833,585.5 723.167,585.5 723.5,585.5C 727.5,585.5 731.5,585.5 735.5,585.5C 735.171,570.99 735.504,556.657 736.5,542.5 Z"/></g>
<g><path style="opacity:0.247" fill="#b0b0b0" d="M 505.5,570.5 C 505.56,569.957 505.893,569.624 506.5,569.5C 507.811,573.984 507.811,578.317 506.5,582.5C 506.817,578.298 506.483,574.298 505.5,570.5 Z"/></g>
<g><path style="opacity:0.659" fill="#484848" d="M 258.5,611.5 C 259.289,611.783 259.956,612.283 260.5,613C 253.986,613.82 247.653,613.653 241.5,612.5C 247.358,612.822 253.025,612.489 258.5,611.5 Z"/></g>
</svg>
